<svg id="Layer_1" data-name="Layer 1" xmlns="http://www.w3.org/2000/svg" viewBox="0 0 44 44"><defs><style>.cls-1{fill:#fff;}.cls-2{fill:#6438eb;}</style></defs><path class="cls-1" d="M305.88,416.4a20,20,0,1,1,20-20A20,20,0,0,1,305.88,416.4Z" transform="translate(-283.88 -374.4)"/><path class="cls-2" d="M305.88,378.4a18,18,0,1,1-18,18,18,18,0,0,1,18-18m0-4a22,22,0,1,0,22,22,22,22,0,0,0-22-22Z" transform="translate(-283.88 -374.4)"/><path class="cls-1" d="M305.64,404.75V394.59h.51v10.16Zm.25-16.58a.43.43,0,0,1-.32-.13.45.45,0,0,1-.13-.31.47.47,0,0,1,.43-.46.5.5,0,0,1,.35.14.41.41,0,0,1,.11.28.43.43,0,0,1-.1.34.46.46,0,0,1-.33.14Z" transform="translate(-283.88 -374.4)"/><path class="cls-2" d="M305.87,385.27a2.45,2.45,0,0,0,0,4.9h.06a2.45,2.45,0,0,0,0-4.9Zm2.28,7.32h-4.51v14.16h4.51V392.59Z" transform="translate(-283.88 -374.4)"/></svg>