<?xml version="1.0" encoding="utf-8"?>
<!-- Generator: Adobe Illustrator 24.2.3, SVG Export Plug-In . SVG Version: 6.00 Build 0)  -->
<svg version="1.1" id="Layer_1" xmlns="http://www.w3.org/2000/svg" xmlns:xlink="http://www.w3.org/1999/xlink" x="0px" y="0px"
	 viewBox="0 0 70 70" style="enable-background:new 0 0 70 70;" xml:space="preserve">
<style type="text/css">
	.st0{fill:#FFFFFF;}
	.st1{fill:#D1D1D4;}
	.st2{fill:none;stroke:#000000;stroke-width:2;stroke-miterlimit:10;}
</style>
<g>
	<g>
		<path class="st0" d="M35,69.63c-9.25,0-17.94-3.6-24.48-10.14C3.98,52.94,0.38,44.25,0.38,35c0-9.25,3.6-17.94,10.14-24.48
			C17.06,3.98,25.75,0.38,35,0.38c9.25,0,17.94,3.6,24.48,10.14c13.5,13.5,13.5,35.47,0,48.97C52.94,66.02,44.25,69.63,35,69.63z"/>
		<path class="st1" d="M35,0.75c9.15,0,17.75,3.56,24.22,10.03c13.35,13.35,13.35,35.08,0,48.44C52.75,65.69,44.15,69.25,35,69.25
			c-9.15,0-17.75-3.56-24.22-10.03c-13.35-13.35-13.35-35.08,0-48.44C17.25,4.31,25.85,0.75,35,0.75 M35,0
			c-8.96,0-17.91,3.42-24.75,10.25c-13.67,13.67-13.67,35.83,0,49.5C17.09,66.58,26.04,70,35,70s17.91-3.42,24.75-10.25
			c13.67-13.67,13.67-35.83,0-49.5C52.91,3.42,43.96,0,35,0L35,0z"/>
	</g>
	<polyline class="st2" points="29.33,23.66 40.67,35 29.33,46.34 	"/>
</g>
</svg>
