<?xml version="1.0" encoding="utf-8"?>
<!-- Generator: Adobe Illustrator 24.2.3, SVG Export Plug-In . SVG Version: 6.00 Build 0)  -->
<svg version="1.1" id="Layer_1" xmlns="http://www.w3.org/2000/svg" xmlns:xlink="http://www.w3.org/1999/xlink" x="0px" y="0px"
	 viewBox="0 0 152 45" style="enable-background:new 0 0 152 45;" xml:space="preserve">
<style type="text/css">
	.st0{fill:#FFFFFF;}
	.st1{fill:#020203;}
	.st2{fill:#60C6F2;}
	.st3{clip-path:url(#SVGID_2_);fill:url(#SVGID_3_);}
	.st4{clip-path:url(#SVGID_5_);fill:url(#SVGID_6_);}
	.st5{clip-path:url(#SVGID_8_);fill:url(#SVGID_9_);}
</style>
<g>
	<g>
		<g>
			<path class="st0" d="M146.37,45H5.63C2.53,45,0,42.47,0,39.37V5.63C0,2.53,2.53,0,5.63,0h140.74c3.1,0,5.63,2.53,5.63,5.63v33.75
				C152,42.47,149.47,45,146.37,45"/>
			<g>
				<path class="st1" d="M53.41,11.52c0,0.94-0.28,1.69-0.84,2.25c-0.64,0.67-1.46,1-2.48,1c-0.97,0-1.8-0.34-2.48-1.01
					c-0.68-0.68-1.02-1.51-1.02-2.51c0-1,0.34-1.84,1.02-2.51c0.68-0.68,1.51-1.01,2.48-1.01c0.48,0,0.95,0.1,1.39,0.28
					c0.44,0.19,0.79,0.44,1.06,0.75l-0.59,0.59c-0.45-0.53-1.06-0.8-1.85-0.8c-0.71,0-1.32,0.25-1.84,0.75
					c-0.52,0.5-0.78,1.15-0.78,1.95c0,0.8,0.26,1.45,0.78,1.95c0.52,0.5,1.13,0.75,1.84,0.75c0.76,0,1.38-0.25,1.89-0.75
					c0.33-0.33,0.51-0.78,0.57-1.37h-2.45v-0.81h3.27C53.39,11.19,53.41,11.36,53.41,11.52"/>
				<path class="st1" d="M53.41,11.52H53.3c0,0.92-0.27,1.64-0.81,2.17v0l0,0c-0.61,0.64-1.4,0.96-2.4,0.96
					c-0.95,0-1.74-0.32-2.4-0.98c-0.66-0.66-0.99-1.46-0.99-2.43c0-0.97,0.33-1.78,0.99-2.43c0.66-0.66,1.46-0.98,2.4-0.98
					c0.47,0,0.92,0.09,1.34,0.27c0.43,0.18,0.76,0.42,1.01,0.72l0.09-0.07l-0.08-0.08l-0.59,0.6l0.08,0.08l0.08-0.07
					c-0.47-0.56-1.12-0.84-1.93-0.84c-0.74,0-1.38,0.26-1.92,0.78c-0.54,0.52-0.81,1.21-0.81,2.03c0,0.82,0.27,1.51,0.81,2.03
					c0.54,0.52,1.19,0.78,1.92,0.78c0.78,0,1.44-0.26,1.97-0.79c0.35-0.35,0.55-0.83,0.6-1.44l0.01-0.12H50.2v-0.59h3.16v-0.11
					l-0.11,0.02c0.03,0.17,0.05,0.33,0.05,0.49h0.22c0-0.17-0.02-0.35-0.05-0.53l-0.02-0.09h-3.48v1.03h2.57v-0.11l-0.11-0.01
					c-0.05,0.57-0.23,0.99-0.53,1.3c-0.48,0.48-1.08,0.72-1.81,0.72c-0.68,0-1.26-0.24-1.77-0.72c-0.5-0.48-0.74-1.09-0.74-1.87
					c0-0.77,0.25-1.39,0.74-1.87c0.5-0.48,1.08-0.72,1.77-0.72c0.76,0,1.34,0.25,1.76,0.76l0.08,0.09l0.68-0.68l0.07-0.07
					l-0.07-0.08c-0.28-0.33-0.65-0.59-1.1-0.79c-0.45-0.19-0.93-0.29-1.43-0.29c-1,0-1.86,0.35-2.56,1.05
					c-0.7,0.69-1.06,1.57-1.06,2.59c0,1.02,0.35,1.9,1.06,2.59c0.7,0.7,1.56,1.05,2.56,1.04c1.04,0,1.91-0.35,2.56-1.03l-0.08-0.08
					l0.08,0.08c0.58-0.58,0.87-1.37,0.87-2.33H53.41"/>
				<polyline class="st1" points="58.59,8.7 55.52,8.7 55.52,10.84 58.29,10.84 58.29,11.65 55.52,11.65 55.52,13.8 58.59,13.8 
					58.59,14.62 54.65,14.62 54.65,7.88 58.59,7.88 58.59,8.7 				"/>
				<polyline class="st1" points="58.59,8.7 58.59,8.59 55.41,8.59 55.41,10.96 58.18,10.96 58.18,11.54 55.41,11.54 55.41,13.91 
					58.48,13.91 58.48,14.51 54.77,14.51 54.77,7.99 58.48,7.99 58.48,8.7 58.59,8.7 58.59,8.59 58.59,8.7 58.71,8.7 58.71,7.76 
					54.54,7.76 54.54,14.74 58.71,14.74 58.71,13.68 55.63,13.68 55.63,11.77 58.4,11.77 58.4,10.73 55.63,10.73 55.63,8.82 
					58.71,8.82 58.71,8.7 58.59,8.7 				"/>
				<polyline class="st1" points="62.25,14.62 61.38,14.62 61.38,8.7 59.5,8.7 59.5,7.88 64.14,7.88 64.14,8.7 62.25,8.7 
					62.25,14.62 				"/>
				<polyline class="st1" points="62.25,14.62 62.25,14.51 61.5,14.51 61.5,8.59 59.61,8.59 59.61,7.99 64.03,7.99 64.03,8.59 
					62.14,8.59 62.14,14.62 62.25,14.62 62.25,14.51 62.25,14.62 62.36,14.62 62.36,8.82 64.25,8.82 64.25,7.76 59.39,7.76 
					59.39,8.82 61.27,8.82 61.27,14.74 62.36,14.74 62.36,14.62 62.25,14.62 				"/>
				<rect x="67.49" y="7.88" class="st1" width="0.87" height="6.75"/>
				<polyline class="st1" points="67.49,14.62 67.61,14.62 67.61,7.99 68.25,7.99 68.25,14.51 67.49,14.51 67.49,14.62 67.61,14.62 
					67.49,14.62 67.49,14.74 68.47,14.74 68.47,7.76 67.38,7.76 67.38,14.74 67.49,14.74 67.49,14.62 				"/>
				<polyline class="st1" points="72.21,14.62 71.34,14.62 71.34,8.7 69.45,8.7 69.45,7.88 74.09,7.88 74.09,8.7 72.21,8.7 
					72.21,14.62 				"/>
				<polyline class="st1" points="72.21,14.62 72.21,14.51 71.45,14.51 71.45,8.59 69.57,8.59 69.57,7.99 73.98,7.99 73.98,8.59 
					72.1,8.59 72.1,14.62 72.21,14.62 72.21,14.51 72.21,14.62 72.32,14.62 72.32,8.82 74.2,8.82 74.2,7.76 69.34,7.76 69.34,8.82 
					71.23,8.82 71.23,14.74 72.32,14.74 72.32,14.62 72.21,14.62 				"/>
				<path class="st1" d="M82.87,13.75c-0.66,0.68-1.49,1.02-2.47,1.02c-0.99,0-1.81-0.34-2.47-1.02c-0.66-0.68-0.99-1.52-0.99-2.5
					s0.33-1.82,0.99-2.5c0.66-0.68,1.49-1.02,2.47-1.02c0.98,0,1.8,0.34,2.47,1.03c0.67,0.68,1,1.52,1,2.5
					C83.87,12.24,83.53,13.07,82.87,13.75 M78.56,13.19c0.5,0.51,1.11,0.76,1.83,0.76c0.72,0,1.33-0.25,1.83-0.76
					c0.5-0.51,0.75-1.15,0.75-1.94s-0.25-1.43-0.75-1.94c-0.5-0.51-1.11-0.76-1.83-0.76c-0.72,0-1.33,0.25-1.83,0.76
					c-0.5,0.51-0.75,1.15-0.75,1.94S78.07,12.68,78.56,13.19z"/>
				<path class="st1" d="M82.87,13.75l-0.08-0.08c-0.64,0.66-1.43,0.99-2.39,0.99c-0.96,0-1.75-0.33-2.39-0.99l0,0l0,0
					c-0.64-0.66-0.96-1.46-0.96-2.42s0.32-1.76,0.96-2.42c0.64-0.66,1.43-0.99,2.39-0.99c0.95,0,1.74,0.33,2.39,0.99
					c0.64,0.67,0.96,1.46,0.96,2.42c0,0.96-0.32,1.76-0.96,2.42l0.16,0.16c0.68-0.7,1.03-1.57,1.03-2.58c0-1.01-0.34-1.87-1.03-2.58
					c-0.68-0.71-1.54-1.06-2.55-1.06c-1.01,0-1.87,0.35-2.55,1.06c-0.68,0.7-1.03,1.57-1.03,2.58c0,1.01,0.34,1.88,1.03,2.58l0,0
					l0,0c0.68,0.7,1.54,1.06,2.55,1.06c1.01,0,1.87-0.35,2.55-1.06L82.87,13.75 M78.56,13.19l-0.08,0.08
					c0.52,0.53,1.16,0.79,1.91,0.79c0.75,0,1.4-0.27,1.91-0.79c0.52-0.53,0.78-1.21,0.78-2.02c0-0.81-0.26-1.49-0.78-2.02
					c-0.52-0.53-1.17-0.79-1.91-0.79c-0.75,0-1.4,0.26-1.91,0.79s-0.78,1.21-0.78,2.02c0,0.81,0.26,1.49,0.78,2.02l0.16-0.16
					c-0.48-0.48-0.72-1.1-0.72-1.86c0-0.76,0.24-1.37,0.72-1.86h0c0.48-0.49,1.06-0.72,1.75-0.72c0.7,0,1.27,0.24,1.75,0.72
					c0.48,0.49,0.71,1.1,0.72,1.86c0,0.76-0.24,1.37-0.72,1.86c-0.48,0.49-1.06,0.72-1.75,0.73c-0.7,0-1.27-0.24-1.75-0.73
					L78.56,13.19z"/>
				<polyline class="st1" points="85.08,14.62 85.08,7.88 86.14,7.88 89.42,13.13 89.46,13.13 89.42,11.82 89.42,7.88 90.29,7.88 
					90.29,14.62 89.38,14.62 85.95,9.12 85.91,9.12 85.95,10.42 85.95,14.62 85.08,14.62 				"/>
				<polyline class="st1" points="85.08,14.62 85.2,14.62 85.2,7.99 86.08,7.99 89.36,13.24 89.57,13.24 89.53,11.82 89.53,7.99 
					90.18,7.99 90.18,14.51 89.45,14.51 86.01,9.01 85.8,9.01 85.84,10.42 85.84,14.51 85.08,14.51 85.08,14.62 85.2,14.62 
					85.08,14.62 85.08,14.74 86.06,14.74 86.06,10.42 86.02,9.12 85.91,9.12 85.91,9.23 85.95,9.23 85.95,9.12 85.86,9.18 
					89.32,14.74 90.4,14.74 90.4,7.76 89.31,7.76 89.31,11.83 89.35,13.13 89.46,13.13 89.46,13.01 89.42,13.01 89.42,13.13 
					89.52,13.07 86.2,7.76 84.97,7.76 84.97,14.74 85.08,14.74 85.08,14.62 				"/>
			</g>
			<path class="st1" d="M76.72,24.47c-2.65,0-4.8,2.01-4.8,4.78c0,2.75,2.16,4.78,4.8,4.78c2.65,0,4.8-2.03,4.8-4.78
				C81.52,26.48,79.36,24.47,76.72,24.47 M76.72,32.15c-1.45,0-2.7-1.2-2.7-2.9c0-1.72,1.25-2.9,2.7-2.9s2.7,1.18,2.7,2.9
				C79.41,30.96,78.17,32.15,76.72,32.15z M66.24,24.47c-2.65,0-4.8,2.01-4.8,4.78c0,2.75,2.16,4.78,4.8,4.78
				c2.65,0,4.8-2.03,4.8-4.78C71.04,26.48,68.88,24.47,66.24,24.47z M66.24,32.15c-1.45,0-2.7-1.2-2.7-2.9c0-1.72,1.25-2.9,2.7-2.9
				s2.7,1.18,2.7,2.9C68.94,30.96,67.69,32.15,66.24,32.15z M53.77,25.94v2.03h4.86c-0.15,1.14-0.53,1.98-1.11,2.56
				c-0.71,0.71-1.82,1.49-3.75,1.49c-2.99,0-5.33-2.41-5.33-5.4c0-2.99,2.34-5.4,5.33-5.4c1.61,0,2.79,0.63,3.66,1.45l1.43-1.43
				c-1.22-1.16-2.83-2.05-5.09-2.05c-4.1,0-7.54,3.34-7.54,7.43c0,4.1,3.44,7.43,7.54,7.43c2.21,0,3.88-0.72,5.18-2.08
				c1.34-1.34,1.76-3.23,1.76-4.75c0-0.47-0.04-0.91-0.11-1.27H53.77z M104.75,27.52c-0.4-1.07-1.61-3.04-4.1-3.04
				c-2.46,0-4.51,1.94-4.51,4.78c0,2.68,2.03,4.78,4.75,4.78c2.19,0,3.46-1.34,3.99-2.12l-1.63-1.09c-0.54,0.8-1.29,1.32-2.36,1.32
				c-1.07,0-1.83-0.49-2.32-1.45l6.4-2.65L104.75,27.52z M98.22,29.11c-0.06-1.85,1.43-2.79,2.5-2.79c0.83,0,1.54,0.42,1.77,1.01
				L98.22,29.11z M93.02,33.75h2.1V19.68h-2.1V33.75z M89.57,25.54H89.5c-0.47-0.56-1.38-1.07-2.52-1.07c-2.39,0-4.59,2.1-4.59,4.8
				c0,2.68,2.19,4.77,4.59,4.77c1.14,0,2.05-0.51,2.52-1.09h0.07v0.69c0,1.83-0.98,2.81-2.56,2.81c-1.29,0-2.09-0.92-2.41-1.7
				l-1.83,0.76c0.52,1.27,1.92,2.83,4.24,2.83c2.47,0,4.55-1.45,4.55-4.98v-8.59h-1.99V25.54z M87.17,32.15
				c-1.45,0-2.66-1.21-2.66-2.88c0-1.69,1.21-2.92,2.66-2.92c1.43,0,2.55,1.23,2.55,2.92C89.72,30.94,88.6,32.15,87.17,32.15z
				 M114.59,19.69h-5.03v14.06h2.1v-5.33h2.93c2.33,0,4.61-1.69,4.61-4.37C119.21,21.37,116.92,19.69,114.59,19.69z M114.65,26.46
				h-2.99v-4.82h2.99c1.57,0,2.46,1.3,2.46,2.41C117.11,25.14,116.22,26.46,114.65,26.46z M127.62,24.45
				c-1.52,0-3.09,0.67-3.74,2.15l1.86,0.78c0.4-0.78,1.14-1.03,1.92-1.03c1.09,0,2.19,0.65,2.21,1.81v0.14
				c-0.38-0.22-1.19-0.54-2.19-0.54c-2.01,0-4.05,1.1-4.05,3.17c0,1.88,1.64,3.1,3.49,3.1c1.41,0,2.19-0.63,2.68-1.38h0.07v1.09
				h2.03v-5.39C131.89,25.84,130.03,24.45,127.62,24.45z M127.37,32.15c-0.69,0-1.65-0.34-1.65-1.19c0-1.09,1.19-1.5,2.22-1.5
				c0.92,0,1.36,0.2,1.92,0.47C129.7,31.23,128.58,32.15,127.37,32.15z M139.27,24.75l-2.41,6.1h-0.07l-2.5-6.1h-2.26l3.75,8.52
				l-2.14,4.74h2.19l5.77-13.26H139.27z M120.37,33.75h2.1V19.69h-2.1V33.75z"/>
			<path class="st2" d="M11.8,8.49c-0.33,0.35-0.52,0.88-0.52,1.58v24.86c0,0.7,0.19,1.23,0.52,1.58l0.08,0.08l13.93-13.93v-0.33
				L11.89,8.41L11.8,8.49"/>
			<g>
				<defs>
					<path id="SVGID_1_" d="M30.45,27.31l-4.64-4.64v-0.33l4.64-4.64l5.6,3.18c1.57,0.89,1.57,2.35,0,3.24l-5.5,3.13L30.45,27.31"/>
				</defs>
				<clipPath id="SVGID_2_">
					<use xlink:href="#SVGID_1_"  style="overflow:visible;"/>
				</clipPath>
				
					<linearGradient id="SVGID_3_" gradientUnits="userSpaceOnUse" x1="1.034" y1="51.6555" x2="2.159" y2="51.6555" gradientTransform="matrix(-24.1769 0 0 24.1769 60.0394 -1226.3682)">
					<stop  offset="0" style="stop-color:#FDDF09"/>
					<stop  offset="0.1807" style="stop-color:#FBD015"/>
					<stop  offset="0.543" style="stop-color:#F8B41F"/>
					<stop  offset="0.8286" style="stop-color:#F5A122"/>
					<stop  offset="1" style="stop-color:#F59A23"/>
				</linearGradient>
				<rect x="25.81" y="17.69" class="st3" width="11.82" height="9.62"/>
			</g>
			<g>
				<defs>
					<path id="SVGID_4_" d="M30.56,27.25l-4.75-4.75L11.8,36.51c0.52,0.55,1.37,0.62,2.34,0.07L30.56,27.25"/>
				</defs>
				<clipPath id="SVGID_5_">
					<use xlink:href="#SVGID_4_"  style="overflow:visible;"/>
				</clipPath>
				
					<linearGradient id="SVGID_6_" gradientUnits="userSpaceOnUse" x1="0.9456" y1="51.433" x2="2.0706" y2="51.433" gradientTransform="matrix(-22.7394 22.7394 22.7394 22.7394 -1121.1078 -1167.011)">
					<stop  offset="0" style="stop-color:#E94549"/>
					<stop  offset="1" style="stop-color:#C71B6E"/>
				</linearGradient>
				<polygon class="st4" points="37.87,29.81 21.18,46.5 4.49,29.81 21.18,13.12 				"/>
			</g>
			<g>
				<defs>
					<path id="SVGID_7_" d="M30.56,17.75L14.14,8.42c-0.96-0.55-1.82-0.48-2.34,0.07L25.81,22.5L30.56,17.75"/>
				</defs>
				<clipPath id="SVGID_8_">
					<use xlink:href="#SVGID_7_"  style="overflow:visible;"/>
				</clipPath>
				
					<linearGradient id="SVGID_9_" gradientUnits="userSpaceOnUse" x1="0.4104" y1="51.3431" x2="1.5354" y2="51.3431" gradientTransform="matrix(18.5663 18.5663 18.5663 -18.5663 -959.6196 940.8881)">
					<stop  offset="0" style="stop-color:#259E6F"/>
					<stop  offset="0.259" style="stop-color:#47A86E"/>
					<stop  offset="0.7178" style="stop-color:#6BB66B"/>
					<stop  offset="1" style="stop-color:#77BC69"/>
				</linearGradient>
				<polygon class="st5" points="21.18,-1.5 37.87,15.19 21.18,31.88 4.49,15.19 				"/>
			</g>
		</g>
	</g>
</g>
</svg>
