<?xml version="1.0" encoding="utf-8"?>
<!-- Generator: Adobe Illustrator 24.2.3, SVG Export Plug-In . SVG Version: 6.00 Build 0)  -->
<svg version="1.1" xmlns="http://www.w3.org/2000/svg" xmlns:xlink="http://www.w3.org/1999/xlink" x="0px" y="0px"
	 viewBox="0 0 70 70" style="enable-background:new 0 0 70 70;" xml:space="preserve">
<style type="text/css">
	.st0{display:none;}
	.st1{display:inline;}
	.st2{opacity:0;fill:none;stroke:#000000;stroke-width:0.25;stroke-miterlimit:10;}
	.st3{fill-rule:evenodd;clip-rule:evenodd;fill:#FFFFFF;stroke:#000000;stroke-width:1.5;stroke-miterlimit:22.9256;}
	.st4{fill:#FFFFFF;stroke:#000000;stroke-width:1.5;stroke-miterlimit:10;}
	.st5{fill:none;stroke:#6438EB;stroke-width:1.5;stroke-miterlimit:10;}
	.st6{fill:none;stroke:#000000;stroke-width:1.5;stroke-miterlimit:10;}
	.st7{fill-rule:evenodd;clip-rule:evenodd;fill:none;stroke:#6438EB;stroke-width:1.5;stroke-miterlimit:10;}
	.st8{fill-rule:evenodd;clip-rule:evenodd;fill:#FFFFFF;stroke:#6438EB;stroke-width:1.5;stroke-miterlimit:10;}
	.st9{fill-rule:evenodd;clip-rule:evenodd;fill:none;stroke:#000000;stroke-width:1.5;stroke-miterlimit:22.9256;}
	.st10{fill:#FFFFFF;stroke:#000000;stroke-width:1.5;stroke-miterlimit:22.9256;}
	.st11{fill-rule:evenodd;clip-rule:evenodd;fill:none;}
	
		.st12{fill-rule:evenodd;clip-rule:evenodd;fill:none;stroke:#000000;stroke-width:1.5;stroke-linejoin:round;stroke-miterlimit:22.9256;}
	
		.st13{fill-rule:evenodd;clip-rule:evenodd;fill:none;stroke:#6438EB;stroke-width:1.5;stroke-linecap:round;stroke-linejoin:round;stroke-miterlimit:22.9256;}
	
		.st14{fill-rule:evenodd;clip-rule:evenodd;fill:none;stroke:#6438EB;stroke-width:1.5;stroke-miterlimit:22.9256;stroke-dasharray:3,1;}
	.st15{fill:#FFFFFF;stroke:#6438EB;stroke-width:1.5;stroke-miterlimit:22.9256;}
	.st16{fill:none;stroke:#6438EB;stroke-width:1.5;stroke-miterlimit:22.9256;}
	.st17{fill-rule:evenodd;clip-rule:evenodd;fill:#FFFFFF;stroke:#6438EB;stroke-width:1.5;stroke-miterlimit:22.9256;}
	.st18{fill-rule:evenodd;clip-rule:evenodd;fill:none;stroke:#6438EB;stroke-width:1.5;stroke-miterlimit:22.9256;}
	.st19{fill:#6438EB;}
	.st20{fill-rule:evenodd;clip-rule:evenodd;fill:#6438EB;}
	.st21{fill:none;stroke:#000000;stroke-width:1.5;stroke-miterlimit:22.9256;}
	.st22{fill:#FFFFFF;}
	.st23{fill:none;stroke:#6438EB;stroke-width:1.5;stroke-linejoin:round;stroke-miterlimit:22.9256;}
	
		.st24{fill-rule:evenodd;clip-rule:evenodd;fill:none;stroke:#6438EB;stroke-width:1.5;stroke-linejoin:round;stroke-miterlimit:22.9256;}
	.st25{fill:none;stroke:#6438EB;stroke-width:1.5;stroke-linecap:round;stroke-miterlimit:22.9256;}
</style>
<g id="_x30_1" class="st0">
	<g class="st1">
		<circle class="st2" cx="35" cy="35" r="35"/>
		<g>
			<g>
				<g>
					<g>
						<path class="st3" d="M47.03,58.37H12.71c-0.61,0-1.1-0.49-1.1-1.1V13.45c0-0.61,0.49-1.1,1.1-1.1H47c0.61,0,1.1,0.49,1.1,1.1
							V57.3C48.1,57.89,47.62,58.37,47.03,58.37z"/>
						<path class="st4" d="M38.96,15.04V9.75c0-0.64-0.52-1.16-1.16-1.16h-3.26c-0.26-2.37-2.23-4.23-4.68-4.23l0,0
							c-2.44,0-4.42,1.85-4.68,4.23h-3.26c-0.64,0-1.16,0.52-1.16,1.16v5.29c0,0.64,0.52,1.16,1.16,1.16H37.8
							C38.44,16.2,38.96,15.68,38.96,15.04z"/>
						<line class="st5" x1="17.88" y1="23.48" x2="41.83" y2="23.48"/>
						<line class="st5" x1="17.88" y1="29" x2="41.83" y2="29"/>
						<line class="st5" x1="17.88" y1="34.53" x2="29.87" y2="34.53"/>
					</g>
					<g>
						<g>
							<circle class="st5" cx="35.83" cy="46" r="6.27"/>
						</g>
						<polyline class="st5" points="32.03,44.35 35.7,48.19 41.59,40.7 						"/>
					</g>
				</g>
			</g>
			<g>
				<path class="st4" d="M58.39,48.35l-2.34,9.58c-0.14,0.58-0.97,0.58-1.11,0l-2.34-9.58V15.68c0-1.6,1.3-2.9,2.9-2.9h0
					c1.6,0,2.9,1.3,2.9,2.9V48.35z"/>
				<line class="st6" x1="52.59" y1="48.35" x2="58.39" y2="48.35"/>
				<line class="st6" x1="52.59" y1="21.06" x2="58.39" y2="21.06"/>
			</g>
		</g>
	</g>
</g>
<g id="_x30_2" class="st0">
	<g class="st1">
		<circle class="st2" cx="35" cy="35" r="35"/>
		<g>
			<path class="st3" d="M53.76,29.52h5.63c2.48,0,3.84,1.38,3.84,3.84V48.8c0,2.46-1.38,3.84-3.84,3.84h-4.34v5.1l-7.35-5.1H37.4
				c-2.46,0-3.84-1.38-3.84-3.84v-1.57"/>
			<path class="st3" d="M16.92,54.33L15.8,43.95c-6.06-3.32-10-8.75-10-14.89c0-10.12,10.73-18.32,23.97-18.32
				c13.24,0,23.97,8.2,23.97,18.32c0,10.12-10.73,18.32-23.97,18.32c-0.99,0-1.97-0.05-2.93-0.14L16.92,54.33z"/>
			<path class="st7" d="M29.77,18.08c-8.64,0-15.64,4.92-15.64,10.99"/>
		</g>
	</g>
</g>
<g id="_x30_3" class="st0">
	<g class="st1">
		<g>
			<g>
				<g>
					<g>
						<g>
							<path class="st8" d="M24.8,17.21c-4.54,7.26,2.95,12.17,2.95,17.79h0c0,3.7-2.78,6.7-6.2,6.7s-6.2-3-6.2-6.7l0-0.01
								c0-5.69,6.2-16.35,14.6-22.19"/>
						</g>
						<g>
							<path class="st9" d="M31.49,31.43v-0.01c0-5.69,6.2-16.35,14.6-22.19"/>
							<path class="st9" d="M40.94,13.65c-3.21,5.14-0.4,9.1,1.52,12.97"/>
						</g>
						<g>
							<g>
								<path class="st8" d="M51.91,17.18c-4.54,7.26,2.95,12.17,2.95,17.79l0,0c0,3.7-2.78,6.7-6.2,6.7s-6.2-3-6.2-6.7l0-0.01
									c0-5.69,6.2-16.35,14.6-22.19"/>
							</g>
						</g>
					</g>
					<path class="st10" d="M2.26,35c0,18.08,14.66,32.74,32.74,32.74S67.74,53.08,67.74,35l-8.89,0c-0.12,0-0.22,0.1-0.23,0.23
						c-0.11,5.85-4.53,10.55-9.97,10.55s-9.86-4.7-9.97-10.55c0-0.12-0.1-0.23-0.23-0.23h-6.72c-0.12,0-0.22,0.1-0.23,0.23
						c-0.11,5.85-4.53,10.55-9.97,10.55s-9.86-4.7-9.97-10.55c0-0.12-0.1-0.23-0.23-0.23L2.26,35z"/>
				</g>
				<g>
					<g>
						<g>
							<g>
								<path class="st6" d="M7.99,53.43c0.76-0.78,1.82-1.27,2.99-1.27c1.17,0,2.23,0.49,2.99,1.27"/>
								<path class="st6" d="M13.98,53.43"/>
								<path class="st6" d="M7.99,53.43"/>
							</g>
							<g>
								<path class="st6" d="M19.96,53.43c-0.76,0.78-1.82,1.27-2.99,1.27c-1.17,0-2.23-0.49-2.99-1.27"/>
								<path class="st6" d="M13.98,53.43"/>
								<path class="st6" d="M19.96,53.43"/>
							</g>
						</g>
						<g>
							<g>
								<path class="st6" d="M19.96,53.43c0.76-0.78,1.82-1.27,2.99-1.27c1.17,0,2.23,0.49,2.99,1.27"/>
								<path class="st6" d="M25.95,53.43"/>
								<path class="st6" d="M19.96,53.43"/>
							</g>
							<g>
								<path class="st6" d="M31.94,53.43c-0.76,0.78-1.82,1.27-2.99,1.27c-1.17,0-2.23-0.49-2.99-1.27"/>
								<path class="st6" d="M25.95,53.43"/>
								<path class="st6" d="M31.94,53.43"/>
							</g>
						</g>
					</g>
					<g>
						<g>
							<g>
								<path class="st6" d="M31.94,53.43c0.76-0.78,1.82-1.27,2.99-1.27c1.17,0,2.23,0.49,2.99,1.27"/>
								<path class="st6" d="M37.93,53.43"/>
								<path class="st6" d="M31.94,53.43"/>
							</g>
							<g>
								<path class="st6" d="M43.91,53.43c-0.76,0.78-1.82,1.27-2.99,1.27c-1.17,0-2.23-0.49-2.99-1.27"/>
								<path class="st6" d="M37.93,53.43"/>
								<path class="st6" d="M43.91,53.43"/>
							</g>
						</g>
						<g>
							<g>
								<path class="st6" d="M43.91,53.43c0.76-0.78,1.82-1.27,2.99-1.27c1.17,0,2.23,0.49,2.99,1.27"/>
								<path class="st6" d="M49.9,53.43"/>
								<path class="st6" d="M43.91,53.43"/>
							</g>
							<g>
								<path class="st6" d="M55.89,53.43c-0.76,0.78-1.82,1.27-2.99,1.27c-1.17,0-2.23-0.49-2.99-1.27"/>
								<path class="st6" d="M49.9,53.43"/>
								<path class="st6" d="M55.89,53.43"/>
							</g>
						</g>
					</g>
					<g>
						<g>
							<g>
								<path class="st6" d="M55.87,53.43c0.76-0.78,1.82-1.27,2.99-1.27c1.17,0,2.23,0.49,2.99,1.27"/>
								<path class="st6" d="M61.86,53.43"/>
								<path class="st6" d="M55.87,53.43"/>
							</g>
						</g>
					</g>
				</g>
			</g>
		</g>
		<circle class="st2" cx="35" cy="35" r="35"/>
	</g>
</g>
<g id="_x30_4" class="st0">
	<g class="st1">
		<circle class="st2" cx="35" cy="35" r="35"/>
		<g>
			<polyline class="st4" points="16.25,63.29 16.25,49.47 53.52,49.47 53.52,63.29 			"/>
			<g>
				<path class="st3" d="M12.92,34.48c-3.49-0.08-3.89,3.75-2.77,7.56c1.12,3.81,3.75,7.59,6.34,7.4c0.06,0,0.12,0.01,0.17,0.04
					c0.05,0.03,0.09,0.07,0.11,0.13c0.58,1.44,1.24,2.82,1.97,4.11c0.73,1.29,1.54,2.5,2.4,3.61c1.92,2.46,4.03,4.46,6.33,5.84
					c2.31,1.38,4.81,2.14,7.53,2.14h0c2.72,0,5.23-0.76,7.53-2.14c2.31-1.38,4.41-3.37,6.33-5.84c0.87-1.11,1.67-2.32,2.4-3.61
					c0.73-1.29,1.39-2.67,1.97-4.11c0.02-0.06,0.06-0.1,0.11-0.13c0.05-0.03,0.11-0.04,0.17-0.04c2.58,0.19,5.22-3.59,6.34-7.4
					c1.12-3.81,0.72-7.64-2.77-7.56h0c0.97-6.01,1.09-12.69-1.8-19.12C51.7,7.41,43.47,3.45,35,3.45c-8.47,0-16.7,3.96-20.28,11.91
					C11.83,21.79,11.95,28.47,12.92,34.48z"/>
				<path class="st3" d="M20.35,33.5c3.6-0.67,7.1,0.01,9.92,1.67"/>
				<path class="st3" d="M49.65,33.5c-3.6-0.67-7.1,0.01-9.92,1.67"/>
				<path class="st3" d="M19.54,40.35c2.62,2.07,7.22,2.69,10.37-1.2"/>
				<path class="st3" d="M50.46,40.35c-2.62,2.07-7.22,2.69-10.37-1.2"/>
				<path class="st9" d="M31.61,51.01c1.39-0.29,2.27,1.16,3.39,1.16c1.11,0,2-1.45,3.39-1.16"/>
				<g>
					<path class="st9" d="M41.12,54.61c-2.33,0.59-4.07,1.5-6.21,1.5c-2.14,0-3.88-0.91-6.21-1.5"/>
					<path class="st11" d="M28.66,54.91c1.62,2.95,3.93,4.42,6.25,4.42c2.32,0,4.63-1.47,6.25-4.42"/>
				</g>
			</g>
			<path class="st12" d="M12.92,34.48c0.6,4.46,2.86,10.15,2.86,10.15c-0.85-5.23-0.95-11.05,1.57-16.65
				c2.33-5.19,6.93-8.44,12.2-9.73"/>
			<path class="st12" d="M57.09,34.48c-0.6,4.46-2.86,10.15-2.86,10.15c0.85-5.23,0.95-11.05-1.57-16.65
				c-2.91-6.46-9.35-9.9-16.19-10.32"/>
			<g>
				<polyline class="st13" points="29.55,18.26 33.66,15.86 29.53,13.48 33.66,11.1 29.53,8.71 33.66,6.33 29.53,3.95 				"/>
				<polyline class="st13" points="36.4,17.74 40.52,15.36 36.4,12.97 40.52,10.59 36.4,8.21 40.52,5.82 36.4,3.44 				"/>
			</g>
		</g>
	</g>
</g>
<g id="_x30_5" class="st0">
	<g class="st1">
		<circle class="st2" cx="35" cy="35" r="35"/>
		<g>
			<g>
				<path class="st3" d="M43.83,63.1c0.18-8.19,1.82-12.58,4.92-16.79c0.73-0.99,3.61-4.03,5.29-7.12
					c6.14-11.25,3.35-28.26-12.25-33.5C27.44,0.87,9.18,7.31,9.92,22.23c0.15,3.04-0.06,4.62-1.71,6.21L4.91,31.5
					c-1.08,1.07-1.2,2.51,0.15,4.06c1.79,2.06,1.74,3.37,0.91,5.33c-0.37,0.89-0.51,1.56,0.02,2.63c0.48,0.97,0.46,1.44,0.22,2.27
					c-0.6,2.12,1.47,2.7,0.98,5.16c-0.72,3.42,1.97,5,5.12,5c6.5,0,8.93,2.51,9.28,7.15"/>
			</g>
			<path class="st14" d="M48.75,46.31c-4.82-1.38-8.49-3.66-11.55-6.47c-8.49-7.79-12.39-19.73-23.62-28.46"/>
			<path class="st9" d="M48.75,46.31c-17.1-4.48-15.58-26.92-30.86-38.8"/>
			<path class="st9" d="M52.6,41.48c5.39,2.26,9.5,6.95,10.96,12.71"/>
			<path class="st9" d="M48.76,46.3c3,3.33,4.82,7.73,4.82,12.56c0,1.46-0.17,2.89-0.48,4.25"/>
		</g>
	</g>
</g>
<g id="_x30_6" class="st0">
	<g class="st1">
		<circle class="st2" cx="35" cy="35" r="35"/>
		<g>
			<path class="st6" d="M33.44,54.41"/>
			<path class="st4" d="M33.44,54.41l-7.83,7.83c-0.52,0.52-1.37,0.52-1.9,0L2.95,41.49c-0.52-0.52-0.52-1.37,0-1.9L38.78,3.75
				c0.52-0.52,1.37-0.52,1.9,0l20.76,20.76c0.52,0.52,0.52,1.37,0,1.9L54,33.86"/>
			<path class="st6" d="M13.42,51.77l37.54-37.54L13.42,51.77z"/>
			<g>
				<path class="st6" d="M15.38,42.6c-1.13,1.13-2.96,1.13-4.09,0c-1.13-1.13-1.13-2.96,0-4.09c1.13-1.13,2.96-1.13,4.09,0
					C16.51,39.64,16.51,41.47,15.38,42.6z"/>
				<path class="st6" d="M24.15,33.83c-1.13,1.13-2.96,1.13-4.09,0c-1.13-1.13-1.13-2.96,0-4.09c1.13-1.13,2.96-1.13,4.09,0
					C25.28,30.87,25.28,32.7,24.15,33.83z"/>
				<path class="st6" d="M32.92,25.06c-1.13,1.13-2.96,1.13-4.09,0c-1.13-1.13-1.13-2.96,0-4.09c1.13-1.13,2.96-1.13,4.09,0
					C34.05,22.1,34.05,23.93,32.92,25.06z"/>
				<path class="st6" d="M41.69,16.29c-1.13,1.13-2.96,1.13-4.09,0c-1.13-1.13-1.13-2.96,0-4.09c1.13-1.13,2.96-1.13,4.09,0
					C42.82,13.33,42.82,15.16,41.69,16.29z"/>
			</g>
			<g>
				<circle class="st6" cx="24.74" cy="51.76" r="2.89"/>
				<path class="st6" d="M53.11,27.49c-1.13,1.13-2.96,1.13-4.09,0c-1.13-1.13-1.13-2.96,0-4.09c1.13-1.13,2.96-1.13,4.09,0
					C54.24,24.53,54.24,26.36,53.11,27.49z"/>
			</g>
			
				<ellipse transform="matrix(0.2365 -0.9716 0.9716 0.2365 -10.2959 82.3481)" class="st15" cx="47.25" cy="47.73" rx="15.14" ry="15.14"/>
			<line class="st16" x1="32.1" y1="47.72" x2="62.39" y2="47.72"/>
		</g>
	</g>
</g>
<g id="_x30_7" class="st0">
	<g class="st1">
		<circle class="st2" cx="35" cy="35" r="35"/>
		<g>
			<g>
				<g>
					<path class="st3" d="M35.15,20.77l0.8-5.97c0.09-0.54,0.55-0.94,1.1-0.94h8.35c0.55,0,1.01,0.4,1.1,0.94l0.8,5.97"/>
					<g>
						<polyline class="st4" points="38.55,9.11 38.55,13.84 44.08,13.84 44.08,9.11 						"/>
						<path class="st4" d="M29.61,8.77h20.56l0,0c0-2.84-3.51-4.99-7.31-4.47l-13.24,1.7V8.77z"/>
					</g>
					<path class="st3" d="M27.51,59.9V28.21c0-4.19,3.39-7.58,7.58-7.58h6.12h6.12c4.19,0,7.58,3.39,7.58,7.58v31.61
						c0,0.67-0.55,1.22-1.22,1.22H28.66C28.03,61.04,27.51,60.53,27.51,59.9z"/>
					<g>
						<line class="st9" x1="33.73" y1="31.94" x2="48.7" y2="31.94"/>
						<line class="st9" x1="33.73" y1="47.04" x2="48.7" y2="47.04"/>
					</g>
				</g>
			</g>
			<g>
				<g>
					<path class="st17" d="M20.9,32.49c0.19-0.34,0.68-0.34,0.87,0c4.75,8.41,8.82,12.36,9.7,18.22c0.95,6.3-3.06,12.52-10.14,12.52
						c-7.08,0-11.09-6.21-10.14-12.52C12.08,44.85,16.15,40.9,20.9,32.49z"/>
				</g>
				<g>
					<path class="st18" d="M19.13,58.77c-2.83-1.22-4.29-4.34-3.81-7.49c0.22-1.48,0.77-2.78,1.53-4.13"/>
				</g>
			</g>
		</g>
	</g>
</g>
<g id="_x30_8" class="st0">
	<g class="st1">
		<circle class="st2" cx="35" cy="35" r="35"/>
		<g>
			<g>
				<path class="st3" d="M12.92,34.92c-0.97-6.01-1.09-12.69,1.8-19.12C18.3,7.85,26.53,3.89,35,3.89c8.47,0,16.7,3.96,20.28,11.91
					c2.9,6.43,2.77,13.11,1.8,19.12"/>
				<path class="st3" d="M35,65.75c2.72,0,5.23-0.76,7.53-2.14c2.31-1.38,4.41-3.37,6.33-5.84c0.87-1.11,1.67-2.32,2.4-3.61
					c0.73-1.29,1.39-2.67,1.97-4.11c0.02-0.06,0.06-0.1,0.11-0.13c0.05-0.03,0.11-0.04,0.17-0.04c2.58,0.19,5.22-3.59,6.34-7.4
					c1.12-3.81,0.72-7.64-2.77-7.56c-2.1,0.04-3.21-0.79-3.83-2.34c-0.62-1.54-0.75-1.46-0.88-4.28c0-7.37-6.71-7.65-11.89-5.48
					c-1.63,0.68-3.33,1.59-5.48,1.59c-2.15,0-3.85-0.91-5.48-1.59c-5.17-2.17-11.89-1.9-11.89,5.48c-0.13,2.82-0.25,2.74-0.88,4.28
					c-0.62,1.54-1.74,2.37-3.83,2.34c-3.49-0.08-3.89,3.75-2.77,7.56c1.12,3.81,3.75,7.59,6.34,7.4c0.06,0,0.12,0.01,0.17,0.04
					c0.05,0.03,0.09,0.07,0.11,0.13c0.58,1.44,1.24,2.82,1.97,4.11c0.73,1.29,1.54,2.5,2.4,3.61c1.92,2.46,4.03,4.46,6.33,5.84
					C29.77,64.98,32.28,65.75,35,65.75L35,65.75z"/>
				<g>
					<path class="st3" d="M20.35,33.95c3.6-0.67,7.1,0.01,9.92,1.67"/>
					<path class="st3" d="M49.65,33.95c-3.6-0.67-7.1,0.01-9.92,1.67"/>
				</g>
				<g>
					<path class="st3" d="M19.54,40.79c2.62,2.07,7.22,2.69,10.37-1.2"/>
					<path class="st3" d="M50.46,40.79c-2.62,2.07-7.22,2.69-10.37-1.2"/>
				</g>
				<path class="st9" d="M29.4,51.1c2.29-0.48,3.75,1.91,5.59,1.91c1.84,0,3.3-2.4,5.59-1.91"/>
				<g>
					<path class="st9" d="M42.6,54.8c-3.02,1.07-4.88,2.45-7.63,2.45c-2.75,0-4.61-1.37-7.63-2.45"/>
					<path class="st9" d="M32.14,59.16c0.85,0.85,1.84,1.27,2.82,1.27c0.99,0,1.97-0.42,2.82-1.27"/>
				</g>
			</g>
			<polygon class="st19" points="37.48,15.22 38.3,11.9 41.62,11.09 38.3,10.27 37.48,6.95 36.67,10.27 33.35,11.09 36.67,11.9 			
				"/>
			<polygon class="st19" points="44.41,18.44 45,16.06 47.37,15.48 45,14.9 44.41,12.53 43.83,14.9 41.46,15.48 43.83,16.06 			"/>
		</g>
	</g>
</g>
<g id="_x30_9" class="st0">
	<g class="st1">
		<circle class="st2" cx="35" cy="35" r="35"/>
		<g>
			<path class="st3" d="M35.33,66.82c5.44,0,10.02-3.05,13.86-7.98c1.74-2.23,3.22-4.84,4.37-7.72c0.04-0.11,0.16-0.17,0.28-0.17
				c5.16,0.38,10.54-15.12,3.56-14.96c-4.19,0.08-4.46-3.32-4.71-8.96c-0.61-13.71-9.99-14.58-11.99-8.1
				c-0.74,2.4-2.36,4.78-5.38,4.78h0h0c-3.02,0-4.64-2.38-5.38-4.78c-2-6.48-11.38-5.61-11.99,8.1c-0.25,5.64-0.52,9.04-4.71,8.96
				c-6.98-0.16-1.6,15.33,3.56,14.96c0.12-0.01,0.23,0.05,0.28,0.17c1.15,2.89,2.64,5.5,4.37,7.72
				C25.31,63.77,29.89,66.82,35.33,66.82"/>
			<path class="st3" d="M52.97,52.54c0,0,1.56-3.4,2.62-7.73C56.35,41.7,57.41,36,57.41,36c0.97-6.01,1.09-12.69-1.8-19.12
				C52.03,8.93,43.8,4.97,35.33,4.97s-16.7,3.96-20.28,11.91c-2.9,6.43-2.77,13.11-1.8,19.12c0,0,1.06,5.7,1.82,8.81
				c1.06,4.33,2.62,7.73,2.62,7.73"/>
			<path class="st3" d="M17.66,52.39c3.3,3.91,9.97,6.59,17.67,6.59S49.7,56.3,53,52.39"/>
			<ellipse class="st18" cx="35.33" cy="21.99" rx="11.29" ry="7.7"/>
			<g>
				<g>
					<circle class="st20" cx="28.11" cy="22.08" r="1.18"/>
					<circle class="st20" cx="32.93" cy="22.08" r="1.18"/>
					<circle class="st20" cx="37.75" cy="22.08" r="1.18"/>
					<circle class="st20" cx="42.57" cy="22.08" r="1.18"/>
				</g>
				<g>
					<circle class="st20" cx="30.52" cy="18.39" r="1.18"/>
					<circle class="st20" cx="35.34" cy="18.39" r="1.18"/>
					<circle class="st20" cx="40.16" cy="18.39" r="1.18"/>
				</g>
				<g>
					<circle class="st20" cx="30.52" cy="25.76" r="1.18"/>
					<circle class="st20" cx="35.34" cy="25.76" r="1.18"/>
					<circle class="st20" cx="40.16" cy="25.76" r="1.18"/>
				</g>
			</g>
		</g>
	</g>
</g>
<g id="_x31_0" class="st0">
	<g class="st1">
		<circle class="st2" cx="35" cy="35" r="35"/>
		<g>
			<path class="st3" d="M54.28,29.39h5.78c2.54,0,3.95,1.42,3.95,3.95V49.2c0,2.53-1.42,3.95-3.95,3.95h-4.46v5.24l-7.55-5.24H37.48
				c-2.53,0-3.95-1.42-3.95-3.95v-1.62"/>
			<path class="st3" d="M16.44,54.88l-1.15-10.66C9.07,40.8,5.01,35.22,5.01,28.92c0-10.39,11.02-18.82,24.62-18.82
				c13.6,0,24.62,8.43,24.62,18.82c0,10.39-11.02,18.82-24.62,18.82c-1.02,0-2.02-0.05-3.01-0.14L16.44,54.88z"/>
			<g>
				<path class="st19" d="M31.47,27.98c1.1-0.66,1.93-1.72,1.93-3.21c0-1.8-1.4-2.96-3.15-2.94c-1.51-0.01-3.03,0.89-3.18,3.07
					h-2.41c0.13-3.22,2.56-5.09,5.59-5.09c3.33,0,5.49,2.13,5.49,5.06c0,2.08-0.98,3.53-2.62,4.53c-1.66,1.01-2.25,2.03-2.31,4.32
					v0.13h-2.28v-0.13C28.56,30.18,29.64,29.09,31.47,27.98z M29.75,36.01c0.94,0,1.71,0.77,1.7,1.7c0.01,0.94-0.76,1.71-1.7,1.72
					c-0.93-0.01-1.72-0.78-1.7-1.72C28.03,36.78,28.82,36.01,29.75,36.01z"/>
			</g>
		</g>
	</g>
</g>
<g id="_x31_1" class="st0">
	<g class="st1">
		<circle class="st2" cx="35" cy="35" r="35"/>
		<g>
			<g>
				<g>
					<path class="st3" d="M12.92,36c-0.97-6.01-1.09-12.69,1.8-19.12C18.3,8.93,26.53,4.97,35,4.97c8.47,0,16.7,3.96,20.28,11.91
						c2.9,6.43,2.77,13.11,1.8,19.12"/>
					<path class="st3" d="M35,66.82c5.44,0,10.02-3.05,13.86-7.98c1.74-2.23,3.22-4.84,4.37-7.72c0.04-0.11,0.16-0.17,0.28-0.17
						c5.16,0.38,10.54-15.12,3.56-14.96c-4.19,0.08-4.46-3.32-4.71-8.96c-0.61-13.71-9.99-14.58-11.99-8.1
						c-0.74,2.4-2.36,4.78-5.38,4.78h0h0c-3.02,0-4.64-2.38-5.38-4.78c-2-6.48-11.38-5.61-11.99,8.1c-0.25,5.64-0.52,9.04-4.71,8.96
						c-6.98-0.16-1.6,15.33,3.56,14.96c0.12-0.01,0.23,0.05,0.28,0.17c1.15,2.89,2.64,5.5,4.37,7.72
						C24.98,63.77,29.56,66.82,35,66.82"/>
				</g>
			</g>
			<g>
				<path class="st8" d="M9.6,32.1c0-2.26,1.83-4.09,4.09-4.09h23.42c2.64,0,4.09,1.47,4.09,4.09v16.45c0,2.26-1.83,4.09-4.09,4.09
					h-4.63v5.43l-7.83-5.43H13.69c-2.26,0-4.09-1.83-4.09-4.09V32.1z"/>
				<g>
					<polyline class="st6" points="9.6,47.24 15.21,41.63 22.71,49.13 34.35,37.49 41.21,44.35 					"/>
					<circle class="st6" cx="18.86" cy="34.63" r="3.12"/>
				</g>
			</g>
		</g>
	</g>
</g>
<g id="_x31_2" class="st0">
	<g class="st1">
		<circle class="st2" cx="35" cy="35" r="35"/>
		<g>
			<g>
				<g>
					<path class="st3" d="M12.92,36c-0.97-6.01-1.09-12.69,1.8-19.12C18.3,8.93,26.53,4.97,35,4.97c8.47,0,16.7,3.96,20.28,11.91
						c2.9,6.43,2.77,13.11,1.8,19.12"/>
					<path class="st3" d="M35,66.82c5.44,0,10.02-3.05,13.86-7.98c1.74-2.23,3.22-4.84,4.37-7.72c0.04-0.11,0.16-0.17,0.28-0.17
						c5.16,0.38,10.54-15.12,3.56-14.96c-4.19,0.08-4.46-3.32-4.71-8.96c-0.61-13.71-9.99-14.58-11.99-8.1
						c-0.74,2.4-2.36,4.78-5.38,4.78h0h0c-3.02,0-4.64-2.38-5.38-4.78c-2-6.48-11.38-5.61-11.99,8.1c-0.25,5.64-0.52,9.04-4.71,8.96
						c-6.98-0.16-1.6,15.33,3.56,14.96c0.12-0.01,0.23,0.05,0.28,0.17c1.15,2.89,2.64,5.5,4.37,7.72
						C24.98,63.77,29.56,66.82,35,66.82"/>
				</g>
			</g>
			<g>
				<path class="st8" d="M9.6,32.1c0-2.26,1.83-4.09,4.09-4.09h23.42c2.64,0,4.09,1.47,4.09,4.09v16.45c0,2.26-1.83,4.09-4.09,4.09
					h-4.63v5.43l-7.83-5.43H13.69c-2.26,0-4.09-1.83-4.09-4.09V32.1z"/>
				<g>
					<path d="M19.22,33.53l1.17-1.3l-0.83,4.62h-1.45l0.21-4.62h14.18l0.21,4.62h-1.45l-0.83-4.62l1.17,1.3H19.22z M25.66,47.24
						l3.63,0.39v1.04h-7.79v-1.04l3.63-0.39H25.66z M24.23,40.28c0-2.67,0-5.37-0.08-8.05h2.49c-0.08,2.62-0.08,5.32-0.08,8.05v1.3
						c0,2.67,0,4.41,0.08,7.09h-2.49c0.08-2.62,0.08-4.36,0.08-7.09V40.28z"/>
				</g>
			</g>
		</g>
	</g>
</g>
<g id="_x31_3" class="st0">
	<g class="st1">
		<circle class="st2" cx="35" cy="35" r="35"/>
		<g>
			<g>
				<path class="st4" d="M43.52,53.15c9.2,0.68,15.75,2.43,15.75,4.47c0,2.64-10.87,4.78-24.27,4.78c-13.41,0-24.27-2.14-24.27-4.78
					c0-2.04,6.51-3.78,15.68-4.47"/>
				<path class="st4" d="M35,57c-9.42-10.48-16.98-26.32-16.98-35.7S25.62,4.32,35,4.32c9.38,0,16.98,7.6,16.98,16.98
					S44.42,46.53,35,57z"/>
			</g>
			<polygon class="st16" points="27.28,20.59 32.25,20.59 32.25,15.85 37.75,15.85 37.75,20.59 42.72,20.59 42.72,25.92 
				37.75,25.92 37.75,30.66 32.25,30.66 32.25,25.92 27.28,25.92 			"/>
		</g>
	</g>
</g>
<g id="_x31_4" class="st0">
	<g class="st1">
		<circle class="st2" cx="35" cy="35" r="35"/>
		<g>
			<g>
				<path class="st4" d="M60.64,58.18c-2.17-9.07-9.78-16.22-19.5-18.32c-0.45,4.54-11.37,4.54-11.84,0.01
					C19.6,41.97,12,49.12,9.84,58.18"/>
				<path class="st4" d="M41.16,35.75v3.82c0,4.94-11.88,4.94-11.88,0v-3.82"/>
				<path class="st21" d="M28.98,40.08c-1.84,1.65-3.06,4.13-3.06,7.43v5.4"/>
				<path class="st21" d="M44.77,47.51c0-3.3-1.23-5.78-3.06-7.43"/>
				<ellipse transform="matrix(0.925 -0.38 0.38 0.925 -19.1054 14.0002)" class="st21" cx="25.91" cy="55.4" rx="2.78" ry="2.78"/>
				<g>
					<path class="st4" d="M46.16,22.14L45.44,9.12c0-3.47-5.1-7.54-10.21-7.54c-5.1,0-10.21,4.07-10.21,7.54l-0.72,13.01"/>
					<path class="st4" d="M43.12,30.42c3.78-2.36,3.59-7.2,2.82-8.77c0-4.52-5.35-7.86-10.71-7.86c-5.35,0-10.71,3.35-10.71,7.86
						c-0.77,1.57-0.97,6.41,2.82,8.77"/>
					<g>
						<path class="st15" d="M43.12,23.98v4.15v4.51c0,2.68-3.95,5.83-7.89,5.83s-7.89-3.15-7.89-5.83v-4.51v-4.15H43.12z"/>
						<g>
							<line class="st16" x1="24.58" y1="21.67" x2="27.78" y2="24.67"/>
							<line class="st16" x1="42.68" y1="24.67" x2="45.87" y2="21.67"/>
						</g>
					</g>
					<g>
						<line class="st21" x1="32.42" y1="7.74" x2="38.03" y2="7.74"/>
						<line class="st21" x1="35.23" y1="10.55" x2="35.23" y2="4.94"/>
					</g>
				</g>
			</g>
			<path class="st21" d="M39.97,58.18v-5.87c0-2.65,2.15-4.79,4.79-4.79h0c2.65,0,4.79,2.15,4.79,4.79v5.87"/>
			<line class="st16" x1="30.45" y1="28.53" x2="40.03" y2="28.53"/>
			<line class="st16" x1="30.45" y1="32.05" x2="40.03" y2="32.05"/>
		</g>
	</g>
</g>
<g id="_x31_5">
	<g>
		<circle class="st2" cx="35" cy="35" r="35"/>
		<g>
			<g>
				<g>
					<g>
						<path class="st3" d="M12.92,36c-0.97-6.01-1.09-12.69,1.8-19.12C18.3,8.93,26.53,4.97,35,4.97c8.47,0,16.7,3.96,20.28,11.91
							c2.9,6.43,2.77,13.11,1.8,19.12"/>
						<path class="st3" d="M35,66.82c5.44,0,10.02-3.05,13.86-7.98c1.74-2.23,3.22-4.84,4.37-7.72c0.04-0.11,0.16-0.17,0.28-0.17
							c5.16,0.38,10.54-15.12,3.56-14.96c-4.19,0.08-4.46-3.32-4.71-8.96c-0.61-13.71-9.99-14.58-11.99-8.1
							c-0.74,2.4-2.36,4.78-5.38,4.78h0h0c-3.02,0-4.64-2.38-5.38-4.78c-2-6.48-11.38-5.61-11.99,8.1
							c-0.25,5.64-0.52,9.04-4.71,8.96c-6.98-0.16-1.6,15.33,3.56,14.96c0.12-0.01,0.23,0.05,0.28,0.17
							c1.15,2.89,2.64,5.5,4.37,7.72C24.98,63.77,29.56,66.82,35,66.82"/>
					</g>
				</g>
				<g>
					<path class="st9" d="M41.01,47.09c-3.2-0.61-3.29-3.31-6.01-3.31c-2.73,0-2.81,2.7-6.01,3.31"/>
					<g>
						<path class="st9" d="M29.98,57.65c1.61,1.66,3.32,2.24,5.02,2.24c1.7,0,3.41-0.59,5.02-2.24"/>
						<path class="st9" d="M29.98,53.75c1.61,1.3,3.32,1.75,5.02,1.75c1.7,0,3.41-0.46,5.02-1.75"/>
						<path class="st9" d="M42.56,56.13c-3.32-1.98-3.52-4.35-6.12-3.67c-0.68,0.18-1.06,0.27-1.44,0.27
							c-0.38,0-0.76-0.09-1.44-0.27c-2.6-0.69-2.8,1.69-6.12,3.67"/>
					</g>
					<g>
						<line class="st21" x1="27.2" y1="32.37" x2="21.56" y2="38.01"/>
						<line class="st21" x1="27.2" y1="38.01" x2="21.56" y2="32.37"/>
					</g>
					<g>
						<line class="st21" x1="48.44" y1="32.37" x2="42.8" y2="38.01"/>
						<line class="st21" x1="48.44" y1="38.01" x2="42.8" y2="32.37"/>
					</g>
				</g>
			</g>
			<g>
				<circle class="st8" cx="35" cy="19.94" r="11.85"/>
				<g>
					<line class="st21" x1="40.53" y1="14.42" x2="29.47" y2="25.47"/>
					<line class="st21" x1="40.53" y1="25.47" x2="29.47" y2="14.42"/>
				</g>
			</g>
		</g>
	</g>
</g>
<g id="_x31_6" class="st0">
	<g class="st1">
		<circle class="st2" cx="35" cy="35" r="35"/>
		<g>
			<g>
				<g>
					<path class="st3" d="M12.92,34.92c-0.97-6.01-1.09-12.69,1.8-19.12C18.3,7.85,26.53,3.89,35,3.89c8.47,0,16.7,3.96,20.28,11.91
						c2.9,6.43,2.77,13.11,1.8,19.12"/>
					<path class="st3" d="M35,65.75c2.72,0,5.23-0.76,7.53-2.14c2.31-1.38,4.41-3.37,6.33-5.84c0.87-1.11,1.67-2.32,2.4-3.61
						c0.73-1.29,1.39-2.67,1.97-4.11c0.02-0.06,0.06-0.1,0.11-0.13c0.05-0.03,0.11-0.04,0.17-0.04c2.58,0.19,5.22-3.59,6.34-7.4
						c1.12-3.81,0.72-7.64-2.77-7.56c-2.1,0.04-3.21-0.79-3.83-2.34c-0.62-1.54-0.75-1.46-0.88-4.28c0-7.37-6.71-7.65-11.89-5.48
						c-1.63,0.68-3.33,1.59-5.48,1.59c-2.15,0-3.85-0.91-5.48-1.59c-5.17-2.17-11.89-1.9-11.89,5.48c-0.13,2.82-0.25,2.74-0.88,4.28
						c-0.62,1.54-1.74,2.37-3.83,2.34c-3.49-0.08-3.89,3.75-2.77,7.56c1.12,3.81,3.75,7.59,6.34,7.4c0.06,0,0.12,0.01,0.17,0.04
						c0.05,0.03,0.09,0.07,0.11,0.13c0.58,1.44,1.24,2.82,1.97,4.11c0.73,1.29,1.54,2.5,2.4,3.61c1.92,2.46,4.03,4.46,6.33,5.84
						C29.77,64.98,32.28,65.75,35,65.75L35,65.75z"/>
					<g>
						<path class="st3" d="M20.35,33.95c3.6-0.67,7.1,0.01,9.92,1.67"/>
						<path class="st3" d="M49.65,33.95c-3.6-0.67-7.1,0.01-9.92,1.67"/>
					</g>
					<g>
						<path class="st3" d="M19.54,40.79c2.62,2.07,7.22,2.69,10.37-1.2"/>
						<path class="st3" d="M50.46,40.79c-2.62,2.07-7.22,2.69-10.37-1.2"/>
					</g>
					<path class="st9" d="M29.4,51.1c2.29-0.48,3.75,1.91,5.59,1.91c1.84,0,3.3-2.4,5.59-1.91"/>
					<g>
						<path class="st9" d="M42.6,54.8c-3.02,1.07-4.88,2.45-7.63,2.45c-2.75,0-4.61-1.37-7.63-2.45"/>
						<path class="st9" d="M32.14,59.16c0.85,0.85,1.84,1.27,2.82,1.27c0.99,0,1.97-0.42,2.82-1.27"/>
					</g>
				</g>
			</g>
			<g>
				<g>
					<circle class="st8" cx="35" cy="19.94" r="11.85"/>
				</g>
				<g>
					<path class="st22" d="M35.2,27.46c-2.07,0-2.74-0.43-3.4-0.98c-0.44-0.37-0.89-0.75-3.17-0.76l-0.67,0l-0.81-7.52h0.84
						c2.74,0,5.33,0,6.63-4.97c0.11-0.41,0.36-1.37,1.21-1.55c0.11-0.02,0.22-0.03,0.33-0.03c0.44,0,0.84,0.2,1.13,0.56
						c0.61,0.77,0.68,2.31,0.19,4.71c0.58,0.04,1.47,0.1,2.77,0.19c1.38,0.09,2.02,0.98,2.04,1.82c0.01,0.49-0.2,1.01-0.62,1.4
						c0.13,0.24,0.2,0.53,0.2,0.84c0,0.56-0.24,1.14-0.66,1.56c0.11,0.22,0.17,0.48,0.17,0.76c0,0.59-0.27,1.2-0.75,1.63
						c0.07,0.17,0.1,0.35,0.1,0.54c0,0.5-0.25,0.97-0.69,1.29c-0.43,0.31-1,0.47-1.7,0.47c-0.77,0-1.28,0.02-1.76,0.04
						c-0.42,0.02-0.82,0.03-1.34,0.03H35.2z"/>
					<path d="M36.15,12.38c0.77,0,1.35,1.17,0.41,5.2c0,0,0.97,0.08,3.63,0.26c1.86,0.12,1.75,2.15-0.07,2.36
						c1.57,0,1.16,2.36-0.41,2.36c1.44,0,1.09,2.36-0.61,2.36c0.02,0,0.04,0,0.06,0c1.14,0,1.27,1.73-0.83,1.73
						c-1.45,0-1.99,0.07-3.1,0.07c-0.01,0-0.02,0-0.04,0c-4.1,0-1.67-1.72-6.57-1.75l-0.65-6.03c2.82,0,5.93-0.06,7.36-5.53
						c0.11-0.43,0.28-0.93,0.63-1.01C36.03,12.38,36.09,12.38,36.15,12.38 M36.15,10.88c-0.16,0-0.32,0.02-0.48,0.05
						c-1.3,0.27-1.66,1.64-1.78,2.1c-1.15,4.41-3.25,4.41-5.9,4.41h-1.67l0.18,1.66l0.65,6.03l0.14,1.33l1.34,0.01
						c2.01,0.01,2.34,0.29,2.69,0.58c0.75,0.64,1.56,1.16,3.88,1.16c0.57,0,0.98-0.02,1.41-0.03c0.48-0.02,0.97-0.04,1.73-0.04
						c0.86,0,1.58-0.21,2.14-0.61c0.64-0.46,1-1.15,1-1.89c0-0.11-0.01-0.22-0.02-0.33c0.43-0.53,0.67-1.2,0.67-1.84
						c0-0.21-0.02-0.41-0.07-0.6c0.37-0.51,0.57-1.12,0.57-1.72c0-0.24-0.03-0.47-0.09-0.68c0.35-0.48,0.52-1.04,0.51-1.57
						c-0.03-1.14-0.89-2.43-2.74-2.55c-0.78-0.05-1.42-0.1-1.93-0.13c0.36-2.2,0.19-3.61-0.5-4.48
						C37.43,11.17,36.82,10.88,36.15,10.88L36.15,10.88z"/>
				</g>
			</g>
		</g>
	</g>
</g>
<g id="_x31_7" class="st0">
	<g class="st1">
		<circle class="st2" cx="35" cy="35" r="35"/>
		<g>
			<g>
				<circle class="st4" cx="38.92" cy="27.48" r="21.9"/>
				<g>
					<polygon class="st16" points="29.26,24.14 35.47,24.14 35.47,18.21 42.37,18.21 42.37,24.14 48.58,24.14 48.58,30.81 
						42.37,30.81 42.37,36.75 35.47,36.75 35.47,30.81 29.26,30.81 					"/>
				</g>
			</g>
			<g>
				<g>
					<path class="st4" d="M48.72,45.45l14.67-4.72c1.49-0.47,3.09,0.21,3.79,1.6l0,0c0.78,1.55,0.16,3.43-1.37,4.23L44.97,57.38
						l-2.86,1.48c-1.43,0.74-3.12,0.82-4.62,0.22l-5.3-2.14l-17.46-7.05V38.18"/>
					<path class="st4" d="M30.47,49.22H45.7c4.06,0,4.06-6.66,0-6.66h-5.14c-3.48,0-6.81-1.16-9.76-3.02
						c-3.08-1.94-6.13-2.65-9.1-2.03c-1.69,0.35-3.39,0.66-5.11,0.66h-1.85"/>
					<path class="st4" d="M13.89,53.31H7.51c-0.55,0-1-0.45-1-1V36.27c0-0.55,0.45-1,1-1h6.37c0.55,0,1,0.45,1,1v16.03
						C14.89,52.86,14.44,53.31,13.89,53.31z"/>
				</g>
			</g>
		</g>
	</g>
</g>
<g id="_x31_8" class="st0">
	<g class="st1">
		<circle class="st2" cx="35" cy="35" r="35"/>
		<circle class="st4" cx="35" cy="35" r="32"/>
		<g>
			<g>
				<polygon class="st23" points="55.54,35 21.77,15.5 21.77,29.64 43.3,42.07 				"/>
				<g>
					<rect x="49.42" y="31.47" class="st23" width="0" height="14.14"/>
					<polygon class="st23" points="21.77,40.36 21.77,54.5 43.3,42.07 31.06,35 					"/>
					<rect x="49.42" y="24.4" transform="matrix(0.5 -0.866 0.866 0.5 -2.54 58.5325)" class="st23" width="0" height="14.14"/>
					<polygon class="st23" points="43.3,27.93 31.06,35 43.3,42.07 55.54,35 					"/>
				</g>
			</g>
		</g>
	</g>
</g>
<g id="_x31_9" class="st0">
	<g class="st1">
		<circle class="st2" cx="35" cy="35" r="35"/>
		<g>
			<g>
				<path class="st4" d="M22.34,30.78c-0.43-0.4-0.71-0.99-0.89-1.72c-0.69-2.65-2.62-4.61-2.28-7.43c0.19-1.56,1.43-2.89,3.7-2.53
					c-0.89-5.02-1.19-9.15,1.72-11.25c-0.17-4.87,6.86-6.17,10.54-6.17c6.71,0,12.28,2.97,12.84,10.28c0.15,2-0.12,4.65-0.58,7.14
					c2.27-0.35,3.51,0.97,3.7,2.53c0.34,2.82-1.59,4.78-2.28,7.43c-0.18,0.73-0.46,1.32-0.89,1.72"/>
				<path class="st9" d="M33.36,11.54h5.66c2.66-0.03,4.18,1.51,4.18,3.92v2.6"/>
				<path class="st24" d="M33.36,18.07v2.81c0.03,2.25-1.15,3.7-3.65,3.69h-3.1c-1.21,0-2.26-0.82-2.56-1.99l-1.16-4.51h12.24h12.24
					l-1.16,4.51c-0.3,1.17-1.36,1.99-2.56,1.99h-3.1c-2.49,0.01-3.67-1.44-3.65-3.69v-2.81"/>
			</g>
			<path class="st4" d="M11.67,58.3l-1.19-26.9c-0.03-0.65,0.49-1.2,1.15-1.2h46.99c0.65,0,1.18,0.55,1.15,1.2l-1.19,26.9
				c-0.03,0.61-0.53,1.1-1.15,1.1H12.82C12.21,59.4,11.7,58.91,11.67,58.3z"/>
			<path class="st9" d="M35.13,39.63c2.85,0,5.17,2.31,5.17,5.17c0,2.85-2.31,5.17-5.17,5.17s-5.17-2.31-5.17-5.17
				C29.96,41.94,32.27,39.63,35.13,39.63z"/>
		</g>
	</g>
</g>
<g id="_x32_0" class="st0">
	<g class="st1">
		<circle class="st2" cx="35" cy="35" r="35"/>
		<g>
			<path class="st4" d="M58.31,13.46H11.59c-0.63,0-1.14,0.51-1.14,1.14v36.99c0,0.63,0.51,1.14,1.14,1.14h7.89v9.73l10.71-9.73
				h28.12c0.63,0,1.14-0.51,1.14-1.14V14.6C59.45,13.97,58.94,13.46,58.31,13.46z"/>
			<g>
				<g>
					<line class="st6" x1="33.44" y1="30.02" x2="16.44" y2="30.02"/>
					<line class="st6" x1="33.44" y1="24.74" x2="16.44" y2="24.74"/>
					<line class="st6" x1="33.44" y1="35.31" x2="16.44" y2="35.31"/>
					<line class="st6" x1="33.44" y1="40.6" x2="16.44" y2="40.6"/>
				</g>
				<polygon class="st25" points="54,29.85 48.75,29.85 48.75,24.83 42.92,24.83 42.92,29.85 37.67,29.85 37.67,35.49 42.92,35.49 
					42.92,40.5 48.75,40.5 48.75,35.49 54,35.49 				"/>
			</g>
		</g>
	</g>
</g>
<g id="_x32_1" class="st0">
	<g class="st1">
		<circle class="st2" cx="35" cy="35" r="35"/>
		<g>
			<path class="st3" d="M54.17,29.42h5.75c2.53,0,3.93,1.41,3.93,3.93v15.77c0,2.52-1.41,3.93-3.93,3.93h-4.43v5.21l-7.51-5.21
				H37.46c-2.52,0-3.93-1.41-3.93-3.93V47.5"/>
			<path class="st3" d="M16.54,54.76l-1.14-10.6c-6.19-3.4-10.22-8.94-10.22-15.21c0-10.33,10.96-18.71,24.48-18.71
				c13.52,0,24.48,8.38,24.48,18.71c0,10.33-10.96,18.71-24.48,18.71c-1.01,0-2.01-0.05-2.99-0.14L16.54,54.76z"/>
			<g>
				<path class="st19" d="M29.3,19.8c4.46,0,7.71,3.44,7.7,8.95c0.01,3.26-1.12,5.79-2.97,7.31l2.27,3.03h-2.36l-1.52-2.03
					c-0.94,0.42-2,0.64-3.13,0.64c-4.48,0-7.71-3.44-7.7-8.95C21.59,23.24,24.83,19.8,29.3,19.8z M30.94,32l1.84,2.41
					c1.3-1.14,2.12-3.06,2.13-5.65c-0.01-4.5-2.45-6.93-5.61-6.93s-5.59,2.43-5.61,6.93c0.01,4.49,2.45,6.92,5.61,6.93
					c0.65,0,1.28-0.11,1.85-0.31L28.58,32H30.94z"/>
			</g>
		</g>
	</g>
</g>
</svg>
