<svg id="Isolation_Mode" data-name="Isolation Mode" xmlns="http://www.w3.org/2000/svg" viewBox="0 0 96.89 123.95"><path d="M940.05,292.48a2.24,2.24,0,0,0,.8-.32,5.25,5.25,0,0,0,.76-.8,1.43,1.43,0,0,1,1.46-.42,9.29,9.29,0,0,1,1.63.41,4.69,4.69,0,0,0-1.23-1.24,7.27,7.27,0,0,0-1.33-.56,1.61,1.61,0,0,0-.49-.07h-2.73a1.41,1.41,0,0,0-1.29.82l-.22.46-4.85,4.95,2.72-1.33a18.25,18.25,0,0,1,4.3-1.81Z" transform="translate(-919.32 -258.34)"/><path d="M1015.65,313.45c-1.87-9.94-10.34-16.76-10.34-16.76a18.69,18.69,0,0,1,5,.62,23.25,23.25,0,0,1,4.14,1.3,6,6,0,0,1-.21-1.26,16.14,16.14,0,0,0-1.09-3.18,17.62,17.62,0,0,0-5.62-6.73,16.85,16.85,0,0,0-7.57-3.37,8.92,8.92,0,0,1,5.31-.84,31.72,31.72,0,0,1,5.45.94c-.15-.05-.43-.55-.53-.67a22.22,22.22,0,0,0-1.61-1.76,32.85,32.85,0,0,0-6.38-4.85c-5.14-3.09-11.36-4.3-17.28-4.74-.84-.06-1.68-.1-2.52-.1-.11,0-.8-.09-.88,0s1.17-1.38,5.91-2.29a45,45,0,0,1,7.37-.89,26,26,0,0,0-13.16-4.07,29,29,0,0,0-13.11,2.57c.27-.13.51-1,.63-1.31a18.62,18.62,0,0,0,.93-2.38c.52-1.78.46-4.07-1.11-5.35a7,7,0,0,1-.87,1.45,12,12,0,0,1-1.89,1.94,31.61,31.61,0,0,1-6.61,4.11c-2.91,1.35-5.95,2.43-8.94,3.68a41.18,41.18,0,0,0-8,3.8,5.8,5.8,0,0,0-2.4,3c-.47,1.62.12,3.34.71,4.92l-8.82,5.25v3.2l-12,7.78c-1.26.82-1,2.45-.48,3.63a8.15,8.15,0,0,1,.75,3.36,7.1,7.1,0,0,0,.74,3.6,7.53,7.53,0,0,0,4.52,3.63,8.67,8.67,0,0,0-.25,1.92,7.12,7.12,0,0,0,.8,3.17,9.35,9.35,0,0,0,7.32,5,23.06,23.06,0,0,0,2.17-1.9l1.29-1.57a1,1,0,0,1,.2-.21,1.22,1.22,0,0,1,.37-.16l2.35-.71c.32,1.17-1,2.3-1.66,3.13a18.9,18.9,0,0,0-3.87,7.24,17.43,17.43,0,0,0,1.73,11.86s.62-4.6,2.55-6c2.32-1.64,4-1.1,4-1.1-.29-.09-1.37,3.66-1.42,3.87a32.7,32.7,0,0,0-.77,9.71A40.77,40.77,0,0,0,943,358.21c-.07-.19.13-.71.16-.89.16-.79.33-1.56.52-2.34a29,29,0,0,1,1.82-5.44,15,15,0,0,1,7.94-7.34c-.31.12-.68,1.85-.79,2.18-.25.77-.47,1.55-.66,2.33a35.31,35.31,0,0,0-.85,4.77,34.58,34.58,0,0,0,.29,9.53,38.4,38.4,0,0,0,1.29,5.15,31.56,31.56,0,0,0,4,8.33,6.26,6.26,0,0,0,1,1.1,18.63,18.63,0,0,0,.14-2.6c.07-.92.16-1.85.32-2.76a14.16,14.16,0,0,1,4.08-8s.24,6.71,2.33,11.12a18,18,0,0,0,9.93,8.91c-.24-.08.11-3.22.15-3.55a25.72,25.72,0,0,1,.74-4,26.91,26.91,0,0,1,4.5-9.08c3.87-5.24,8.39-9.89,11.34-15.78.16-.32.32-.64.47-1a28.68,28.68,0,0,0,1.08-2.88,10.88,10.88,0,0,1-.31,2.92l-.36,3a38.47,38.47,0,0,0-.65,6.3c.08,1.34.14,2.67.35,4,0,0,1.93-3.71,3.46-6.2s4.26-6.49,5.55-10.29a52.24,52.24,0,0,0,2.11-13.74,4.82,4.82,0,0,0,.39,1c.17.51.31,1,.43,1.57a22,22,0,0,1,.47,3.14,66.65,66.65,0,0,1,.07,7.87s5.19-5.85,6-13.19c.8-6.74-1-14.46-1-14.46a15.76,15.76,0,0,1,4.11,4.82,26.39,26.39,0,0,1,1.84,5.91A38.26,38.26,0,0,0,1015.65,313.45Zm-43.82-45.18c7.07-1.92,11-.56,11-.56a54.13,54.13,0,0,0-6.2,2.47,17.89,17.89,0,0,0-5.12,3.68s1.92-.79,13,.48,17.73,5.42,17.73,5.42a7.61,7.61,0,0,0-1.66-.58c-1.57-.51-3.16-.95-4.76-1.34A86.26,86.26,0,0,0,979,275.6a61.62,61.62,0,0,0-10.25.43,25.15,25.15,0,0,0-6.47,1.49l-.05,0a12.76,12.76,0,0,1,2.19-2.77,21.88,21.88,0,0,1,4.58-3.24l-4.58,1a46.73,46.73,0,0,0-7.61,2.67C961.11,271.66,966.55,269.69,971.83,268.27ZM985,292c6.83,2.81,8.88,6.79,8.88,6.79a30.86,30.86,0,0,0-7.55-4.34,44.59,44.59,0,0,0-11.27-2.24,53.21,53.21,0,0,0-7.47.06l3.94-1.61-4.21-.51,4.62-1.54-4.82-.44a.68.68,0,0,1-.42-.13c-.16-.12-.11-1.48-.14-1.48a107.58,107.58,0,0,1,15.65-.25,44.35,44.35,0,0,0-8.56,3.28C977.54,289.31,981.48,290.52,985,292Zm-23-9.41-1.48,3.79L960,286a1.86,1.86,0,0,1-.37-.95,9,9,0,0,1,.64-2,14.83,14.83,0,0,0-1.32,1.46,1.6,1.6,0,0,0-.16,1.46,16.08,16.08,0,0,0,1.63,1.82s.11,1.9-.12,1.92-.22-.29-.42-.62a12.52,12.52,0,0,0-2.06-2.35c-.95-.82-1.69-1-1.95-1.47a1.84,1.84,0,0,1-.12-1.4c.12-.35.41-.79,1.84-2.34a5.22,5.22,0,0,1,4.45-1.83,3.65,3.65,0,0,1,2.32,2.9c.39,1.69,1.23,6.76.76,9.36s-3.29,4.31-3.29,4.31-.81-4-.53-5.26A46.22,46.22,0,0,0,962,282.57Zm-17.15-8.72c2.53-1.57,4.83-2.65,10.62-4.68a32.38,32.38,0,0,0,9.45-5.15,12,12,0,0,1-4,4.53,37.12,37.12,0,0,1-6.44,3.5c-2.26,1-5,1.8-6.91,3.43a3,3,0,0,0-.89,2.33l-1.81,1a8.59,8.59,0,0,1,0-1.32,7.79,7.79,0,0,1,1-2.61c-.37.6-1,1-1.4,1.62A4.72,4.72,0,0,0,944,278c-.06.42.1,1.09-.14,1.38a6.36,6.36,0,0,1-1.47.83S940,276.86,944.87,273.85ZM922,297.74l12.31-7.67V287l15.74-9.5,2.1.82-4.25,3.82,4-.92-3.26,5.69a14.27,14.27,0,0,1,3.39,2.69,12.47,12.47,0,0,1,3.09,4.55l2.41.24-2.14.84a12.71,12.71,0,0,1,0,2.65,5.12,5.12,0,0,1-1.13,2.79s-1.82-1.16-6.28-1.93a21.4,21.4,0,0,0-9.18.27s2.12-.11,6.11,1.76c1.78.83,3.41,2.24,3.54,4.34,0-.35-1.87-1.16-2.18-1.32a17.71,17.71,0,0,0-2.42-1,13.72,13.72,0,0,0-5.1-.9,14.74,14.74,0,0,1,2.86,2c.92.88,1,1.35.89,2.21s-.83,1.39-3.27,3.15c-2.71,2-5.4,2-8.48,1.46s-4.49-1.93-5.15-3.52-.3-4.67-.3-4.67h1.6s.28.17,1.27-.24a1.86,1.86,0,0,0,1.26-1.37l-.65.51a2.33,2.33,0,0,1-2.5,0l-.55-.33a.77.77,0,0,0-.88.07l-.6.58a.72.72,0,0,1-1.1-.13,10.61,10.61,0,0,1-1.1-2.05A2.49,2.49,0,0,1,922,297.74Zm1.3,11a5.54,5.54,0,0,1-1.65-4c-.06-1.54.35-1.86.61-1.91s.42.27.61.3a8.54,8.54,0,0,0,1.26-.15,12,12,0,0,0,.44,3.72,11.85,11.85,0,0,0,2.14,3.52A5.23,5.23,0,0,1,923.25,308.76Zm16.11,7.34c-2.06.83-2.71.67-2.71.67s-.93,1.17-1.5,1.78c-.26.28-.68.65-1,1a3.44,3.44,0,0,1-.11-.81c0-.65,0-1.69,0-1.69a7.18,7.18,0,0,0-.7,1.87,4.47,4.47,0,0,0,0,1.28h0a2.76,2.76,0,0,1-.54,0,5.11,5.11,0,0,1-.92-1,5.52,5.52,0,0,1-.76-1.62,7.6,7.6,0,0,0-.16,1.22,4.57,4.57,0,0,0,.09.82,8.55,8.55,0,0,1-2.74-2.24c-2.56-3.07-1.39-5.1-1.18-5.44s2-.86,2-.86,1,1.75,4.56,2.53a16.07,16.07,0,0,0,8.39-.12A4.78,4.78,0,0,1,939.36,316.1Zm-.87,13.78a13.64,13.64,0,0,0-2.64,5.9,6.12,6.12,0,0,0-.24-1.32,13.61,13.61,0,0,1-.06-3.19,13.91,13.91,0,0,1,2.26-6.62c2-3.06,4.92-5.26,7.29-8a12.85,12.85,0,0,0,3.16-6.06,6.05,6.05,0,0,1-.19,2.77c-.25.89-.82,1.74-1,2.62a8.78,8.78,0,0,0,1.67-1.44,33,33,0,0,0,2.81-3,22,22,0,0,0,3.25-5.2s1.08,7.13-6.42,14.38C942.14,326.74,941.26,326.39,938.49,329.88Zm11.85,7.19a33.32,33.32,0,0,0-6.77,11.32,21.48,21.48,0,0,0-.91,3.37,33.14,33.14,0,0,1,7.27-24.18c8.2-10,8.62-15.94,8.62-15.94a28.79,28.79,0,0,1-1.31,8.28c-1.73,5.37-6.63,11.8-6.63,11.8s9.68-7.48,11.33-17.08c1.22-7.11-3.72-14.88-3.72-14.88a9.23,9.23,0,0,0,1.47,1.31,27.74,27.74,0,0,1,2.54,2.66c3.63,4.48,3.64,11.07,2,16.35-.18.59-.39,1.17-.61,1.75-2.16,5.49-7,9-11.13,13C951.75,335.53,951,336.29,950.34,337.07Zm10.81,18.63a30.66,30.66,0,0,0-4.56,11.82,15.63,15.63,0,0,0-.15,4,34.46,34.46,0,0,1-3-17.08,43.3,43.3,0,0,1,1.34-8,30.74,30.74,0,0,1,3.76-7.65c3-4.65,6.5-8.83,8.66-13.95,0-.09.07-.17.1-.26a37.73,37.73,0,0,0,2.45-10.4,5.91,5.91,0,0,0,.19,1,20.94,20.94,0,0,1,.24,2.85,27.91,27.91,0,0,1-1.29,8.89,61.06,61.06,0,0,1-5.38,12.62,27,27,0,0,0,8.4-8.3c3-5,3.55-7.9,3.55-7.9a30.71,30.71,0,0,1-4.31,17.71c-2.11,3.49-4.41,6.8-6.83,10.07C963.18,352.61,962.12,354.13,961.15,355.7Zm21.2,1.14a3.11,3.11,0,0,0,.32-.93c1.11-5,2-10.11,1.68-15.2a27.32,27.32,0,0,0-.51-3.83s-.16,4.19-6.46,14.38c-2.33,3.77-4.85,7.74-6.22,12a21.49,21.49,0,0,0,.45,15.27c-2.9-2.86-4.25-7-4.44-11.08-.33-6.78,1.91-13.38,4.25-19.64.58-1.55,1.17-3.1,1.72-4.67,4.39-12.48,3.76-17.16,3.47-20.08a26.48,26.48,0,0,0-2.24-6.93,19.65,19.65,0,0,1,4.94,5.11,23,23,0,0,1,3,7.06c-.13-.62-.11-1.32-.19-2a34.09,34.09,0,0,0-.86-4.37c-1.42-5.3-4.32-10.22-7.51-14.65l-.19-.25a11,11,0,0,0,1.78,1.38A44.34,44.34,0,0,1,986,320.5a30.91,30.91,0,0,1,3.78,15,32.9,32.9,0,0,1-4.5,17.86A14.6,14.6,0,0,1,982.35,356.84Zm24.18-19.29s.86-6.12-3.26-14.18-8.17-11.63-8.17-11.63c.35.31.53,1.46.68,1.88.5,1.43,1,2.87,1.41,4.31a49.44,49.44,0,0,1,2,9.78,52.28,52.28,0,0,1-1.12,16.68c-.16.72-.33,1.44-.5,2.16-.89,3.66-2.86,7-4.55,10.32a11.27,11.27,0,0,0,.58-2.39c.19-.83.36-1.67.52-2.5.32-1.68.58-3.37.79-5.06a57.25,57.25,0,0,0,.44-10.05,38.18,38.18,0,0,0-5-16.52c-.57-1-1.18-2-1.81-3-2.77-4.34-8.15-8.67-12.3-11.6s-14.62-7-14.62-7a54.11,54.11,0,0,1,16.57,4A40.19,40.19,0,0,1,991,311.14a22,22,0,0,0-6.37-8.53c-4.92-4.24-6.54-4.95-6.54-4.95s8.14,2,13.84,6.17a37,37,0,0,1,10.93,12.52,51.94,51.94,0,0,0-1-7.76c0,.25.45.62.6.83s.45.67.66,1c.41.65.8,1.33,1.15,2a30.77,30.77,0,0,1,1.78,4.23,39,39,0,0,1,1.92,9.69,24.66,24.66,0,0,1-1.27,10.85A1.92,1.92,0,0,0,1006.53,337.55ZM1002,298.64a58.51,58.51,0,0,0-11.72-9.3c-.44-.26-.88-.52-1.33-.75a36.44,36.44,0,0,1,4.47-.13,39.87,39.87,0,0,1,4.34.37s-3.28-3.17-11.71-5.3a115.78,115.78,0,0,0-13.24-2.68,54.38,54.38,0,0,1,21.13,2.73c15.33,5.15,17.46,11.73,17.46,11.73a30.27,30.27,0,0,0-6.12-1.46,26.48,26.48,0,0,0-5.79-.17,43.68,43.68,0,0,1,7.8,8.05,40.37,40.37,0,0,1,6.1,12.61,10,10,0,0,0-1.05-1.92c-.37-.66-.75-1.31-1.15-2-.79-1.3-1.62-2.56-2.5-3.8a66.07,66.07,0,0,0-5.76-7.05C1002.6,299.28,1002.29,299,1002,298.64Z" transform="translate(-919.32 -258.34)"/></svg>