<?xml version="1.0" encoding="UTF-8"?>
<svg id="Layer_1" data-name="Layer 1" xmlns="http://www.w3.org/2000/svg" viewBox="0 0 141.23 141.23">
  <defs>
    <style>
      .cls-1 {
        fill: #fff;
      }
    </style>
  </defs>
  <path class="cls-1" d="M100.46,0H40.76C18.25,0,0,18.25,0,40.76v59.7c0,22.51,18.25,40.76,40.76,40.76h59.7c22.51,0,40.76-18.25,40.76-40.76V40.76C141.23,18.25,122.98,0,100.46,0Zm27.76,101.51c0,14.94-12.11,27.06-27.06,27.06H40.06c-14.94,0-27.06-12.11-27.06-27.06V40.42c0-14.94,12.11-27.06,27.06-27.06h61.1c14.94,0,27.06,12.11,27.06,27.06v61.1Z"/>
  <path class="cls-1" d="M70.61,34.32c-20.24,0-36.64,16.41-36.64,36.64s16.41,36.64,36.64,36.64,36.64-16.41,36.64-36.64-16.41-36.64-36.64-36.64Zm0,60.4c-13.12,0-23.75-10.64-23.75-23.75s10.64-23.75,23.75-23.75,23.75,10.64,23.75,23.75-10.64,23.75-23.75,23.75Z"/>
  <circle class="cls-1" cx="108.48" cy="32.93" r="8.54"/>
</svg>