<?xml version="1.0" encoding="UTF-8"?>
<svg id="Layer_1" data-name="Layer 1" xmlns="http://www.w3.org/2000/svg" xmlns:xlink="http://www.w3.org/1999/xlink" viewBox="0 0 19 21.08">
  <defs>
    <style>
      .cls-1 {
        fill: url(#linear-gradient);
      }
    </style>
    <linearGradient id="linear-gradient" x1="3.46" y1="5.62" x2="15.87" y2="18.02" gradientUnits="userSpaceOnUse">
      <stop offset="0" stop-color="#35f4ec"/>
      <stop offset="1" stop-color="#6438eb"/>
    </linearGradient>
  </defs>
  <path class="cls-1" d="M9.01,5.82l-.59-1.66c-.1-.29-.32-.52-.6-.64l-1.02-.44c-.11-.05-.11-.2,0-.24l1.02-.44c.28-.12,.5-.35,.6-.64L9.01,.09c.04-.12,.21-.12,.25,0l.59,1.66c.1,.29,.32,.52,.6,.64l1.02,.44c.11,.05,.11,.2,0,.24l-1.02,.44c-.28,.12-.5,.35-.6,.64l-.59,1.66c-.04,.12-.21,.12-.25,0Zm3.98,15.03l1.55-4.37c.27-.76,.84-1.37,1.57-1.69l2.67-1.16c.28-.12,.28-.52,0-.64l-2.67-1.16c-.74-.32-1.31-.93-1.57-1.69l-1.55-4.37c-.11-.31-.55-.31-.66,0l-1.55,4.37c-.27,.76-.84,1.37-1.57,1.69l-2.67,1.16c-.28,.12-.28,.52,0,.64l2.67,1.16c.74,.32,1.31,.93,1.57,1.69l1.55,4.37c.11,.31,.55,.31,.66,0Zm-6.97-6.05c-.59-.26-.97-.84-.97-1.49s.38-1.23,.97-1.49l2.02-.88c-.44-.28-.78-.7-.96-1.18l-1.34-3.62c-.1-.26-.47-.26-.57,0l-1.34,3.62c-.23,.63-.72,1.13-1.36,1.4L.18,12.12c-.24,.1-.24,.43,0,.53l2.3,.96c.63,.26,1.12,.77,1.36,1.4l1.34,3.62c.1,.26,.47,.26,.57,0l1.26-3.41-.98-.42Z"/>
</svg>