<?xml version="1.0" encoding="UTF-8"?>
<svg id="Layer_1" data-name="Layer 1" xmlns="http://www.w3.org/2000/svg" xmlns:xlink="http://www.w3.org/1999/xlink" viewBox="0 0 32 19.02">
  <defs>
    <style>
      .cls-1 {
        fill: url(#linear-gradient);
      }
    </style>
    <linearGradient id="linear-gradient" x1="0" y1="9.51" x2="32" y2="9.51" gradientUnits="userSpaceOnUse">
      <stop offset="0" stop-color="#35f4ec"/>
      <stop offset="1" stop-color="#6438eb"/>
    </linearGradient>
  </defs>
  <path class="cls-1" d="M3.66,12.36h1.69v6.58h-1.69v-2.69h-1.46v2.69H.51v-5.56l-.51-1.03h2.19v2.48h1.46v-2.48ZM8.58,13.96c.94,0,1.62.41,1.62,1.2v3.79h-1.46v-.31h-.02c-.56.18-1.1.38-1.56.38-.8,0-1.21-.35-1.21-1.33v-.84c0-.77.41-1.16,1.21-1.16h1.58v-.08c0-.27-.09-.4-.4-.4h-1.95l-.23-1.27h2.41ZM8.75,16.93h-1.11c-.13,0-.22.05-.22.18v.22c0,.15.09.2.26.18.35-.03.68-.09,1.07-.17v-.42ZM12.6,12.16v1.29l-1.46.15v-1.29l1.46-.15ZM12.6,13.92v5.03h-1.46v-4.88l1.46-.15ZM13.46,18.95v-3.13c0-1.21.61-1.86,1.91-1.86h1.07l.23,1.34h-.86c-.61,0-.89.21-.89.87v2.78h-1.46ZM22.11,15.28v2.34c0,.91-.44,1.4-1.21,1.4-.54,0-.87-.13-1.51-.34v.27h-1.46v-5.71l-.51-1.03h1.96v1.86c.64-.12.97-.19,1.51-.19.77,0,1.21.49,1.21,1.4ZM20.65,15.74c0-.26-.13-.32-.34-.31-.3,0-.58.03-.93.05v1.8c.34.08.63.18.93.21.21.02.34-.05.34-.31v-1.43ZM27.13,14.9v4.05h-1.46v-3.25c0-.2-.1-.27-.26-.24-.32.06-.64.15-1,.25v3.24h-1.46v-3.96l-.51-1.03h1.96v.31h.02c.64-.17,1.32-.38,1.88-.38.53,0,.83.33.83,1.02ZM32,15.28v2.34c0,.91-.44,1.4-1.21,1.4-.54,0-.87-.13-1.51-.34v.27h-1.46v-5.71l-.51-1.03h1.96v1.86c.64-.12.97-.19,1.51-.19.77,0,1.21.49,1.21,1.4ZM30.54,15.74c0-.26-.13-.32-.34-.31-.3,0-.58.03-.93.05v1.8c.34.08.63.18.93.21.21.02.34-.05.34-.31v-1.43ZM2.79,9.57c1.72.74,3.94,1.2,5.78.77L31.62,2.66c.47-.23.51-.76.1-1.09-1.25-1.02-3.33-1.14-4.83-.71-1.72.5-3.37,1.23-5.08,1.75l-.31.02-10.15-1.32-3.62-1.3-.83.99c-.05.13-.05.28.01.41l4.09,4.95-8.69,2.96c.11.12.33.19.49.26ZM1.03,5.63c-.12,0-.86.68-1.03.78l2.28,2.53,3.67-1.3L1.03,5.63Z"/>
</svg>