<?xml version="1.0" encoding="UTF-8"?>
<svg id="Layer_1" data-name="Layer 1" xmlns="http://www.w3.org/2000/svg" viewBox="0 0 70.25 70.25">
  <defs>
    <style>
      .cls-1 {
        fill-rule: evenodd;
      }

      .cls-1, .cls-2 {
        stroke: #000;
        stroke-miterlimit: 22.93;
      }

      .cls-1, .cls-2, .cls-3 {
        stroke-width: 1.5px;
      }

      .cls-1, .cls-3 {
        fill: #fff;
      }

      .cls-2, .cls-4 {
        fill: none;
      }

      .cls-3 {
        stroke: #116cff;
        stroke-linejoin: round;
      }
    </style>
  </defs>
  <g id="_02" data-name="02">
    <circle class="cls-4" cx="35.12" cy="35.12" r="35"/>
  </g>
  <g>
    <g>
      <g>
        <path class="cls-1" d="M13.4,22.66l1.24-13.21c.13-1.27.86-2.21,1.71-2.21h12.97c.85,0,1.57.94,1.71,2.21l1.24,13.21"/>
        <path class="cls-1" d="M11.83,61V25.77c0-2.48,2.01-4.5,4.5-4.5h6.5s6.5,0,6.5,0c2.48,0,4.5,2.01,4.5,4.5v35.16c0,.68-.55,1.23-1.23,1.23H12.98c-.64,0-1.16-.52-1.16-1.16Z"/>
        <line class="cls-2" x1="11.83" y1="54.64" x2="33.82" y2="56.54"/>
        <line class="cls-2" x1="33.82" y1="46.88" x2="11.83" y2="48.79"/>
        <line class="cls-2" x1="11.83" y1="39.12" x2="33.82" y2="41.03"/>
      </g>
      <path d="M19.79,24.96h3.69c1.2,0,2.13.29,2.79.88.66.59.99,1.39.99,2.4s-.33,1.82-.99,2.42-1.59.91-2.79.91h-1.97v4.28h-1.72v-10.91ZM23.45,30.23c.78,0,1.32-.19,1.63-.57.31-.38.46-.85.46-1.42s-.15-1.03-.46-1.39c-.31-.36-.85-.55-1.63-.55h-1.94v3.93h1.94ZM23.27,30.83l1.75-.18,3.76,6.79h-1.93l-3.59-6.61Z"/>
    </g>
    <g>
      <path class="cls-3" d="M42.52,32.21c-.6,0-1.19.07-1.75.2,1.03,0,1.86.84,1.86,1.87,0,.39-.12.75-.32,1.05h-1.78c-3.16,0-5.72,2.56-5.72,5.72s2.56,5.72,5.72,5.72h3.99c3.16,0,5.72-2.56,5.72-5.72v-1.12c0-4.26-3.45-7.71-7.71-7.71Z"/>
      <rect class="cls-3" x="29.13" y="41.97" width="26.79" height="11.43" rx="5.72" ry="5.72"/>
      <rect class="cls-3" x="24.92" y="50.72" width="35.21" height="11.43" rx="5.72" ry="5.72"/>
    </g>
  </g>
</svg>