<svg width="16" height="16" viewBox="0 0 16 16" fill="none" xmlns="http://www.w3.org/2000/svg">
<path d="M7.55378 2.38268C7.73875 2.01678 8.26125 2.01678 8.44622 2.38268L10.0454 5.54607C10.1191 5.69182 10.2593 5.7924 10.421 5.81548L13.978 6.32312C14.3917 6.38216 14.5547 6.89246 14.2519 7.18042L11.6943 9.61282C11.5729 9.72822 11.5174 9.89671 11.5464 10.0616L12.152 13.5092C12.2234 13.9161 11.7986 14.2292 11.4311 14.0405L8.22839 12.3959C8.08503 12.3223 7.91497 12.3223 7.77161 12.3959L4.56889 14.0405C4.20139 14.2292 3.77657 13.9161 3.84804 13.5092L4.45362 10.0616C4.48259 9.89671 4.42707 9.72822 4.30573 9.61282L1.74807 7.18042C1.44528 6.89246 1.60834 6.38216 2.022 6.32312L5.579 5.81548C5.74068 5.7924 5.8809 5.69182 5.95458 5.54607L7.55378 2.38268Z" fill="#4C00EE"/>
</svg>
