<svg width="143" height="36" viewBox="0 0 143 36" fill="none" xmlns="http://www.w3.org/2000/svg">
<path d="M5.99238 9.91234C6.07332 9.89491 6.15426 9.86877 6.22363 9.8223C6.31035 9.76131 6.37106 9.66837 6.44332 9.58704C6.57051 9.44763 6.69192 9.44182 6.86536 9.46506C7.07637 9.4941 7.33653 9.58414 7.33653 9.58414C7.33653 9.58414 7.18044 9.34598 6.97809 9.22399C6.84223 9.14267 6.68325 9.08749 6.59364 9.06135C6.54739 9.04682 6.50114 9.04102 6.45489 9.04102H5.66285C5.50386 9.04102 5.35933 9.13396 5.28996 9.27918L5.22636 9.41568L3.8244 10.8534L4.61066 10.4671C5.01824 10.2667 5.40558 10.0343 5.85652 9.94138C5.90277 9.93267 5.94613 9.92395 5.99238 9.91524V9.91234Z" fill="#181C34"/>
<path d="M27.8456 16.0061C27.3051 13.1192 24.8567 11.1384 24.8567 11.1384C24.8567 11.1384 25.4348 11.1006 26.3107 11.3184C27.1866 11.5363 27.5074 11.696 27.5074 11.696C27.4814 11.6815 27.4554 11.3649 27.4467 11.3301C27.3774 11.0135 27.2704 10.7027 27.1345 10.4065C26.7732 9.61936 26.2009 8.96587 25.51 8.4518C24.8885 7.99 24.1023 7.56305 23.3218 7.47301C23.3218 7.47301 23.8566 7.1332 24.8567 7.22904C25.8569 7.32489 26.4321 7.50206 26.4321 7.50206C26.3888 7.48754 26.3078 7.34232 26.2789 7.30746C26.1315 7.13029 25.9754 6.96184 25.8135 6.79919C25.2614 6.24445 24.637 5.79137 23.9693 5.39056C22.4806 4.4931 20.6826 4.14167 18.9714 4.01388C18.7286 3.99645 18.4857 3.98483 18.2429 3.98193C18.2111 3.98193 18.0117 3.95579 17.9886 3.98193C17.9886 3.98193 18.3268 3.58112 19.6969 3.31973C21.0382 3.06123 21.8273 3.06123 21.8273 3.06123C21.8273 3.06123 20.3704 1.98951 18.0232 1.87914C15.9131 1.77749 14.2365 2.62267 14.2336 2.62557C14.3088 2.58782 14.3781 2.32642 14.4157 2.2451C14.5169 2.01856 14.6181 1.79201 14.6846 1.55385C14.8349 1.03687 14.8175 0.371763 14.3608 0C14.3897 0.0232352 14.1295 0.394998 14.1122 0.421138C13.9532 0.630254 13.7653 0.81904 13.563 0.984591C12.9935 1.4551 12.3229 1.86753 11.6552 2.1783C10.8111 2.57039 9.93523 2.88407 9.07093 3.24712C8.29045 3.57531 7.46951 3.86285 6.77287 4.35079C6.46357 4.56571 6.18607 4.85615 6.082 5.2163C5.94325 5.68681 6.11669 6.18637 6.28724 6.64526C5.43739 7.15353 4.58754 7.6589 3.7377 8.16716L3.73191 9.09657C3.73191 9.09657 0.271818 11.3475 0.257365 11.3562C-0.106856 11.5914 -0.0172463 12.0678 0.118614 12.4076C0.248693 12.7387 0.344084 13.0233 0.338303 13.3835C0.332521 13.7436 0.37299 14.1096 0.55221 14.429C1.03206 15.3004 1.85878 15.4833 1.85878 15.4833C1.82409 15.4746 1.78362 16.009 1.78362 16.041C1.78651 16.3663 1.87034 16.6712 2.01776 16.9617C2.41378 17.743 3.25207 18.3384 4.13082 18.4081C4.13082 18.4081 4.61067 18.0305 4.75809 17.8562C4.88528 17.7052 5.00958 17.5513 5.13388 17.4002C5.15122 17.3799 5.16856 17.3567 5.1888 17.3422C5.22059 17.3189 5.25817 17.3073 5.29575 17.2957C5.52122 17.226 5.74958 17.1592 5.97505 17.0895C6.06755 17.4293 5.67732 17.7575 5.49521 17.9956C5.00091 18.6375 4.56153 19.2997 4.37653 20.0984C4.11348 21.234 4.33317 22.5178 4.87661 23.543C4.87661 23.543 5.05583 22.207 5.61372 21.812C6.28146 21.3386 6.76709 21.4954 6.76998 21.4954C6.68904 21.4693 6.37685 22.5555 6.35951 22.6194C6.13115 23.5372 6.0849 24.4986 6.13693 25.4396C6.20341 26.6333 6.40576 27.8793 6.83935 29.0004C6.81912 28.9481 6.87404 28.7942 6.8856 28.7419C6.92896 28.5154 6.9781 28.2888 7.03303 28.0652C7.1631 27.5279 7.32787 26.9848 7.56201 26.4852C8.01006 25.5209 8.87725 24.7455 9.85718 24.3534C9.76757 24.3882 9.66062 24.8907 9.62882 24.9894C9.55655 25.2131 9.49296 25.4396 9.43515 25.6662C9.32241 26.1221 9.24148 26.5839 9.19233 27.0516C9.09405 27.9722 9.12007 28.9046 9.27616 29.8194C9.36288 30.3277 9.49007 30.8273 9.64906 31.3152C9.92078 32.1488 10.285 33.0172 10.7937 33.7375C10.8747 33.8507 10.9643 33.9611 11.0655 34.057C11.1175 33.8217 11.0915 33.5458 11.1088 33.3018C11.1291 33.0317 11.1551 32.7645 11.1984 32.5002C11.3488 31.6115 11.7303 30.8157 12.3778 30.1854C12.3778 30.1854 12.4472 32.1342 13.0513 33.4122C13.985 35.3901 15.916 36 15.9189 36C15.8495 35.9768 15.9535 35.0648 15.9622 34.9689C16.0027 34.5768 16.0749 34.1906 16.1761 33.8101C16.4334 32.8458 16.8872 31.9745 17.4769 31.1729C18.5985 29.651 19.905 28.3004 20.7578 26.5898C20.804 26.4968 20.8474 26.4039 20.8908 26.3109C21.0179 26.035 21.1076 25.7562 21.2029 25.4745C21.2492 25.7242 21.1451 26.067 21.1133 26.3225L21.0093 27.2026C20.937 27.7951 20.7896 28.4399 20.8214 29.0353C20.8416 29.4244 20.8618 29.8078 20.9226 30.1941C20.9226 30.1941 21.4804 29.1166 21.9198 28.3934C22.3592 27.6702 23.1512 26.5084 23.5241 25.4048C24.108 23.6737 24.1341 21.4374 24.1341 21.4141C24.1341 21.4954 24.2208 21.6319 24.2468 21.7133C24.2959 21.8643 24.3364 22.0153 24.3711 22.1693C24.4376 22.4684 24.4809 22.7734 24.5069 23.0812C24.5705 23.8364 24.5532 24.6119 24.5243 25.367C24.5243 25.367 26.0245 23.665 26.276 21.5361C26.5044 19.5785 25.9783 17.3363 25.9783 17.3363C25.9783 17.3363 26.8224 17.9869 27.1634 18.7363C27.5537 19.5931 27.6953 20.4528 27.6953 20.4528C27.6953 20.4528 28.2735 18.3267 27.837 16.0061H27.8456ZM15.1788 2.88116C17.2254 2.32352 18.373 2.72142 18.373 2.72142C18.373 2.72142 17.5029 2.99734 16.5808 3.43881C15.6587 3.88027 15.1008 4.50762 15.1008 4.50762C15.1008 4.50762 15.6558 4.27818 18.8442 4.64704C22.0326 5.01589 23.9664 6.22122 23.9664 6.22122C23.8305 6.13699 23.634 6.09923 23.4866 6.05276C23.0356 5.90464 22.576 5.77685 22.1135 5.66648C20.5236 5.28019 18.8962 5.07979 17.263 5.01299C16.2744 4.97233 15.2829 5.01299 14.3001 5.14078C13.6728 5.2192 13.0167 5.32666 12.4299 5.57354C12.4241 5.57354 12.4212 5.57644 12.4154 5.57935C12.4154 5.57935 12.5715 5.26567 13.0484 4.77483C13.5254 4.28399 14.3724 3.83671 14.3724 3.83671C14.3724 3.83671 13.8723 3.94127 13.0484 4.12134C12.2882 4.28689 11.5656 4.60928 10.8487 4.89972C12.0801 3.87447 13.6526 3.3023 15.1788 2.88697V2.88116ZM18.9916 9.76749C20.9659 10.5836 21.5585 11.7396 21.5585 11.7396C21.5585 11.7396 20.4947 10.8828 19.3761 10.4791C18.2574 10.0754 17.0346 9.89818 16.1183 9.82848C15.4014 9.7733 14.6759 9.79944 13.959 9.84591L15.0979 9.3783L13.881 9.23017C14.3261 9.08205 14.7713 8.93392 15.2164 8.7829C14.751 8.73933 14.2885 8.69867 13.8231 8.6551C13.7798 8.6522 13.7335 8.64639 13.6988 8.62025C13.6526 8.58249 13.6699 8.1875 13.6584 8.1875C15.1615 8.05389 16.6733 8.02775 18.1822 8.11489C17.3266 8.34724 16.497 8.66672 15.7078 9.07043C16.8265 8.99201 17.9654 9.34635 18.9887 9.76749H18.9916ZM12.3431 7.03445L11.9182 8.13522L11.7592 8.01904C11.7592 8.01904 11.6581 7.89125 11.6552 7.74312C11.6523 7.595 11.8373 7.15353 11.8373 7.15353C11.8373 7.15353 11.5569 7.42945 11.4557 7.57757C11.3545 7.7257 11.369 7.89996 11.4095 8.00161C11.4499 8.10327 11.8806 8.53021 11.8806 8.53021C11.8806 8.53021 11.9124 9.08205 11.8431 9.08786C11.7737 9.09367 11.7795 9.00363 11.7245 8.90779C11.6696 8.81194 11.4037 8.46632 11.1291 8.22525C10.8545 7.98709 10.6377 7.9261 10.5654 7.79831C10.4931 7.67051 10.4931 7.49334 10.5278 7.39169C10.5654 7.29004 10.6463 7.16224 11.0597 6.70916C11.473 6.25898 12.0685 6.10214 12.346 6.18056C12.6264 6.25898 12.901 6.53489 13.0138 7.02283C13.1265 7.51077 13.3722 8.9833 13.2334 9.73844C13.0947 10.4936 12.2853 10.9902 12.2853 10.9902C12.2853 10.9902 12.0483 9.83138 12.1292 9.46253C12.3547 8.42566 12.3402 7.03154 12.3402 7.03154L12.3431 7.03445ZM7.38568 4.50182C8.11702 4.04582 8.78475 3.73215 10.4555 3.14256C12.1292 2.55296 13.1872 1.64679 13.1872 1.64679C13.1872 1.64679 12.8577 2.39613 12.0309 2.96248C11.4441 3.36329 10.8198 3.6973 10.1694 3.97902C9.5132 4.26075 8.71827 4.50182 8.16905 4.97523C7.87709 5.22791 7.91178 5.65196 7.91178 5.65196L7.38568 5.9482C7.38568 5.9482 7.36545 5.7478 7.3799 5.56773C7.40303 5.25696 7.67764 4.80968 7.67764 4.80678C7.57068 4.98104 7.37412 5.0856 7.27295 5.28019C7.20068 5.4167 7.15443 5.56192 7.13131 5.71295C7.11396 5.83493 7.16021 6.02953 7.09084 6.11376C7.00412 6.21541 6.78732 6.28511 6.66881 6.35482C6.66881 6.35482 5.97505 5.37313 7.3799 4.49891L7.38568 4.50182ZM0.760336 11.4404L4.31582 9.21275L4.32161 8.31529L8.87147 5.55611L9.47562 5.79137L8.2471 6.90085L9.39179 6.63364L8.44655 8.28624C8.44655 8.28624 8.75007 8.41404 9.42648 9.07043C10.1058 9.72392 10.3197 10.3919 10.3197 10.3919L11.0163 10.4616L10.3977 10.7056C10.3977 10.7056 10.4353 10.9728 10.3891 11.4753C10.3428 11.9777 10.0624 12.2856 10.0624 12.2856C10.0624 12.2856 9.53632 11.9487 8.2471 11.7251C6.71506 11.4578 5.59349 11.8035 5.59349 11.8035C5.59349 11.8035 6.20341 11.7715 7.35678 12.3146C7.87131 12.5586 8.34249 12.9681 8.38006 13.5752C8.37428 13.4764 7.84241 13.2382 7.7528 13.1918C7.52733 13.0756 7.29318 12.9768 7.05037 12.8955C6.60232 12.7445 6.0531 12.5964 5.57903 12.6341C5.86521 12.7997 6.16294 12.971 6.40576 13.2034C6.6717 13.4561 6.70349 13.5955 6.66302 13.8424C6.62256 14.0892 6.42599 14.249 5.71778 14.7572C4.93442 15.3236 4.15395 15.341 3.26652 15.1813C2.3762 15.0215 1.96862 14.6207 1.77784 14.1589C1.58706 13.6971 1.69112 12.7997 1.69112 12.7997H2.15362C2.15362 12.7997 2.23456 12.8491 2.52074 12.73C2.85894 12.5877 2.88785 12.335 2.88785 12.335L2.69996 12.4831C2.48027 12.6283 2.20277 12.608 1.97441 12.4744L1.81542 12.3785C1.73448 12.3321 1.63331 12.3379 1.56104 12.3989L1.3876 12.5673C1.29221 12.6603 1.13901 12.6399 1.06674 12.5296C0.954009 12.3524 0.803696 12.0997 0.748774 11.9371C0.656273 11.6612 0.754555 11.4433 0.754555 11.4433L0.760336 11.4404ZM1.13612 14.6411C0.769008 14.2257 0.676508 13.9411 0.659164 13.4764C0.64182 13.0291 0.760336 12.9391 0.832602 12.9246C0.904868 12.91 0.9569 13.003 1.01182 13.0117C1.06674 13.0204 1.37315 12.9652 1.37315 12.9652C1.37315 12.9652 1.34135 13.5403 1.50034 14.0486C1.65933 14.5539 2.11894 15.0709 2.11894 15.0709C2.11894 15.0709 1.50034 15.0564 1.13323 14.644L1.13612 14.6411ZM5.79294 16.7729C5.19747 17.014 5.00958 16.9704 5.00958 16.9704C5.00958 16.9704 4.74075 17.3073 4.57598 17.4874C4.50082 17.5687 4.37942 17.6762 4.26957 17.7691C4.25512 17.7081 4.23778 17.6268 4.23778 17.5367C4.232 17.348 4.23778 17.043 4.23778 17.043C4.23778 17.043 4.06723 17.3596 4.03543 17.5861C4.0152 17.7197 4.02676 17.862 4.04121 17.9579H4.03832C4.03832 17.9579 3.98051 17.9637 3.88223 17.9521C3.80418 17.8882 3.70012 17.7923 3.61629 17.6704C3.46019 17.4496 3.3966 17.1998 3.3966 17.1998C3.3966 17.1998 3.35035 17.4177 3.35035 17.5542C3.35035 17.6268 3.36191 17.7197 3.37637 17.7923C3.14222 17.6762 2.86472 17.4758 2.58722 17.1418C1.84722 16.2501 2.18253 15.6634 2.24613 15.5647C2.30683 15.4659 2.82136 15.312 2.82136 15.312C2.82136 15.312 3.12777 15.8232 4.14239 16.0497C5.59638 16.375 6.56763 16.0119 6.56763 16.0119C6.56763 16.0119 6.3913 16.5347 5.79872 16.7729H5.79294ZM5.54146 20.7752C4.90841 21.5768 4.77833 22.4858 4.77833 22.4887C4.79278 22.3842 4.7234 22.2128 4.70895 22.1083C4.66848 21.7975 4.65981 21.4896 4.69161 21.1818C4.76098 20.4731 4.95176 19.8574 5.34489 19.2591C5.9288 18.3703 6.76998 17.7313 7.45506 16.9326C7.89155 16.4244 8.25577 15.8319 8.3685 15.1726C8.42053 15.4427 8.38585 15.7157 8.31358 15.98C8.24131 16.2443 8.07655 16.4854 8.02163 16.738C8.19506 16.6451 8.35983 16.4563 8.50436 16.3198C8.79054 16.0468 9.06515 15.7593 9.31663 15.4543C9.96414 14.6672 10.259 13.944 10.259 13.944C10.259 13.944 10.5712 16.0119 8.4003 18.1176C6.59943 19.8661 6.34794 19.7644 5.54724 20.7752H5.54146ZM8.96397 22.8634C8.11413 23.8277 7.42326 24.9255 7.00701 26.1512C6.90006 26.4707 6.79888 26.7989 6.74396 27.13C6.74396 27.13 6.16583 23.3804 8.84546 20.1071C11.2158 17.2086 11.3372 15.4775 11.3372 15.4775C11.3372 15.4775 11.3545 16.6538 10.9585 17.8853C10.4584 19.4449 9.03913 21.3125 9.03913 21.3125C9.03913 21.3125 11.8373 19.14 12.3142 16.3518C12.6669 14.2867 11.2389 12.03 11.2389 12.03C11.3285 12.1723 11.5453 12.2972 11.6667 12.4134C11.9211 12.6545 12.1784 12.91 12.4009 13.1831C13.4502 14.4842 13.4531 16.3982 12.982 17.9347C12.9299 18.106 12.8692 18.2745 12.8056 18.44C12.1813 20.0345 10.7677 21.0511 9.58835 22.207C9.37155 22.419 9.16343 22.6398 8.96397 22.8663V22.8634ZM12.0916 28.2743C11.447 29.3286 10.9412 30.4642 10.7735 31.7073C10.7215 32.082 10.6839 32.4828 10.7302 32.8633C10.7302 32.8633 9.59413 30.6152 9.8514 27.9025C9.92656 27.1242 10.0219 26.3371 10.2416 25.5819C10.47 24.789 10.8891 24.0542 11.3285 23.3601C12.1841 22.0095 13.2074 20.7955 13.8289 19.3055C13.8405 19.2823 13.8492 19.2562 13.8607 19.2329C14.4591 17.7836 14.5689 16.2123 14.5689 16.2123C14.5631 16.2995 14.6094 16.4186 14.6238 16.5086C14.6643 16.7816 14.6874 17.0604 14.6932 17.3363C14.7135 18.2193 14.5718 19.0761 14.3203 19.9184C13.9388 21.1934 13.4156 22.4248 12.7652 23.5808C13.7046 22.9534 14.6094 22.1547 15.1933 21.1731C16.0605 19.7121 16.2195 18.8757 16.2195 18.8757C16.2195 18.8757 16.5114 21.4664 14.9736 24.0194C14.3637 25.033 13.6988 25.9914 12.9993 26.9441C12.6813 27.3739 12.3749 27.8154 12.0974 28.2714L12.0916 28.2743ZM18.2198 28.6054C18.2689 28.5241 18.2892 28.4282 18.3094 28.3353C18.6303 26.8976 18.8962 25.399 18.795 23.9206C18.7719 23.5489 18.7286 23.1713 18.6476 22.8082C18.6476 22.8082 18.6014 24.0281 16.7803 26.9848C16.1067 28.0797 15.3783 29.2299 14.9823 30.4642C14.5169 31.9077 14.4967 33.4993 15.1124 34.9021C14.277 34.0715 13.8867 32.8662 13.8289 31.6841C13.7335 29.7149 14.3839 27.7951 15.0603 25.9798C15.228 25.5296 15.3985 25.0795 15.5575 24.6235C16.8265 20.9959 16.6444 19.6395 16.5606 18.7914C16.4739 17.9434 15.9131 16.7787 15.9131 16.7787C15.9131 16.7787 16.682 17.2812 17.3439 18.2658C17.9741 19.2039 18.2111 20.3163 18.2111 20.3163C18.1736 20.1333 18.1793 19.9329 18.1533 19.747C18.0984 19.32 18.0175 18.896 17.9076 18.4807C17.4971 16.9413 16.6589 15.5124 15.7339 14.2257C15.7165 14.2025 15.6992 14.1764 15.6818 14.1531C15.7946 14.3071 16.0489 14.4319 16.1964 14.5539C17.3902 15.5356 18.4973 16.7003 19.2633 18.0537C20.0236 19.3956 20.3271 20.871 20.3589 22.4016C20.3936 24.1762 20.0062 26.0641 19.0581 27.5889C18.8297 27.9577 18.5551 28.3295 18.2227 28.6083L18.2198 28.6054ZM25.2094 23.0028C25.2094 23.0028 25.458 21.2253 24.2641 18.8873C23.0732 16.5493 21.9054 15.5066 21.9054 15.5066C22.0065 15.5966 22.0586 15.9306 22.1019 16.0526C22.2465 16.4679 22.3794 16.8862 22.5095 17.3044C22.8015 18.228 22.998 19.1806 23.0992 20.1449C23.2698 21.7801 23.1223 23.3862 22.7755 24.9894C22.7292 25.1985 22.683 25.4106 22.6309 25.6197C22.3737 26.6827 21.8071 27.647 21.3186 28.6141C21.4169 28.4195 21.4371 28.132 21.4862 27.92C21.5412 27.6789 21.5903 27.4349 21.6365 27.1939C21.729 26.7059 21.8042 26.218 21.8649 25.7271C21.9834 24.7571 22.047 23.7841 21.995 22.8082C21.9025 21.1121 21.3677 19.4885 20.5468 18.0073C20.382 17.711 20.2057 17.4177 20.0236 17.133C19.2229 15.8725 17.6677 14.6149 16.4681 13.761C15.2685 12.91 12.242 11.7251 12.242 11.7251C12.242 11.7251 14.6528 11.8499 17.0318 12.881C19.4107 13.9121 20.7115 15.3294 20.7115 15.3294C20.7115 15.3294 20.2895 14.0805 18.8702 12.852C17.4509 11.6234 16.9826 11.4143 16.9826 11.4143C16.9826 11.4143 19.3356 12.0039 20.9833 13.2063C22.2898 14.156 23.3825 15.4136 24.1427 16.8426C24.1051 16.0875 24.0098 15.3323 23.8594 14.5917C23.8739 14.6614 23.9895 14.7689 24.0329 14.8328C24.0994 14.9286 24.163 15.0274 24.2237 15.1261C24.3422 15.3178 24.452 15.5124 24.5561 15.7128C24.7584 16.1078 24.929 16.5202 25.0706 16.9413C25.377 17.8475 25.5562 18.8031 25.6227 19.7557C25.695 20.81 25.6516 21.9137 25.2585 22.907C25.247 22.936 25.2238 22.9738 25.218 23.0028H25.2094ZM23.8912 11.7018C22.8824 10.6649 21.7435 9.74716 20.5034 9.00363C20.3762 8.92812 20.249 8.8526 20.119 8.7858C20.119 8.7858 20.6971 8.72481 21.4111 8.74804C22.1251 8.77128 22.6656 8.8526 22.6656 8.8526C22.6656 8.8526 21.7175 7.93191 19.2778 7.31327C16.841 6.69754 15.4506 6.53489 15.4506 6.53489C15.4506 6.53489 18.2718 6.21541 21.5585 7.32779C25.9898 8.82356 26.6056 10.7347 26.6056 10.7347C26.6056 10.7347 25.8366 10.4413 24.8365 10.3106C23.8363 10.1828 23.1628 10.2612 23.1628 10.2612C23.1628 10.2612 24.3509 11.1587 25.4175 12.5993C26.224 13.6855 26.7992 14.9664 27.1779 16.2617C27.123 16.0729 26.9727 15.8754 26.8773 15.7041C26.7703 15.5124 26.6576 15.3207 26.5448 15.1348C26.3165 14.7572 26.0737 14.3913 25.8222 14.0311C25.3134 13.3109 24.7584 12.6283 24.1572 11.9835C24.0676 11.8877 23.978 11.7948 23.8883 11.7018H23.8912Z" fill="#181C34"/>
<path d="M57.6391 24.6935H53.2729L57.6391 11.168H63.2173L67.3958 24.6935H63.0056L60.3941 14.435H60.2985L57.6391 24.6935Z" fill="#181C34"/>
<path d="M68.6964 11.168H78.5452V14.0151H72.9671V16.4833H77.6645V19.047H72.9671V21.802H78.5213V24.6969H68.6964V11.168V11.168Z" fill="#181C34"/>
<path d="M126.96 24.6935H122.972L122.665 17.2411C122.617 15.7698 122.563 14.6535 122.498 13.8956H122.426C122.235 14.4964 122.013 15.4318 121.761 16.6949L121.641 17.2889L120.002 24.6935H116.015L114.639 18.0263L114.4 16.8383C114.069 15.3669 113.837 14.3872 113.711 13.8956H113.639C113.574 14.6876 113.52 15.978 113.472 17.7634C113.455 17.8727 113.448 18.0468 113.448 18.2857L113.233 24.6935H109.222L109.802 11.168H116.589L117.753 17.0056L118.036 18.5725C118.162 18.0809 118.282 17.5381 118.391 16.9339L119.484 11.168H126.414L126.96 24.6935V24.6935Z" fill="#181C34"/>
<path d="M135.699 11H135.511C131.019 11 128.772 13.2395 128.772 17.7149C128.772 19.9783 129.322 21.7569 130.421 23.0541C131.521 24.3514 133.296 25 135.603 25C137.911 25 139.686 24.3514 140.786 23.0541C141.885 21.7569 142.434 19.9783 142.434 17.7149C142.434 13.236 140.188 11 135.696 11H135.699ZM137.846 19.8725C137.846 21.098 136.894 22.1017 135.692 22.1904H135.522C134.316 22.1017 133.367 21.1014 133.367 19.8725V16.1309C133.367 14.9054 134.316 13.9051 135.518 13.8164H135.696C136.897 13.9051 137.846 14.9054 137.846 16.1309V19.8725V19.8725Z" fill="#181C34"/>
<path d="M52.0439 13.6288C51.3884 12.6661 50.4701 12.0072 49.2924 11.659C48.1112 11.3108 46.5989 11.1367 44.7452 11.1367H40V24.6622H44.7452C46.534 24.6622 48.0122 24.4983 49.1831 24.174C50.3541 23.8497 51.286 23.184 51.9824 22.1804C52.6789 21.1767 53.0271 19.7088 53.0271 17.7766C53.0271 15.9741 52.6993 14.5881 52.0405 13.622L52.0439 13.6288ZM48.4457 17.8244V20.057C48.4457 21.0675 47.6264 21.8868 46.6159 21.8868H44.2263V13.8882H46.6159C47.6264 13.8882 48.4457 14.7076 48.4457 15.718V17.8244V17.8244Z" fill="#181C34"/>
<path d="M92.5896 13.6288C91.9342 12.6661 91.0159 12.0072 89.8381 11.659C88.6603 11.3108 87.1446 11.1367 85.2943 11.1367H80.5491V24.6622H85.2943C87.0831 24.6622 88.5613 24.4983 89.7323 24.174C90.9032 23.8497 91.8352 23.184 92.5316 22.1804C93.228 21.1767 93.5762 19.7088 93.5762 17.7766C93.5762 15.9741 93.2485 14.5881 92.5896 13.622V13.6288ZM88.9915 17.8244V20.057C88.9915 21.0675 88.1722 21.8868 87.1617 21.8868H84.772V13.8882H87.1617C88.1722 13.8882 88.9915 14.7076 88.9915 15.718V17.8244V17.8244Z" fill="#181C34"/>
<path d="M98.2702 24.6935H93.9039L98.2702 11.168H103.848L108.027 24.6935H103.637L101.025 14.435H100.93L98.2702 24.6935V24.6935Z" fill="#181C34"/>
</svg>
