<svg width="20" height="20" viewBox="0 0 20 20" fill="none" xmlns="http://www.w3.org/2000/svg">
<circle cx="10" cy="10" r="10" fill="#181C34"/>
<path d="M11.0739 4.36719L10.8864 12.5831H9.05682L8.875 4.36719H11.0739ZM9.97159 16.1286C9.62689 16.1286 9.33144 16.0073 9.08522 15.7649C8.8428 15.5225 8.72159 15.227 8.72159 14.8786C8.72159 14.5376 8.8428 14.246 9.08522 14.0036C9.33144 13.7611 9.62689 13.6399 9.97159 13.6399C10.3087 13.6399 10.6004 13.7611 10.8466 14.0036C11.0966 14.246 11.2216 14.5376 11.2216 14.8786C11.2216 15.1096 11.1629 15.3198 11.0455 15.5092C10.9318 15.6986 10.7803 15.8501 10.5909 15.9638C10.4053 16.0736 10.1989 16.1286 9.97159 16.1286Z" fill="white"/>
</svg>
