<?xml version="1.0" encoding="utf-8"?>
<!-- Generator: Adobe Illustrator 28.0.0, SVG Export Plug-In . SVG Version: 6.00 Build 0)  -->
<svg version="1.1" id="Layer_1" xmlns="http://www.w3.org/2000/svg" xmlns:xlink="http://www.w3.org/1999/xlink" x="0px" y="0px"
	 viewBox="0 0 162 22" style="enable-background:new 0 0 162 22;" xml:space="preserve">
<style type="text/css">
	.st0{fill:#35F4EC;}
	.st1{fill:#FFFFFF;}
</style>
<g>
	<g>
		<path class="st0" d="M105.67,21.42h-4.41L93.8,10.58h-0.14v10.85h-5.27V1.34h4.49l7.35,10.79h0.17V1.34h5.27V21.42z"/>
		<path class="st0" d="M117.99,21.7c-5.48,0-9.73-3.68-9.74-10.32c0.01-6.69,4.26-10.32,9.74-10.32c5.42,0,9.71,3.63,9.71,10.32
			S123.42,21.7,117.99,21.7z M117.99,17.1c2.75-0.01,4.29-2.03,4.27-5.72c0.01-3.7-1.53-5.72-4.27-5.72c-2.77,0-4.3,2.01-4.3,5.72
			C113.69,15.07,115.22,17.08,117.99,17.1z"/>
		<path class="st0" d="M128.2,1.34h5.88l2.83,12.57h0.17l3.3-12.57h4.66l3.33,12.62h0.17l2.83-12.62h5.88l-5.91,20.09h-5.08
			L142.8,9.94h-0.17l-3.47,11.49h-5.05L128.2,1.34z"/>
		<path class="st0" d="M156.62,19.04c-0.01-1.47,1.21-2.66,2.69-2.66c1.42,0,2.68,1.19,2.69,2.66c-0.01,1.5-1.28,2.69-2.69,2.69
			C157.82,21.73,156.6,20.54,156.62,19.04z"/>
	</g>
	<g>
		<g>
			<polygon class="st1" points="0,0.46 0,21.62 12.22,21.62 12.22,19.22 5.37,19.22 5.37,2.87 12.22,2.87 12.22,0.46 			"/>
			<polygon class="st1" points="20.01,8.62 18.45,8.62 18.45,0.18 13.58,0.18 13.58,21.82 18.45,21.82 18.45,11.45 20.01,11.45 
				20.01,21.82 25.13,21.82 25.13,0.18 20.01,0.18 			"/>
			<polygon class="st1" points="51.3,0.18 45.93,0.18 45.93,21.82 51.3,21.82 51.3,11.56 53.56,11.56 53.56,9.01 51.3,9.01 			"/>
			<polygon class="st1" points="34.03,2.87 43.98,2.87 43.98,0.46 28.65,0.46 28.65,21.62 44.4,21.62 44.4,19.22 34.03,19.22 			"/>
			<polygon class="st1" points="70.03,19.1 70.03,16.83 64.6,16.83 64.6,19.1 54.72,19.1 54.72,21.51 79.58,21.51 79.58,19.1 			"/>
			<path class="st1" d="M55.7,14.97h22.9V0.46H55.7V14.97z M61.07,12.56V2.87h12.16v9.69H61.07z"/>
		</g>
	</g>
</g>
</svg>
