<?xml version="1.0" encoding="utf-8"?>
<!-- Generator: Adobe Illustrator 28.0.0, SVG Export Plug-In . SVG Version: 6.00 Build 0)  -->
<svg version="1.1" id="Layer_1" xmlns="http://www.w3.org/2000/svg" xmlns:xlink="http://www.w3.org/1999/xlink" x="0px" y="0px"
	 viewBox="0 0 148 20" style="enable-background:new 0 0 148 20;" xml:space="preserve">
<g>
	<g>
		<g>
			<path d="M96.54,19.52h-4.03l-6.82-9.91h-0.13v9.91h-4.82V1.17h4.11l6.72,9.86h0.15V1.17h4.82V19.52z"/>
			<path d="M107.8,19.78c-5.01,0-8.88-3.36-8.9-9.43c0.01-6.11,3.89-9.43,8.9-9.43c4.96,0,8.87,3.32,8.87,9.43
				S112.75,19.78,107.8,19.78z M107.8,15.57c2.51-0.01,3.92-1.85,3.9-5.22c0.01-3.38-1.39-5.22-3.9-5.22
				c-2.53,0-3.93,1.84-3.93,5.22C103.87,13.72,105.26,15.56,107.8,15.57z"/>
			<path d="M117.13,1.17h5.37l2.59,11.48h0.15l3.02-11.48h4.26l3.04,11.53h0.15l2.59-11.53h5.37l-5.4,18.35h-4.64l-3.17-10.49h-0.15
				l-3.17,10.49h-4.61L117.13,1.17z"/>
			<path d="M143.08,17.34c-0.01-1.34,1.1-2.43,2.46-2.43c1.29,0,2.45,1.09,2.46,2.43c-0.01,1.37-1.17,2.46-2.46,2.46
				C144.19,19.8,143.07,18.71,143.08,17.34z"/>
		</g>
		<g>
			<g>
				<polygon points="0,0.37 0,19.71 11.16,19.71 11.16,17.51 4.91,17.51 4.91,2.57 11.16,2.57 11.16,0.37 				"/>
				<polygon points="18.28,7.83 16.86,7.83 16.86,0.11 12.41,0.11 12.41,19.89 16.86,19.89 16.86,10.41 18.28,10.41 18.28,19.89 
					22.96,19.89 22.96,0.11 18.28,0.11 				"/>
				<polygon points="46.87,0.11 41.96,0.11 41.96,19.89 46.87,19.89 46.87,10.51 48.93,10.51 48.93,8.18 46.87,8.18 				"/>
				<polygon points="31.08,2.57 40.18,2.57 40.18,0.37 26.18,0.37 26.18,19.71 40.56,19.71 40.56,17.51 31.08,17.51 				"/>
				<polygon points="63.98,17.4 63.98,15.33 59.02,15.33 59.02,17.4 49.99,17.4 49.99,19.6 72.7,19.6 72.7,17.4 				"/>
				<path d="M50.88,13.63h20.92V0.37H50.88V13.63z M55.79,11.43V2.57H66.9v8.85H55.79z"/>
			</g>
		</g>
	</g>
</g>
</svg>
