<svg width="39" height="16" viewBox="0 0 39 16" fill="none" xmlns="http://www.w3.org/2000/svg">
<g clip-path="url(#clip0_8435_12067)">
<path d="M30.9798 0H8.02016C3.59075 0 0 3.58172 0 8C0 12.4183 3.59075 16 8.02016 16H30.9798C35.4093 16 39 12.4183 39 8C39 3.58172 35.4093 0 30.9798 0Z" fill="#EFEFF2"/>
<path d="M7.47852 11.549V4.45097H10.3092C11.8817 4.45097 12.668 5.20589 12.668 6.2745C12.668 7.10782 12.1274 7.62744 11.3903 7.79413V7.86274C12.1963 7.90195 12.953 8.53922 12.953 9.58823C12.953 10.7157 12.1078 11.549 10.4959 11.549H7.47852ZM10.201 10.3333C11.0561 10.3333 11.4198 9.98039 11.4198 9.45097C11.4198 8.85295 10.9677 8.43137 10.2403 8.43137H8.95281V10.3333H10.201ZM10.0929 7.42155C10.7121 7.42155 11.1741 7.07842 11.1741 6.5098C11.1741 5.99999 10.8006 5.64705 10.1224 5.64705H8.95281V7.42155H10.0929Z" fill="#777777"/>
<path d="M13.7861 11.549V4.45097H18.5628V5.66666H15.2604V7.39215H18.3171V8.60784H15.2604V10.3333H18.5727V11.549H13.7861Z" fill="#777777"/>
<path d="M19.3369 5.66666V4.45097H25.1653V5.66666H22.9834V11.549H21.5189V5.66666H19.3369Z" fill="#777777"/>
<path d="M26.2934 11.549H24.7012L27.1682 4.45097H29.0651L31.5222 11.549H29.9398L29.4091 9.91177H26.834L26.2934 11.549ZM27.2075 8.7647H29.0356L28.1412 6.049H28.0921L27.2075 8.7647Z" fill="#777777"/>
</g>
<defs>
<clipPath id="clip0_8435_12067">
<rect width="39" height="16" fill="white"/>
</clipPath>
</defs>
</svg>
