<svg width="70" height="70" viewBox="0 0 70 70" fill="none" xmlns="http://www.w3.org/2000/svg">
<g clip-path="url(#clip0_10765_14740)">
<path d="M50.7323 17.1518V9.90594C50.7323 9.34282 50.284 8.88677 49.7315 8.88677H48.7443V4.24871L48.6655 4.20795C46.6 3.13814 44.2539 2.76586 41.9667 3.14397L34.9313 3.98261V5.87403H41.9667V8.88632H40.9795C40.4265 8.88632 39.9787 9.34282 39.9787 9.9055V17.1513C37.651 18.1427 34.0018 18.8604 34.0013 21.6187L34 66.0486C34 66.5737 34.4179 66.9993 34.9335 66.9993L56.0651 67.0002C56.5807 67.0002 56.9987 66.5746 56.9987 66.0495L57 21.6196C57 18.8904 53.0213 18.1606 50.7323 17.1513V17.1518Z" fill="white"/>
</g>
<path d="M42.0089 3.14307L34.9922 3.97677V5.85707H41.8659" stroke="black" stroke-width="1.5" stroke-linecap="round" stroke-linejoin="round"/>
<path d="M40.0253 17.0688C37.7034 18.0539 34.0638 18.7674 34.0638 21.5094L34.0625 65.6781C34.0625 66.2 34.4793 66.6231 34.9936 66.6231L56.0691 66.624C56.5833 66.624 57.0002 66.2009 57.0002 65.679L57.0015 21.5103C57.0015 18.7972 53.0333 18.0717 50.7504 17.0684" stroke="black" stroke-width="1.5" stroke-linecap="round" stroke-linejoin="round"/>
<path d="M42.0078 8.52191V3.1429C44.2889 2.76702 46.6289 3.13711 48.6889 4.20062L48.7674 4.24115V8.52191" stroke="black" stroke-width="1.5" stroke-linecap="round" stroke-linejoin="round"/>
<path d="M41.0843 8.85132H49.7033C50.2847 8.85132 50.7564 9.33008 50.7564 9.92017V17.0681H40.0312V9.92017C40.0312 9.33008 40.5029 8.85132 41.0843 8.85132Z" stroke="black" stroke-width="1.5" stroke-linecap="round" stroke-linejoin="round"/>
<path d="M49.6231 35.3499V46.0584H47.9233L42.9521 38.7644H42.8644V46.0584H40.9531V35.3499H42.6634L47.6293 42.6492H47.7219V35.3499H49.6226H49.6231Z" fill="black"/>
<path d="M34.0156 24.6038H56.8383" stroke="black" stroke-width="1.5" stroke-linecap="round" stroke-linejoin="round"/>
<path d="M34.0156 59.3521H56.8383" stroke="black" stroke-width="1.5" stroke-linecap="round" stroke-linejoin="round"/>
<path d="M38.1439 58.2077H38.1382C37.8359 55.8513 35.3599 53.0661 32.5036 51.0001C28.4749 48.0865 26.7119 49.6711 25.3022 50.7956C24.1728 51.6966 22.7029 52.655 22.1628 53.0006C19.1116 52.4127 16.0522 53.0362 13.9452 55.4509C12.2525 57.3909 12.3788 59.2035 12.8496 60.4572C7.64984 66.5857 16.0245 66.9999 28.4749 66.9999C40.9252 66.9999 41.7703 65.2109 41.8707 61.6837C41.9716 58.1565 38.1439 58.2077 38.1439 58.2077Z" fill="white"/>
<path d="M38.1372 58.2078C38.1372 58.2078 41.9646 58.1566 41.8641 61.6838C41.7632 65.211 41.0585 67 28.4682 67C15.8779 67 7.14433 66.8227 12.7127 60.4942" stroke="#6438EB" stroke-width="1.5" stroke-linecap="round" stroke-linejoin="round"/>
<path d="M22.5703 52.9663C22.5703 52.9663 23.8862 51.9202 25.2963 50.7956C26.7065 49.6711 28.469 48.0865 32.4978 51.0001C36.5265 53.9136 39.8001 58.2589 37.282 60.8148" stroke="#6438EB" stroke-width="1.5" stroke-linecap="round" stroke-linejoin="round"/>
<path d="M13.8858 62.1749C13.8858 62.1749 10.8188 59.0293 13.9415 55.4509C17.0638 51.8725 22.2767 52.2265 26.4568 54.6292" stroke="#6438EB" stroke-width="1.5" stroke-linecap="round" stroke-linejoin="round"/>
<path d="M20.3066 49.7227C22.56 49.7227 24.3867 47.8685 24.3867 45.5813C24.3867 43.2941 22.56 41.4399 20.3066 41.4399C18.0533 41.4399 16.2266 43.2941 16.2266 45.5813C16.2266 47.8685 18.0533 49.7227 20.3066 49.7227Z" fill="white" stroke="#6438EB" stroke-width="1.5" stroke-miterlimit="10"/>
<path d="M24.539 36.9955C25.6219 36.9955 26.4998 36.1044 26.4998 35.0052C26.4998 33.906 25.6219 33.0149 24.539 33.0149C23.456 33.0149 22.5781 33.906 22.5781 35.0052C22.5781 36.1044 23.456 36.9955 24.539 36.9955Z" fill="white" stroke="#6438EB" stroke-width="1.5" stroke-miterlimit="10"/>
<defs>
<clipPath id="clip0_10765_14740">
<rect width="23" height="64" fill="white" transform="translate(34 3)"/>
</clipPath>
</defs>
</svg>
