<svg width="29" height="16" viewBox="0 0 29 16" fill="none" xmlns="http://www.w3.org/2000/svg">
<path d="M4.54416 7.18269C5.05887 6.60577 5.05887 5.45192 6.08831 4.875L8.14719 6.02885C9.17662 6.60577 9.17662 8.91346 8.6619 10.6442C8.14719 12.375 6.60303 12.375 5.57359 12.375C4.75004 12.375 3.51472 10.8365 3 10.0673C3.34315 9.29808 4.13238 7.64423 4.54416 7.18269Z" fill="#FFDC52"/>
<path fill-rule="evenodd" clip-rule="evenodd" d="M8.25093 4.10463C9.04519 4.59754 9.68026 5.33942 10.0711 6.2309C10.4619 7.12238 10.5898 8.12087 10.4377 9.09262C10.2855 10.0644 9.86055 10.963 9.21974 11.668C8.57893 12.3731 7.75287 12.8509 6.85221 13.0375C5.95156 13.2241 5.01932 13.1106 4.1804 12.7122C3.34148 12.3137 2.63593 11.6494 2.15828 10.8081C1.68063 9.96685 1.45369 8.98888 1.50786 8.0052C1.56202 7.02152 1.89472 6.07912 2.46136 5.30423C2.59122 5.12674 2.84065 5.15368 2.97115 5.33117C3.15029 5.57518 3.35236 5.7948 3.57736 5.99001C3.79079 6.17579 4.08265 5.95617 4.07429 5.66128L4.07236 5.52868C4.07236 4.89401 4.20479 4.29317 4.442 3.75587C4.78526 2.97998 5.34348 2.33711 6.04015 1.91538C6.19893 1.8187 6.39372 1.90433 6.47536 2.07975C6.86881 2.92773 7.48647 3.63211 8.25093 4.10463ZM8.57236 8.98176C8.57236 9.71441 8.30144 10.4171 7.8192 10.9351C7.33697 11.4532 6.68292 11.7442 6.00093 11.7442C4.77115 11.7442 3.73808 10.7787 3.48736 9.54668C3.42758 9.25041 3.77022 9.10262 4.01065 9.26146C4.32383 9.4689 4.6748 9.60173 5.03986 9.65097C5.23465 9.67721 5.38122 9.48522 5.36772 9.27527C5.29736 8.22998 5.59956 7.19505 6.21307 6.38021C6.24575 6.33674 6.28872 6.30353 6.33748 6.28408C6.38624 6.26464 6.43898 6.25967 6.49014 6.26971C7.07634 6.39175 7.60472 6.72914 7.98465 7.22399C8.36458 7.71884 8.57237 8.3403 8.57236 8.98176Z" fill="#F53823"/>
<path d="M19.5498 12.4092L19.4707 12.6104H16.4922L16.4121 12.4082L12 1.32227H15.4805L15.5596 1.52734L18.0801 7.99414L21 0H25L19.5498 12.4092Z" fill="#F54734"/>
<path d="M19.5498 12.4092L19.4707 12.6104H16.4922L16.4121 12.4082L12 1.32227H15.4805L15.5596 1.52734L18.0801 7.99414L21 0H25L19.5498 12.4092Z" stroke="white"/>
<path d="M24.7324 4.51465C25.2006 4.54383 25.6576 4.61651 26.1025 4.73242L26.1016 4.7334C26.7069 4.88017 27.2587 5.10315 27.7461 5.41309L27.9414 5.53711L28.2842 5.75488L28.1416 6.13477L27.3809 8.16016L27.2695 8.45898L27.0654 9.00586L26.5566 8.7207L26.2842 8.56738C25.5396 8.14992 24.8593 7.96388 24.2344 7.96387C23.9522 7.96387 23.7713 7.9948 23.6611 8.02637C23.8794 8.10557 24.2025 8.19809 24.6484 8.2998H24.6494C25.3304 8.45169 25.9164 8.62251 26.3994 8.81445H26.3984C26.9601 9.02488 27.4453 9.36334 27.8408 9.82324V9.82422C28.3083 10.3683 28.5 11.0647 28.5 11.8203L28.4912 12.0752C28.4505 12.6654 28.2679 13.2176 27.9434 13.7178L27.917 13.7578L27.9072 13.7676C27.5249 14.3244 26.981 14.7434 26.3223 15.042C25.7119 15.3185 25.0163 15.4617 24.2529 15.4932L23.9219 15.5C23.1671 15.5 22.4284 15.4 21.709 15.1992V15.1982H21.707L21.7002 15.1963C20.9896 14.9884 20.3708 14.7069 19.875 14.3311L19.874 14.3301L19.6973 14.1953L19.3887 13.9609L19.5391 13.6045L19.626 13.3965L20.5127 11.2949L20.75 10.7314L21.2559 11.0762L21.5264 11.2617H21.5273C21.8505 11.4836 22.2288 11.6738 22.668 11.8262C23.1118 11.9687 23.5383 12.0371 23.9473 12.0371C24.1622 12.0371 24.323 12.0205 24.4404 12.001C24.2302 11.9268 23.9359 11.8415 23.543 11.752L23.5293 11.748L23.5254 11.7471V11.7461C22.834 11.578 22.249 11.406 21.7822 11.2256L21.7705 11.2217L21.7598 11.2168L21.7529 11.2139V11.2129C21.2235 10.9907 20.7642 10.6501 20.3799 10.2031L20.3574 10.1768L20.3389 10.1475C19.905 9.60559 19.7208 8.92984 19.7207 8.19434C19.7208 7.50668 19.8987 6.86554 20.2588 6.29297L20.2676 6.2793L20.2773 6.26562C20.6576 5.68787 21.2028 5.25863 21.8682 4.96094C22.5595 4.64285 23.3661 4.50007 24.2598 4.5L24.7324 4.51465Z" fill="#F54734" stroke="white"/>
</svg>
