<svg width="20" height="20" viewBox="0 0 20 20" fill="none" xmlns="http://www.w3.org/2000/svg">
<path d="M17.5 10C17.5 9.72386 17.2761 9.5 17 9.5C16.7239 9.5 16.5 9.72386 16.5 10H17.5ZM17 15.4444H17.5H17ZM3 15.4444H2.5H3ZM13.1111 3.5C13.3873 3.5 13.6111 3.27614 13.6111 3C13.6111 2.72386 13.3873 2.5 13.1111 2.5V3.5ZM2.5 10C2.5 10.2761 2.72386 10.5 3 10.5C3.27614 10.5 3.5 10.2761 3.5 10L2.5 10ZM15.4444 3V2.5V3ZM17 4.55556H16.5H16.5H17ZM6.88889 16.5C6.61275 16.5 6.38889 16.7239 6.38889 17C6.38889 17.2761 6.61275 17.5 6.88889 17.5L6.88889 16.5ZM16.5 10V15.4444H17.5V10H16.5ZM16.5 15.4444C16.5 15.7244 16.3888 15.9929 16.1908 16.1908L16.8979 16.8979C17.2834 16.5125 17.5 15.9896 17.5 15.4444H16.5ZM16.1908 16.1908C15.9929 16.3888 15.7244 16.5 15.4444 16.5V17.5C15.9896 17.5 16.5125 17.2834 16.8979 16.8979L16.1908 16.1908ZM15.4444 16.5H4.55556V17.5H15.4444V16.5ZM4.55556 16.5C4.27561 16.5 4.00712 16.3888 3.80917 16.1908L3.10206 16.8979C3.48755 17.2834 4.01039 17.5 4.55556 17.5V16.5ZM3.80917 16.1908C3.61121 15.9929 3.5 15.7244 3.5 15.4444H2.5C2.5 15.9896 2.71657 16.5125 3.10206 16.8979L3.80917 16.1908ZM3.5 15.4444V4.55556H2.5V15.4444H3.5ZM3.5 4.55556C3.5 4.27561 3.61121 4.00712 3.80917 3.80917L3.10206 3.10206C2.71657 3.48755 2.5 4.01039 2.5 4.55556H3.5ZM3.80917 3.80917C4.00712 3.61121 4.27561 3.5 4.55556 3.5V2.5C4.01039 2.5 3.48755 2.71657 3.10206 3.10206L3.80917 3.80917ZM4.55556 3.5H13.1111V2.5H4.55556V3.5ZM3.5 10L3.5 4.55556L2.5 4.55556L2.5 10L3.5 10ZM4.55556 3.5L15.4444 3.5V2.5L4.55556 2.5V3.5ZM15.4444 3.5C15.7244 3.5 15.9929 3.61121 16.1908 3.80917L16.8979 3.10206C16.5125 2.71657 15.9896 2.5 15.4444 2.5V3.5ZM16.1908 3.80917C16.3888 4.00712 16.5 4.2756 16.5 4.55556H17.5C17.5 4.01039 17.2834 3.48755 16.8979 3.10206L16.1908 3.80917ZM16.5 4.55556L16.5 15.4444H17.5L17.5 4.55556L16.5 4.55556ZM15.4444 16.5L6.88889 16.5L6.88889 17.5L15.4444 17.5V16.5Z" fill="#9394A4"/>
</svg>
