<?xml version="1.0" encoding="utf-8"?>
<!-- Generator: Adobe Illustrator 26.5.2, SVG Export Plug-In . SVG Version: 6.00 Build 0)  -->
<svg version="1.1" xmlns="http://www.w3.org/2000/svg" xmlns:xlink="http://www.w3.org/1999/xlink" x="0px" y="0px"
	 viewBox="0 0 57 57" style="enable-background:new 0 0 57 57;" xml:space="preserve">
<style type="text/css">
	.st0{display:none;}
	.st1{display:inline;}
	.st2{fill:none;stroke:#000000;stroke-width:1.8;stroke-miterlimit:10;}
	.st3{fill-rule:evenodd;clip-rule:evenodd;fill:none;stroke:#6438EB;stroke-width:1.8;stroke-miterlimit:22.9256;}
	.st4{opacity:0;fill:none;stroke:#000000;stroke-width:0.25;stroke-miterlimit:10;}
	.st5{fill:none;stroke:#6438EB;stroke-width:1.8;stroke-miterlimit:22.9256;}
	.st6{fill:none;stroke:#000000;stroke-width:1.8;stroke-miterlimit:22.9256;}
</style>
<g id="icon_x5F_5" class="st0">
	<g class="st1">
		<g>
			<path class="st2" d="M49.02,21.28L49.02,21.28c0-0.14,0.01-0.28,0.01-0.42c0-5.71-4.81-10.66-10.75-10.66
				c-4.34,0-8.08,2.8-9.78,6.36h0c-1.7-3.56-5.44-6.36-9.78-6.36c-5.94,0-10.75,4.95-10.75,10.66c0,0.14,0.01,0.28,0.01,0.42h0
				c0,0-0.61,6.78,6.94,14.18c3.43,3.44,7.27,6.7,13.58,11.84c6.32-5.13,10.15-8.4,13.58-11.84C49.63,28.07,49.02,21.28,49.02,21.28
				z"/>
			<g>
				<path class="st3" d="M41.62,26.59c2.05-1.39,2.73-4.08,1.88-6.5c-0.4-1.14-1.03-2.08-1.84-3.04"/>
			</g>
		</g>
		<circle class="st4" cx="28.5" cy="28.5" r="28.5"/>
	</g>
</g>
<g id="icon_x5F_4" class="st0">
	<g class="st1">
		<circle class="st4" cx="28.5" cy="28.5" r="28.5"/>
		<g>
			<polygon class="st5" points="31.54,24.91 26.06,21.18 20.59,24.91 20.59,9.08 31.54,9.08 			"/>
			<path class="st2" d="M43.13,47.31H13.87c-0.19,0-0.35-0.16-0.35-0.35V9.42c0-0.19,0.16-0.35,0.35-0.35h29.26
				c0.19,0,0.35,0.16,0.35,0.35v37.54C43.48,47.15,43.32,47.31,43.13,47.31z"/>
			<line class="st2" x1="19.27" y1="33.62" x2="37.73" y2="33.62"/>
			<line class="st2" x1="19.27" y1="39.43" x2="37.73" y2="39.43"/>
		</g>
	</g>
</g>
<g id="icon_x5F_3" class="st0">
	<g class="st1">
		<circle class="st4" cx="28.5" cy="28.5" r="28.5"/>
		<polyline class="st2" points="19.93,11.36 37.07,28.5 19.93,45.64 		"/>
	</g>
</g>
<g id="icon_x5F_2" class="st0">
	<g class="st1">
		<circle class="st4" cx="28.5" cy="28.5" r="28.5"/>
		<polyline class="st2" points="37.07,11.36 19.93,28.5 37.07,45.64 		"/>
	</g>
</g>
<g id="icon_x5F_1-2" class="st0">
	<g class="st1">
		<g>
			<path d="M18.42,18.38c0.1-0.02,0.2-0.05,0.29-0.11c0.11-0.08,0.19-0.19,0.28-0.29c0.16-0.17,0.31-0.18,0.53-0.15
				c0.27,0.03,0.59,0.15,0.59,0.15s-0.2-0.3-0.45-0.45c-0.17-0.1-0.37-0.17-0.48-0.2c-0.06-0.02-0.12-0.03-0.18-0.03h-0.99
				c-0.2,0-0.38,0.12-0.47,0.3l-0.08,0.17l-1.76,1.8c0.33-0.16,0.66-0.32,0.99-0.48c0.51-0.25,1-0.54,1.57-0.66
				C18.31,18.4,18.37,18.39,18.42,18.38z"/>
			<path d="M45.91,26c-0.68-3.61-3.76-6.09-3.76-6.09s0.73-0.05,1.83,0.22c1.1,0.27,1.5,0.47,1.5,0.47
				c-0.03-0.02-0.07-0.41-0.08-0.46c-0.09-0.4-0.22-0.79-0.39-1.16c-0.45-0.98-1.18-1.8-2.05-2.45c-0.78-0.58-1.77-1.11-2.75-1.23
				c0,0,0.67-0.43,1.93-0.31c1.26,0.12,1.98,0.34,1.98,0.34c-0.06-0.02-0.16-0.2-0.19-0.24c-0.18-0.22-0.38-0.43-0.58-0.64
				c-0.7-0.69-1.48-1.26-2.32-1.77c-1.87-1.12-4.13-1.57-6.29-1.72c-0.3-0.02-0.61-0.04-0.92-0.04c-0.04,0-0.29-0.03-0.32,0
				c0,0,0.43-0.5,2.15-0.83c1.69-0.32,2.68-0.32,2.68-0.32s-1.83-1.34-4.79-1.48c-2.66-0.13-4.76,0.93-4.77,0.93
				c0.1-0.05,0.18-0.38,0.23-0.48c0.13-0.28,0.25-0.57,0.34-0.87c0.19-0.65,0.17-1.48-0.41-1.94c0.03,0.03-0.29,0.5-0.31,0.53
				c-0.2,0.26-0.44,0.5-0.69,0.71c-0.72,0.59-1.56,1.1-2.4,1.49c-1.06,0.49-2.16,0.88-3.25,1.34c-0.98,0.41-2.02,0.77-2.89,1.38
				c-0.39,0.27-0.74,0.63-0.87,1.09c-0.17,0.59,0.04,1.21,0.26,1.79c-1.07,0.64-2.14,1.27-3.21,1.91l-0.01,1.16
				c0,0-4.35,2.82-4.37,2.83c-0.46,0.3-0.34,0.89-0.18,1.32c0.16,0.42,0.28,0.77,0.28,1.22c-0.01,0.45,0.05,0.91,0.27,1.31
				c0.61,1.09,1.64,1.32,1.64,1.32c-0.05-0.01-0.09,0.66-0.09,0.7c0,0.41,0.11,0.79,0.29,1.15c0.5,0.98,1.55,1.72,2.66,1.81
				c0,0,0.61-0.47,0.79-0.69c0.16-0.19,0.32-0.38,0.47-0.57c0.02-0.03,0.04-0.05,0.07-0.07c0.04-0.03,0.09-0.04,0.13-0.06
				c0.29-0.09,0.57-0.17,0.86-0.26c0.12,0.43-0.37,0.84-0.61,1.14c-0.62,0.8-1.17,1.63-1.41,2.63c-0.33,1.42-0.06,3.03,0.63,4.31
				c0,0,0.23-1.67,0.93-2.17c0.84-0.59,1.45-0.4,1.45-0.4c-0.1-0.03-0.5,1.33-0.51,1.41c-0.29,1.15-0.35,2.35-0.28,3.53
				c0.08,1.5,0.34,3.06,0.88,4.46c-0.03-0.07,0.05-0.26,0.06-0.32c0.05-0.28,0.12-0.57,0.19-0.85c0.17-0.67,0.37-1.35,0.66-1.98
				c0.56-1.21,1.66-2.18,2.89-2.67c-0.11,0.04-0.25,0.67-0.29,0.8c-0.09,0.28-0.17,0.56-0.24,0.85c-0.14,0.57-0.24,1.15-0.31,1.73
				c-0.12,1.15-0.09,2.32,0.11,3.46c0.11,0.63,0.27,1.26,0.47,1.87c0.34,1.04,0.8,2.13,1.44,3.03c0.1,0.14,0.21,0.28,0.34,0.4
				c0.07-0.3,0.03-0.64,0.05-0.95c0.02-0.34,0.06-0.67,0.11-1c0.19-1.11,0.67-2.11,1.49-2.9c0,0,0.09,2.44,0.85,4.04
				c1.17,2.48,3.6,3.24,3.61,3.24c-0.09-0.03,0.04-1.17,0.05-1.29c0.05-0.49,0.14-0.98,0.27-1.45c0.32-1.21,0.9-2.3,1.64-3.3
				c1.41-1.91,3.05-3.6,4.13-5.74c0.06-0.12,0.11-0.23,0.17-0.35c0.16-0.34,0.27-0.69,0.39-1.05c0.06,0.31-0.07,0.74-0.11,1.06
				c-0.04,0.37-0.09,0.73-0.13,1.1c-0.09,0.74-0.28,1.55-0.24,2.29c0.03,0.49,0.05,0.97,0.13,1.45c0,0,0.7-1.35,1.26-2.25
				c0.55-0.91,1.55-2.36,2.02-3.74c0.73-2.17,0.77-4.97,0.77-5c0,0.1,0.11,0.27,0.14,0.37c0.06,0.19,0.11,0.38,0.16,0.57
				c0.09,0.38,0.14,0.76,0.17,1.14c0.08,0.95,0.06,1.92,0.02,2.86c0,0,1.89-2.13,2.2-4.8c0.29-2.45-0.37-5.26-0.37-5.26
				s1.06,0.81,1.49,1.75c0.49,1.07,0.67,2.15,0.67,2.15S46.46,28.91,45.91,26z M29.98,9.57c2.57-0.7,4.02-0.2,4.02-0.2
				s-1.1,0.35-2.25,0.9c-1.16,0.55-1.86,1.34-1.86,1.34s0.7-0.29,4.71,0.17c4.01,0.46,6.45,1.97,6.45,1.97
				c-0.17-0.11-0.42-0.15-0.6-0.21c-0.57-0.19-1.15-0.34-1.73-0.49c-2-0.48-4.05-0.73-6.1-0.82c-1.24-0.05-2.49,0-3.73,0.16
				c-0.79,0.1-1.62,0.23-2.35,0.54c-0.01,0-0.01,0-0.02,0.01c0,0,0.2-0.39,0.8-1.01c0.6-0.62,1.67-1.18,1.67-1.18
				s-0.63,0.13-1.67,0.36c-0.95,0.21-1.86,0.61-2.77,0.97C26.08,10.81,28.06,10.09,29.98,9.57z M34.77,18.2
				c2.48,1.02,3.23,2.47,3.23,2.47s-1.34-1.07-2.74-1.58c-1.41-0.51-2.95-0.73-4.1-0.81c-0.9-0.07-1.82-0.04-2.72,0.02
				c0.48-0.2,0.95-0.39,1.43-0.59c-0.51-0.06-1.02-0.12-1.53-0.19c0.56-0.19,1.12-0.37,1.68-0.56c-0.58-0.05-1.17-0.11-1.75-0.16
				c-0.05,0-0.11-0.01-0.15-0.05c-0.06-0.05-0.04-0.54-0.05-0.54c1.89-0.17,3.79-0.2,5.69-0.09c-1.07,0.29-2.12,0.69-3.11,1.2
				C32.05,17.22,33.49,17.67,34.77,18.2z M26.41,14.77l-0.54,1.38l-0.2-0.14c0,0-0.13-0.16-0.13-0.35
				c-0.01-0.18,0.23-0.74,0.23-0.74s-0.35,0.35-0.48,0.53c-0.13,0.18-0.11,0.4-0.06,0.53c0.05,0.13,0.59,0.66,0.59,0.66
				s0.04,0.69-0.05,0.7c-0.09,0.01-0.08-0.1-0.15-0.22c-0.07-0.12-0.4-0.55-0.75-0.85c-0.35-0.3-0.62-0.37-0.71-0.54
				c-0.09-0.16-0.09-0.38-0.05-0.51c0.05-0.13,0.15-0.29,0.67-0.85c0.52-0.56,1.27-0.76,1.62-0.66c0.35,0.1,0.7,0.44,0.84,1.06
				c0.14,0.61,0.45,2.46,0.28,3.4c-0.17,0.95-1.19,1.57-1.19,1.57s-0.3-1.45-0.2-1.91C26.43,16.52,26.41,14.77,26.41,14.77z
				 M20.17,11.6c0.92-0.57,1.76-0.96,3.86-1.7c2.1-0.74,3.44-1.87,3.44-1.87s-0.42,0.94-1.45,1.65c-0.74,0.5-1.52,0.92-2.34,1.27
				c-0.82,0.35-1.83,0.65-2.51,1.25c-0.37,0.32-0.32,0.85-0.32,0.85l-0.66,0.37c0,0-0.02-0.25-0.01-0.48
				c0.03-0.39,0.37-0.95,0.37-0.95c-0.13,0.22-0.38,0.35-0.51,0.59c-0.09,0.17-0.15,0.35-0.18,0.54c-0.02,0.15,0.04,0.4-0.05,0.5
				c-0.11,0.13-0.38,0.22-0.53,0.3C19.28,13.93,18.4,12.7,20.17,11.6z M11.84,20.29l4.47-2.79l0.01-1.12l5.73-3.46l0.76,0.3
				l-1.55,1.39l1.44-0.33l-1.19,2.07c0,0,0.38,0.16,1.23,0.98c0.85,0.82,1.12,1.65,1.12,1.65l0.88,0.09l-0.78,0.31
				c0,0,0.05,0.33-0.01,0.96c-0.06,0.63-0.41,1.01-0.41,1.01s-0.66-0.42-2.28-0.7c-1.93-0.34-3.34,0.1-3.34,0.1s0.77-0.04,2.22,0.64
				c0.65,0.3,1.24,0.82,1.29,1.58c-0.01-0.12-0.68-0.42-0.79-0.48c-0.28-0.15-0.58-0.27-0.88-0.37c-0.56-0.19-1.25-0.38-1.85-0.33
				c0.36,0.21,0.74,0.42,1.04,0.71c0.33,0.32,0.37,0.49,0.32,0.8c-0.05,0.31-0.3,0.51-1.19,1.15c-0.99,0.71-1.97,0.73-3.08,0.53
				c-1.12-0.2-1.63-0.7-1.87-1.28c-0.24-0.58-0.11-1.7-0.11-1.7h0.58c0,0,0.1,0.06,0.46-0.09c0.43-0.18,0.46-0.5,0.46-0.5
				l-0.24,0.18c-0.28,0.18-0.63,0.16-0.91-0.01l-0.2-0.12c-0.1-0.06-0.23-0.05-0.32,0.02l-0.22,0.21c-0.12,0.12-0.31,0.09-0.4-0.05
				c-0.14-0.22-0.33-0.54-0.4-0.74C11.72,20.56,11.84,20.29,11.84,20.29z M12.31,24.3c-0.46-0.52-0.58-0.88-0.6-1.46
				c-0.02-0.56,0.13-0.67,0.22-0.69c0.09-0.02,0.16,0.1,0.22,0.11c0.07,0.01,0.46-0.06,0.46-0.06s-0.04,0.72,0.16,1.35
				c0.2,0.63,0.78,1.28,0.78,1.28S12.77,24.82,12.31,24.3z M18.17,26.97c-0.75,0.3-0.98,0.25-0.98,0.25s-0.34,0.42-0.55,0.65
				c-0.1,0.1-0.25,0.24-0.38,0.35c-0.02-0.08-0.04-0.18-0.04-0.29c-0.01-0.24,0-0.62,0-0.62s-0.21,0.4-0.25,0.68
				c-0.02,0.17-0.01,0.35,0.01,0.47c0,0,0,0,0,0s-0.07,0.01-0.2-0.01c-0.1-0.08-0.23-0.2-0.33-0.35c-0.2-0.28-0.28-0.59-0.28-0.59
				s-0.06,0.27-0.06,0.44c0,0.09,0.02,0.21,0.03,0.3c-0.3-0.15-0.64-0.4-0.99-0.82c-0.93-1.11-0.51-1.85-0.43-1.98
				c0.08-0.12,0.72-0.32,0.72-0.32s0.38,0.64,1.66,0.92c1.83,0.41,3.05-0.05,3.05-0.05S18.92,26.67,18.17,26.97z M17.86,31.98
				c-0.8,1-0.96,2.14-0.96,2.14c0.02-0.13-0.07-0.34-0.09-0.48c-0.05-0.39-0.06-0.77-0.02-1.16c0.09-0.89,0.33-1.66,0.82-2.41
				c0.73-1.11,1.79-1.91,2.65-2.91c0.55-0.64,1.01-1.38,1.15-2.2c0.06,0.34,0.02,0.68-0.07,1.01c-0.09,0.32-0.3,0.63-0.37,0.95
				c0.22-0.12,0.43-0.35,0.61-0.52c0.36-0.34,0.7-0.7,1.02-1.08c0.81-0.98,1.18-1.89,1.18-1.89s0.39,2.59-2.34,5.23
				C19.18,30.84,18.86,30.71,17.86,31.98z M22.16,34.59c-1.07,1.21-1.94,2.58-2.46,4.12c-0.14,0.4-0.26,0.81-0.33,1.23
				c0,0-0.73-4.69,2.64-8.79c2.98-3.63,3.14-5.8,3.14-5.8s0.02,1.47-0.48,3.01c-0.63,1.95-2.41,4.29-2.41,4.29s3.52-2.72,4.12-6.21
				c0.44-2.59-1.35-5.41-1.35-5.41c0.11,0.18,0.38,0.33,0.54,0.48c0.32,0.3,0.65,0.62,0.92,0.96c1.32,1.63,1.32,4.03,0.73,5.95
				c-0.07,0.21-0.14,0.42-0.22,0.63c-0.79,2-2.56,3.27-4.05,4.72C22.68,34.03,22.41,34.31,22.16,34.59z M26.1,41.37
				c-0.81,1.32-1.45,2.74-1.66,4.3c-0.06,0.47-0.11,0.97-0.05,1.45c0,0-1.43-2.81-1.11-6.21c0.09-0.98,0.22-1.96,0.49-2.91
				c0.29-0.99,0.81-1.91,1.37-2.78c1.08-1.69,2.36-3.21,3.15-5.08c0.01-0.03,0.03-0.06,0.04-0.09c0.75-1.81,0.89-3.78,0.89-3.78
				c-0.01,0.11,0.05,0.26,0.07,0.37c0.05,0.34,0.08,0.69,0.09,1.04c0.03,1.1-0.15,2.18-0.47,3.23c-0.48,1.6-1.14,3.14-1.96,4.59
				c1.18-0.79,2.32-1.79,3.06-3.02c1.09-1.83,1.29-2.88,1.29-2.88s0.37,3.24-1.57,6.44c-0.77,1.27-1.6,2.47-2.49,3.66
				C26.83,40.24,26.45,40.8,26.1,41.37z M33.8,41.78c0.06-0.1,0.09-0.22,0.11-0.34c0.4-1.8,0.74-3.68,0.61-5.53
				c-0.03-0.47-0.08-0.94-0.19-1.39c0,0-0.06,1.53-2.35,5.23c-0.85,1.37-1.76,2.81-2.26,4.36c-0.59,1.81-0.61,3.8,0.16,5.56
				c-1.05-1.04-1.54-2.55-1.61-4.03c-0.12-2.47,0.7-4.87,1.55-7.14c0.21-0.56,0.42-1.13,0.62-1.7c1.6-4.54,1.37-6.24,1.26-7.3
				c-0.11-1.06-0.81-2.52-0.81-2.52s0.97,0.63,1.8,1.86c0.79,1.18,1.09,2.57,1.09,2.57c-0.05-0.23-0.04-0.48-0.07-0.71
				c-0.07-0.53-0.17-1.07-0.31-1.59c-0.52-1.93-1.57-3.72-2.73-5.33c-0.02-0.03-0.04-0.06-0.07-0.09c0.14,0.19,0.46,0.35,0.65,0.5
				c1.5,1.23,2.89,2.69,3.86,4.38c0.96,1.68,1.34,3.53,1.38,5.45c0.04,2.22-0.44,4.59-1.64,6.49C34.57,40.97,34.22,41.43,33.8,41.78
				z M42.6,34.77c0,0,0.31-2.23-1.19-5.15c-1.5-2.93-2.97-4.23-2.97-4.23c0.13,0.11,0.19,0.53,0.25,0.68
				c0.18,0.52,0.35,1.04,0.51,1.57c0.37,1.16,0.61,2.35,0.74,3.56c0.22,2.05,0.03,4.06-0.41,6.07c-0.06,0.26-0.12,0.53-0.18,0.79
				c-0.32,1.33-1.04,2.54-1.65,3.75c0.12-0.24,0.15-0.6,0.21-0.87c0.07-0.3,0.13-0.61,0.19-0.91c0.12-0.61,0.21-1.22,0.29-1.84
				c0.15-1.21,0.23-2.43,0.16-3.65c-0.12-2.12-0.79-4.16-1.82-6.01c-0.21-0.37-0.43-0.74-0.66-1.1c-1.01-1.58-2.96-3.15-4.47-4.22
				c-1.51-1.07-5.32-2.55-5.32-2.55s3.03,0.16,6.02,1.45c2.99,1.29,4.63,3.07,4.63,3.07s-0.53-1.56-2.32-3.1
				c-1.79-1.54-2.38-1.8-2.38-1.8S35.2,21,37.27,22.5c1.64,1.19,3.02,2.76,3.97,4.55c-0.05-0.95-0.17-1.89-0.36-2.82
				c0.02,0.09,0.16,0.22,0.22,0.3c0.08,0.12,0.16,0.24,0.24,0.37c0.15,0.24,0.29,0.48,0.42,0.74c0.25,0.5,0.47,1.01,0.65,1.54
				c0.38,1.13,0.61,2.33,0.7,3.52c0.09,1.32,0.04,2.7-0.46,3.95C42.63,34.68,42.6,34.73,42.6,34.77z M40.94,20.62
				c-1.27-1.3-2.7-2.45-4.26-3.38c-0.16-0.09-0.32-0.19-0.48-0.27c0,0,0.73-0.07,1.63-0.05c0.9,0.03,1.58,0.13,1.58,0.13
				s-1.19-1.15-4.26-1.93c-3.07-0.77-4.81-0.97-4.81-0.97s3.55-0.4,7.69,0.99c5.58,1.87,6.35,4.27,6.35,4.27s-0.97-0.37-2.23-0.53
				c-1.26-0.16-2.1-0.06-2.1-0.06s1.49,1.12,2.84,2.93c1.01,1.36,1.74,2.96,2.22,4.59c-0.07-0.24-0.26-0.48-0.38-0.7
				c-0.14-0.24-0.28-0.48-0.42-0.71c-0.29-0.47-0.59-0.93-0.91-1.38c-0.64-0.9-1.34-1.76-2.09-2.56
				C41.17,20.85,41.05,20.73,40.94,20.62z"/>
		</g>
		<circle class="st4" cx="28.5" cy="28.5" r="28.5"/>
	</g>
</g>
<g id="icon_x5F_1-1">
	<g>
		<circle class="st4" cx="28.5" cy="28.5" r="28.5"/>
		<path class="st6" d="M28.5,28.5"/>
		<g>
			<polyline class="st6" points="13.08,26.01 13.08,47.31 42.98,47.31 42.98,26.01 			"/>
			<polyline class="st6" points="6.98,23.79 28.09,9.69 50.02,23.79 			"/>
			<line class="st5" x1="21.67" y1="34.63" x2="34.05" y2="34.63"/>
		</g>
	</g>
</g>
</svg>
