<svg id="Layer_1" data-name="Layer 1" xmlns="http://www.w3.org/2000/svg" viewBox="0 0 52 26"><defs><style>.cls-1{fill:none;stroke:#7f59e9;stroke-linejoin:round;stroke-width:2px;}.cls-2{fill:#7f59e9;}</style></defs><rect class="cls-1" x="1" y="1" width="50" height="24" rx="3"/><path class="cls-2" d="M2991.46,4421.66h4c2.38,0,3.5,1.34,3.49,3a2.28,2.28,0,0,1-1.84,2.38v.11a2.64,2.64,0,0,1,2.29,2.82c0,1.7-1.12,3-3.79,3h-4.11Zm3.92,4.95a2,2,0,0,0,2.19-1.93c0-1-.67-1.77-2.15-1.77h-2.56v3.7Zm.17,5.11c1.77,0,2.46-.78,2.45-1.76a2.18,2.18,0,0,0-2.37-2.13h-2.77v3.89Z" transform="translate(-2983.02 -4414.22)"/><path class="cls-2" d="M3001.36,4421.66h6.86v1.25h-5.45v3.78h5.09v1.24h-5.09v3.79h5.53V4433h-6.94Z" transform="translate(-2983.02 -4414.22)"/><path class="cls-2" d="M3014.11,4422.75c-1.5,0-2.47.79-2.48,1.86s1.33,1.64,2.19,1.85l1.12.31c1.21.31,3.2,1,3.2,3.13,0,1.84-1.48,3.27-4.11,3.28-2.43,0-3.94-1.27-4.07-3.14h1.43c.12,1.26,1.3,1.86,2.64,1.86,1.57,0,2.74-.8,2.74-2s-1.05-1.52-2.24-1.86l-1.39-.37c-1.77-.52-2.88-1.42-2.87-2.95,0-1.92,1.69-3.18,3.89-3.18s3.77,1.29,3.83,3h-1.38C3016.49,4423.4,3015.46,4422.75,3014.11,4422.75Z" transform="translate(-2983.02 -4414.22)"/><path class="cls-2" d="M3019.13,4421.66h8.53v1.25h-3.54V4433h-1.42v-10.06h-3.57Z" transform="translate(-2983.02 -4414.22)"/></svg>