<?xml version="1.0" encoding="UTF-8"?>
<svg id="Layer_1" data-name="Layer 1" xmlns="http://www.w3.org/2000/svg" viewBox="0 0 70.25 70.25">
  <defs>
    <style>
      .cls-1, .cls-2 {
        stroke-miterlimit: 22.93;
      }

      .cls-1, .cls-2, .cls-3, .cls-4 {
        fill-rule: evenodd;
      }

      .cls-1, .cls-2, .cls-5, .cls-4 {
        stroke: #000;
      }

      .cls-1, .cls-2, .cls-5, .cls-4, .cls-6 {
        stroke-width: 1.5px;
      }

      .cls-1, .cls-5, .cls-6 {
        fill: #fff;
      }

      .cls-2, .cls-7, .cls-3, .cls-4 {
        fill: none;
      }

      .cls-5, .cls-6 {
        stroke-miterlimit: 10;
      }

      .cls-4 {
        stroke-linejoin: round;
      }

      .cls-8 {
        fill: #6438eb;
      }

      .cls-6 {
        stroke: #6438eb;
      }
    </style>
  </defs>
  <g>
    <circle class="cls-7" cx="35.12" cy="35.13" r="35"/>
    <g>
      <polyline class="cls-5" points="16.37 63.42 16.37 49.6 53.65 49.6 53.65 63.42"/>
      <g>
        <path class="cls-1" d="M13.05,34.61c-3.49-.08-3.89,3.75-2.77,7.56,1.12,3.81,3.75,7.59,6.34,7.4.06,0,.12,0,.17.04.05.03.09.07.11.13.58,1.44,1.24,2.82,1.97,4.11.73,1.29,1.54,2.5,2.4,3.61,1.92,2.46,4.03,4.46,6.33,5.84,2.31,1.38,4.81,2.14,7.53,2.14h0c2.72,0,5.23-.76,7.53-2.14,2.31-1.38,4.41-3.37,6.33-5.84.87-1.11,1.67-2.32,2.4-3.61.73-1.29,1.39-2.67,1.97-4.11.02-.06.06-.1.11-.13.05-.03.11-.04.17-.04,2.58.19,5.22-3.59,6.34-7.4,1.12-3.81.72-7.64-2.77-7.56h0c.97-6.01,1.09-12.69-1.8-19.12-3.58-7.95-11.81-11.91-20.28-11.91s-16.7,3.96-20.28,11.91c-2.9,6.43-2.77,13.11-1.8,19.12Z"/>
        <path class="cls-1" d="M20.47,33.63c3.6-.67,7.1.01,9.92,1.67"/>
        <path class="cls-1" d="M49.77,33.63c-3.6-.67-7.1.01-9.92,1.67"/>
        <path class="cls-1" d="M19.66,40.47c2.62,2.07,7.22,2.69,10.37-1.2"/>
        <path class="cls-1" d="M50.59,40.47c-2.62,2.07-7.22,2.69-10.37-1.2"/>
        <path class="cls-2" d="M31.74,51.13c1.39-.29,2.27,1.16,3.39,1.16s2-1.45,3.39-1.16"/>
        <g>
          <path class="cls-2" d="M41.25,54.74c-2.33.59-4.07,1.5-6.21,1.5s-3.88-.91-6.21-1.5"/>
          <path class="cls-3" d="M28.79,55.04c1.62,2.95,3.93,4.42,6.25,4.42s4.63-1.47,6.25-4.42"/>
        </g>
      </g>
      <path class="cls-4" d="M13.05,34.61c.6,4.46,2.86,10.15,2.86,10.15-.85-5.23-.95-11.05,1.57-16.65,2.33-5.19,6.93-8.44,12.2-9.73"/>
      <path class="cls-4" d="M57.21,34.61c-.6,4.46-2.86,10.15-2.86,10.15.85-5.23.95-11.05-1.57-16.65-2.91-6.46-9.35-9.9-16.19-10.32"/>
    </g>
  </g>
  <polyline class="cls-4" points="33.06 17.86 37.19 15.48 33.06 13.1 37.19 10.71 33.06 8.33 37.19 5.95 33.06 3.57"/>
  <g>
    <circle class="cls-6" cx="35.12" cy="20.09" r="11.85"/>
    <g>
      <rect class="cls-8" x="33.27" y="13.59" width="3.71" height="13"/>
      <rect class="cls-8" x="28.62" y="18.23" width="13" height="3.71"/>
    </g>
  </g>
</svg>