<?xml version="1.0" encoding="utf-8"?>
<!-- Generator: Adobe Illustrator 24.2.3, SVG Export Plug-In . SVG Version: 6.00 Build 0)  -->
<svg version="1.1" id="Layer_1" xmlns="http://www.w3.org/2000/svg" xmlns:xlink="http://www.w3.org/1999/xlink" x="0px" y="0px"
	 viewBox="0 0 152 45" style="enable-background:new 0 0 152 45;" xml:space="preserve">
<style type="text/css">
	.st0{fill:#FFFFFF;}
	.st1{fill:#020203;}
</style>
<g>
	<path class="st0" d="M146.37,45H5.63C2.53,45,0,42.47,0,39.37V5.63C0,2.53,2.53,0,5.63,0h140.74c3.1,0,5.63,2.53,5.63,5.63v33.75
		C152,42.47,149.47,45,146.37,45"/>
	<g>
		<g>
			<g>
				<g>
					<path class="st1" d="M34,22.47c-0.03-3.63,2.97-5.39,3.11-5.47c-1.7-2.48-4.34-2.82-5.26-2.84c-2.21-0.23-4.36,1.32-5.49,1.32
						c-1.15,0-2.89-1.3-4.75-1.26c-2.41,0.04-4.66,1.43-5.9,3.59c-2.55,4.41-0.65,10.9,1.8,14.47c1.22,1.75,2.65,3.7,4.52,3.63
						c1.83-0.08,2.51-1.17,4.72-1.17c2.18,0,2.83,1.17,4.73,1.12c1.96-0.03,3.2-1.75,4.38-3.52c1.41-2,1.98-3.97,2-4.08
						C37.8,28.26,34.04,26.82,34,22.47z"/>
					<path class="st1" d="M30.4,11.81c0.98-1.23,1.65-2.9,1.47-4.6c-1.42,0.06-3.2,0.98-4.23,2.19c-0.91,1.06-1.72,2.8-1.51,4.43
						C27.73,13.95,29.37,13.02,30.4,11.81z"/>
				</g>
			</g>
			<g>
				<path class="st1" d="M60.46,35.66H57.9l-1.4-4.4h-4.87l-1.33,4.4h-2.49l4.82-14.97h2.98L60.46,35.66z M56.08,29.42l-1.27-3.91
					c-0.13-0.4-0.39-1.34-0.76-2.82h-0.04c-0.15,0.64-0.38,1.58-0.71,2.82l-1.24,3.91H56.08z"/>
				<path class="st1" d="M72.85,30.13c0,1.84-0.5,3.29-1.49,4.35c-0.89,0.95-1.99,1.42-3.31,1.42c-1.42,0-2.44-0.51-3.07-1.53h-0.05
					v5.69h-2.4V28.42c0-1.16-0.03-2.34-0.09-3.55h2.11l0.13,1.71h0.05c0.8-1.29,2.01-1.93,3.64-1.93c1.27,0,2.34,0.5,3.19,1.51
					C72.43,27.16,72.85,28.49,72.85,30.13z M70.41,30.22c0-1.05-0.24-1.92-0.71-2.6c-0.52-0.71-1.22-1.07-2.09-1.07
					c-0.59,0-1.13,0.2-1.61,0.59c-0.48,0.39-0.8,0.91-0.94,1.54c-0.07,0.3-0.11,0.54-0.11,0.73v1.8c0,0.79,0.24,1.45,0.72,1.99
					c0.48,0.54,1.11,0.81,1.88,0.81c0.9,0,1.61-0.35,2.11-1.04C70.16,32.28,70.41,31.36,70.41,30.22z"/>
				<path class="st1" d="M85.27,30.13c0,1.84-0.5,3.29-1.49,4.35c-0.89,0.95-1.99,1.42-3.31,1.42c-1.42,0-2.44-0.51-3.07-1.53h-0.04
					v5.69h-2.4V28.42c0-1.16-0.03-2.34-0.09-3.55h2.11l0.13,1.71h0.05c0.8-1.29,2.01-1.93,3.64-1.93c1.27,0,2.34,0.5,3.19,1.51
					C84.84,27.16,85.27,28.49,85.27,30.13z M82.83,30.22c0-1.05-0.24-1.92-0.71-2.6c-0.52-0.71-1.21-1.07-2.09-1.07
					c-0.59,0-1.13,0.2-1.61,0.59c-0.48,0.39-0.79,0.91-0.94,1.54c-0.07,0.3-0.11,0.54-0.11,0.73v1.8c0,0.79,0.24,1.45,0.72,1.99
					c0.48,0.54,1.11,0.81,1.88,0.81c0.9,0,1.61-0.35,2.11-1.04C82.57,32.28,82.83,31.36,82.83,30.22z"/>
				<path class="st1" d="M99.15,31.46c0,1.27-0.44,2.31-1.33,3.11c-0.98,0.87-2.33,1.31-4.08,1.31c-1.61,0-2.9-0.31-3.88-0.93
					l0.56-2c1.05,0.64,2.21,0.96,3.47,0.96c0.9,0,1.61-0.21,2.11-0.61c0.5-0.41,0.75-0.95,0.75-1.64c0-0.61-0.21-1.12-0.62-1.54
					c-0.41-0.41-1.1-0.8-2.07-1.16c-2.62-0.98-3.93-2.41-3.93-4.29c0-1.23,0.46-2.24,1.38-3.03c0.92-0.79,2.14-1.18,3.66-1.18
					c1.36,0,2.49,0.24,3.4,0.71l-0.6,1.96c-0.84-0.46-1.8-0.69-2.86-0.69c-0.84,0-1.5,0.21-1.98,0.62c-0.4,0.37-0.6,0.82-0.6,1.36
					c0,0.59,0.23,1.08,0.69,1.46c0.4,0.36,1.12,0.74,2.18,1.16c1.29,0.52,2.23,1.12,2.84,1.82C98.85,29.56,99.15,30.43,99.15,31.46z
					"/>
				<path class="st1" d="M107.08,26.66h-2.64v5.24c0,1.33,0.47,2,1.4,2c0.43,0,0.79-0.04,1.07-0.11l0.06,1.82
					c-0.47,0.18-1.09,0.27-1.86,0.27c-0.95,0-1.69-0.29-2.22-0.87c-0.53-0.58-0.8-1.55-0.8-2.91v-5.44h-1.58v-1.8h1.58v-1.98
					l2.36-0.71v2.69h2.64V26.66z"/>
				<path class="st1" d="M119.01,30.17c0,1.66-0.47,3.02-1.42,4.09c-0.99,1.1-2.31,1.64-3.95,1.64c-1.59,0-2.85-0.53-3.79-1.58
					c-0.94-1.05-1.41-2.38-1.41-3.98c0-1.67,0.48-3.04,1.45-4.11c0.97-1.07,2.28-1.6,3.92-1.6c1.58,0,2.86,0.53,3.82,1.58
					C118.55,27.24,119.01,28.56,119.01,30.17z M116.52,30.25c0-1-0.21-1.85-0.64-2.56c-0.5-0.86-1.22-1.29-2.15-1.29
					c-0.96,0-1.7,0.43-2.2,1.29c-0.43,0.71-0.64,1.58-0.64,2.61c0,1,0.21,1.85,0.64,2.56c0.52,0.86,1.24,1.29,2.18,1.29
					c0.92,0,1.64-0.44,2.15-1.32C116.3,32.11,116.52,31.24,116.52,30.25z"/>
				<path class="st1" d="M126.81,26.97c-0.24-0.04-0.49-0.07-0.76-0.07c-0.84,0-1.49,0.32-1.96,0.96c-0.4,0.56-0.6,1.27-0.6,2.13
					v5.66h-2.4l0.02-7.4c0-1.24-0.03-2.38-0.09-3.4h2.09l0.09,2.07h0.06c0.25-0.71,0.65-1.28,1.2-1.71
					c0.53-0.39,1.11-0.58,1.73-0.58c0.22,0,0.42,0.02,0.6,0.05V26.97z"/>
				<path class="st1" d="M137.53,29.75c0,0.43-0.03,0.79-0.09,1.09h-7.2c0.03,1.07,0.38,1.88,1.04,2.44
					c0.61,0.5,1.39,0.75,2.35,0.75c1.06,0,2.04-0.17,2.91-0.51l0.38,1.67c-1.02,0.45-2.23,0.67-3.62,0.67
					c-1.67,0-2.99-0.49-3.94-1.48c-0.95-0.98-1.43-2.31-1.43-3.96c0-1.63,0.44-2.99,1.33-4.06c0.93-1.16,2.19-1.73,3.77-1.73
					c1.56,0,2.73,0.58,3.53,1.73C137.21,27.27,137.53,28.4,137.53,29.75z M135.24,29.13c0.02-0.71-0.14-1.32-0.47-1.84
					c-0.42-0.67-1.05-1-1.91-1c-0.79,0-1.42,0.32-1.91,0.98c-0.4,0.52-0.64,1.14-0.71,1.86H135.24z"/>
			</g>
			<g>
				<g>
					<path class="st1" d="M55.29,11.48c0,1.32-0.4,2.32-1.19,2.99c-0.74,0.62-1.78,0.93-3.13,0.93c-0.67,0-1.25-0.03-1.73-0.09V8.07
						c0.63-0.1,1.3-0.15,2.03-0.15c1.29,0,2.26,0.28,2.91,0.84C54.92,9.39,55.29,10.3,55.29,11.48z M54.04,11.51
						c0-0.86-0.23-1.52-0.68-1.98c-0.45-0.46-1.12-0.69-1.99-0.69c-0.37,0-0.69,0.03-0.95,0.08v5.5c0.14,0.02,0.41,0.03,0.8,0.03
						c0.9,0,1.6-0.25,2.09-0.75C53.8,13.2,54.04,12.47,54.04,11.51z"/>
					<path class="st1" d="M61.88,12.64c0,0.81-0.23,1.48-0.7,2.01c-0.49,0.54-1.14,0.81-1.94,0.81c-0.78,0-1.4-0.26-1.86-0.77
						c-0.46-0.52-0.69-1.17-0.69-1.95c0-0.82,0.24-1.49,0.71-2.02c0.48-0.52,1.12-0.79,1.93-0.79c0.78,0,1.4,0.26,1.88,0.77
						C61.65,11.19,61.88,11.84,61.88,12.64z M60.66,12.67c0-0.49-0.1-0.91-0.32-1.26c-0.25-0.42-0.6-0.64-1.06-0.64
						c-0.47,0-0.83,0.21-1.08,0.64c-0.21,0.35-0.32,0.78-0.32,1.28c0,0.49,0.11,0.91,0.32,1.26c0.26,0.42,0.61,0.64,1.07,0.64
						c0.45,0,0.8-0.22,1.06-0.65C60.55,13.59,60.66,13.16,60.66,12.67z"/>
					<path class="st1" d="M70.72,10.03l-1.66,5.3h-1.08l-0.69-2.3c-0.18-0.57-0.32-1.14-0.43-1.71h-0.02
						c-0.1,0.58-0.24,1.15-0.43,1.71l-0.73,2.3H64.6l-1.56-5.3h1.21l0.6,2.52c0.14,0.6,0.27,1.16,0.36,1.7h0.02
						c0.09-0.44,0.23-1.01,0.44-1.69l0.75-2.53h0.96l0.72,2.48c0.17,0.6,0.32,1.19,0.42,1.75h0.03c0.08-0.55,0.2-1.13,0.36-1.75
						l0.64-2.48H70.72z"/>
					<path class="st1" d="M76.83,15.33h-1.18v-3.04c0-0.94-0.35-1.4-1.07-1.4c-0.35,0-0.63,0.13-0.85,0.39s-0.33,0.56-0.33,0.91
						v3.15h-1.18v-3.79c0-0.47-0.01-0.97-0.04-1.52h1.04l0.05,0.83h0.03c0.14-0.26,0.34-0.47,0.61-0.64c0.32-0.2,0.67-0.3,1.07-0.3
						c0.5,0,0.91,0.16,1.23,0.48c0.41,0.39,0.61,0.98,0.61,1.76V15.33z"/>
					<path class="st1" d="M80.08,15.33H78.9V7.59h1.18V15.33z"/>
					<path class="st1" d="M87.02,12.64c0,0.81-0.23,1.48-0.7,2.01c-0.49,0.54-1.14,0.81-1.94,0.81c-0.78,0-1.4-0.26-1.86-0.77
						c-0.46-0.52-0.69-1.17-0.69-1.95c0-0.82,0.24-1.49,0.71-2.02c0.48-0.52,1.12-0.79,1.93-0.79c0.78,0,1.4,0.26,1.88,0.77
						C86.8,11.19,87.02,11.84,87.02,12.64z M85.8,12.67c0-0.49-0.11-0.91-0.32-1.26c-0.25-0.42-0.6-0.64-1.06-0.64
						c-0.47,0-0.84,0.21-1.08,0.64c-0.21,0.35-0.32,0.78-0.32,1.28c0,0.49,0.11,0.91,0.32,1.26c0.25,0.42,0.61,0.64,1.07,0.64
						c0.45,0,0.8-0.22,1.06-0.65C85.69,13.59,85.8,13.16,85.8,12.67z"/>
					<path class="st1" d="M92.73,15.33h-1.06l-0.09-0.61h-0.03c-0.36,0.49-0.88,0.73-1.55,0.73c-0.5,0-0.9-0.16-1.21-0.48
						c-0.28-0.29-0.42-0.65-0.42-1.08c0-0.65,0.27-1.14,0.81-1.48s1.31-0.51,2.29-0.5v-0.1c0-0.7-0.37-1.05-1.1-1.05
						c-0.52,0-0.98,0.13-1.38,0.39l-0.24-0.77c0.49-0.31,1.1-0.46,1.82-0.46c1.39,0,2.08,0.73,2.08,2.19v1.95
						C92.65,14.6,92.68,15.02,92.73,15.33z M91.5,13.51v-0.82c-1.3-0.02-1.95,0.34-1.95,1.07c0,0.28,0.07,0.48,0.23,0.62
						c0.15,0.14,0.34,0.21,0.58,0.21c0.26,0,0.5-0.08,0.72-0.25c0.22-0.16,0.36-0.37,0.41-0.63C91.5,13.66,91.5,13.59,91.5,13.51z"
						/>
					<path class="st1" d="M99.43,15.33h-1.04l-0.06-0.85h-0.03c-0.33,0.65-0.9,0.97-1.7,0.97c-0.64,0-1.17-0.25-1.59-0.75
						c-0.42-0.5-0.63-1.15-0.63-1.95c0-0.86,0.23-1.55,0.69-2.08c0.44-0.5,0.99-0.74,1.64-0.74c0.71,0,1.21,0.24,1.49,0.72h0.02
						V7.59h1.18v6.31C99.39,14.42,99.4,14.89,99.43,15.33z M98.21,13.09v-0.88c0-0.15-0.01-0.28-0.03-0.37
						c-0.06-0.28-0.21-0.52-0.43-0.71c-0.22-0.19-0.48-0.29-0.79-0.29c-0.44,0-0.79,0.18-1.04,0.52c-0.25,0.35-0.38,0.8-0.38,1.34
						c0,0.52,0.12,0.95,0.36,1.28c0.26,0.35,0.6,0.52,1.03,0.52c0.39,0,0.7-0.15,0.93-0.43C98.09,13.79,98.21,13.47,98.21,13.09z"/>
					<path class="st1" d="M109.51,12.64c0,0.81-0.23,1.48-0.7,2.01c-0.49,0.54-1.13,0.81-1.94,0.81c-0.78,0-1.4-0.26-1.86-0.77
						c-0.46-0.52-0.69-1.17-0.69-1.95c0-0.82,0.24-1.49,0.71-2.02c0.48-0.52,1.12-0.79,1.93-0.79c0.78,0,1.4,0.26,1.88,0.77
						C109.28,11.19,109.51,11.84,109.51,12.64z M108.29,12.67c0-0.49-0.11-0.91-0.32-1.26c-0.25-0.42-0.6-0.64-1.06-0.64
						c-0.47,0-0.83,0.21-1.08,0.64c-0.21,0.35-0.32,0.78-0.32,1.28c0,0.49,0.11,0.91,0.32,1.26c0.26,0.42,0.61,0.64,1.07,0.64
						c0.45,0,0.8-0.22,1.06-0.65C108.18,13.59,108.29,13.16,108.29,12.67z"/>
					<path class="st1" d="M115.85,15.33h-1.18v-3.04c0-0.94-0.35-1.4-1.07-1.4c-0.35,0-0.63,0.13-0.85,0.39
						c-0.22,0.26-0.33,0.56-0.33,0.91v3.15h-1.18v-3.79c0-0.47-0.01-0.97-0.04-1.52h1.04l0.05,0.83h0.03
						c0.14-0.26,0.34-0.47,0.61-0.64c0.32-0.2,0.68-0.3,1.07-0.3c0.5,0,0.91,0.16,1.23,0.48c0.41,0.39,0.61,0.98,0.61,1.76V15.33z"
						/>
					<path class="st1" d="M123.78,10.91h-1.3v2.57c0,0.66,0.23,0.98,0.69,0.98c0.21,0,0.39-0.02,0.53-0.05l0.03,0.9
						c-0.23,0.09-0.54,0.13-0.92,0.13c-0.47,0-0.83-0.14-1.09-0.43c-0.26-0.28-0.39-0.76-0.39-1.43v-2.67h-0.78v-0.88h0.78V9.06
						l1.16-0.35v1.32h1.3V10.91z"/>
					<path class="st1" d="M130.03,15.33h-1.18v-3.02c0-0.95-0.35-1.43-1.07-1.43c-0.55,0-0.92,0.27-1.12,0.83
						c-0.04,0.12-0.06,0.26-0.06,0.42v3.19h-1.18V7.59h1.18v3.2h0.02c0.37-0.58,0.9-0.87,1.59-0.87c0.49,0,0.89,0.16,1.21,0.48
						c0.4,0.4,0.6,0.99,0.6,1.78V15.33z"/>
					<path class="st1" d="M136.46,12.43c0,0.21-0.02,0.39-0.05,0.53h-3.53c0.02,0.52,0.18,0.92,0.51,1.2
						c0.3,0.25,0.69,0.37,1.16,0.37c0.52,0,1-0.08,1.43-0.25l0.19,0.82c-0.5,0.22-1.09,0.33-1.78,0.33c-0.82,0-1.47-0.24-1.94-0.72
						c-0.47-0.48-0.7-1.13-0.7-1.95c0-0.8,0.22-1.46,0.66-2c0.46-0.57,1.07-0.85,1.85-0.85c0.76,0,1.34,0.28,1.73,0.85
						C136.31,11.21,136.46,11.77,136.46,12.43z M135.34,12.12c0.01-0.35-0.07-0.65-0.23-0.91c-0.2-0.33-0.52-0.49-0.94-0.49
						c-0.38,0-0.7,0.16-0.94,0.48c-0.2,0.26-0.31,0.56-0.35,0.92H135.34z"/>
				</g>
			</g>
		</g>
	</g>
</g>
</svg>
