<svg id="Isolation_Mode" data-name="Isolation Mode" xmlns="http://www.w3.org/2000/svg" viewBox="0 0 110.45 30.04"><polygon points="0 0.39 0 29.77 16.96 29.77 16.96 26.42 7.46 26.42 7.46 3.73 16.96 3.73 16.96 0.39 0 0.39"/><polygon points="27.78 11.72 25.61 11.72 25.61 0 18.86 0 18.86 30.04 25.61 30.04 25.61 15.64 27.78 15.64 27.78 30.04 34.89 30.04 34.89 0 27.78 0 27.78 11.72"/><polygon points="71.2 0 63.74 0 63.74 30.04 71.2 30.04 71.2 15.8 74.34 15.8 74.34 12.26 71.2 12.26 71.2 0"/><polygon points="47.23 3.73 61.04 3.73 61.04 0.39 39.77 0.39 39.77 29.77 61.62 29.77 61.62 26.42 47.23 26.42 47.23 3.73"/><polygon points="97.2 26.27 97.2 23.11 89.67 23.11 89.67 26.27 75.94 26.27 75.94 29.61 110.45 29.61 110.45 26.27 97.2 26.27"/><path d="M998.08,411.11h31.79V391H998.08Zm7.46-3.34V394.32h16.87v13.45Z" transform="translate(-920.77 -390.58)"/></svg>