<?xml version="1.0" encoding="utf-8"?>
<!-- Generator: Adobe Illustrator 24.2.3, SVG Export Plug-In . SVG Version: 6.00 Build 0)  -->
<svg version="1.1" xmlns="http://www.w3.org/2000/svg" xmlns:xlink="http://www.w3.org/1999/xlink" x="0px" y="0px"
	 viewBox="0 0 49.93 50" style="enable-background:new 0 0 49.93 50;" xml:space="preserve">
<style type="text/css">
	.st0{display:none;}
	.st1{display:inline;}
	.st2{display:inline;fill:none;stroke:#FFFFFF;stroke-width:0.25;stroke-miterlimit:10;}
	.st3{fill:#FFFFFF;}
	.st4{display:inline;fill:#FFFFFF;}
</style>
<g id="Layer_2" class="st0">
	<rect x="-0.04" y="0" class="st1" width="50" height="50"/>
</g>
<g id="Layer_7" class="st0">
	<rect class="st2" width="50" height="50"/>
</g>
<g id="Layer_1" class="st0">
	<g class="st1">
		<path class="st3" d="M25-13.5c21.23,0,38.5,17.27,38.5,38.5S46.23,63.5,25,63.5S-13.5,46.23-13.5,25S3.77-13.5,25-13.5 M25-15
			C2.91-15-15,2.91-15,25S2.91,65,25,65s40-17.91,40-40S47.09-15,25-15L25-15z"/>
	</g>
</g>
<g id="Layer_3">
	<g>
		<path class="st3" d="M12.16,22.88c-0.52,0-0.96,0.19-1.32,0.56c-0.37,0.37-0.55,0.83-0.55,1.36c0,0.53,0.18,0.98,0.55,1.36
			c0.37,0.37,0.81,0.56,1.32,0.56c0.52,0,0.97-0.19,1.34-0.56c0.37-0.37,0.56-0.82,0.56-1.36c0-0.53-0.19-0.98-0.56-1.36
			C13.13,23.06,12.68,22.88,12.16,22.88z"/>
		<path class="st3" d="M28.15,22.86c-0.52,0-0.96,0.19-1.32,0.56c-0.37,0.37-0.55,0.83-0.55,1.36c0,0.53,0.18,0.98,0.55,1.36
			c0.37,0.37,0.81,0.56,1.32,0.56c0.52,0,0.97-0.19,1.34-0.56c0.37-0.37,0.56-0.83,0.56-1.36c0-0.53-0.19-0.98-0.56-1.36
			C29.13,23.05,28.68,22.86,28.15,22.86z"/>
		<path class="st3" d="M38.82,22.88c-0.52,0-0.96,0.19-1.32,0.56c-0.37,0.37-0.55,0.83-0.55,1.36c0,0.53,0.18,0.98,0.55,1.36
			c0.37,0.37,0.81,0.56,1.32,0.56c0.52,0,0.97-0.19,1.34-0.56c0.37-0.37,0.56-0.82,0.56-1.36c0-0.53-0.19-0.98-0.56-1.36
			C39.79,23.06,39.34,22.88,38.82,22.88z"/>
		<path class="st3" d="M43.56,8.81H7.42c-2.77,0-5.04,2.27-5.04,5.04v20.44c0,2.77,2.27,5.04,5.04,5.04h14.19
			c0,0,2.74,7.48,3.74,7.48c1,0,3.96-7.48,3.96-7.48h14.25c2.77,0,5.04-2.27,5.04-5.04V13.85C48.6,11.08,46.33,8.81,43.56,8.81z
			 M15.82,27.68c-0.71,0.81-1.81,1.15-3.01,1.15c-1.08,0-1.87-0.32-2.45-0.77h-0.03v0.57H7.6V16.8h2.71v4.52h0.03
			c0.73-0.63,1.71-0.84,2.86-0.88c0.98-0.03,2.01,0.58,2.62,1.29c0.61,0.71,1.06,1.81,1.06,3.04
			C16.89,26.11,16.53,26.88,15.82,27.68z M21.64,28.72h-2.77c0,0,0-6.22,0-7.32c0-1.69-1.34-1.91-1.34-1.91v-2.93
			c0,0,3.88,0.24,4.1,4.94C21.64,22.85,21.64,28.72,21.64,28.72z M32.5,26.48c-0.23,0.53-0.57,1-1.02,1.42
			c-0.44,0.41-0.94,0.73-1.52,0.94c-0.57,0.22-1.17,0.33-1.81,0.33c-0.62,0-1.22-0.11-1.78-0.33c-0.57-0.22-1.07-0.53-1.52-0.94
			c-0.46-0.43-0.8-0.91-1.04-1.44c-0.23-0.52-0.35-1.08-0.35-1.67c0-0.59,0.12-1.15,0.35-1.67c0.24-0.52,0.58-1,1.04-1.44
			c0.45-0.41,0.95-0.73,1.52-0.95c0.56-0.22,1.16-0.33,1.78-0.33c0.64,0,1.24,0.11,1.81,0.33c0.57,0.22,1.08,0.53,1.52,0.95
			c0.45,0.42,0.78,0.89,1.02,1.42c0.23,0.53,0.35,1.09,0.35,1.69C32.85,25.39,32.73,25.95,32.5,26.48z M43.38,27.65
			c0,2.08-0.39,3.34-1.32,4.23c-1.1,1.05-2.67,1.12-4,0.93v-2.15c1.1,0.11,2.62-0.62,2.62-2.05v-0.55h-0.03
			c-0.62,0.85-1.52,1.17-2.72,1.17c-1.11,0-2.08-0.41-2.73-1.18c-0.65-0.77-0.98-1.79-0.98-3.08c0-1.44,0.36-2.59,1.09-3.44
			c0.73-0.85,1.77-1.24,2.95-1.24c1.06,0,1.73,0.26,2.39,0.86h0.03V20.5h2.7V27.65z"/>
	</g>
</g>
<g id="Layer_4" class="st0">
	<g class="st1">
		<path class="st3" d="M24.66,4.08l10.16-0.01c0.14,0,0.28,0.06,0.38,0.16c0.1,0.1,0.15,0.24,0.15,0.38
			c-0.14,8.49-8.51,9.85-8.59,9.86c-0.03,0-0.05,0-0.08,0H15.94c-0.14,0-0.29-0.06-0.38-0.17c-0.11-0.11-0.16-0.26-0.14-0.41
			C16.13,5.39,24.58,4.09,24.66,4.08z"/>
		<path class="st3" d="M43.18,18.67h-4.47H33.4H7.02c-0.29,0-0.53,0.24-0.53,0.53v9.7c0,0,0.33,16.17,16.37,16.17
			c12.12,0,15.27-9.22,16.09-13.73h4.23c3.49,0,6.33-2.84,6.33-6.34C49.51,21.51,46.67,18.67,43.18,18.67z M43.03,28.05
			c-1.7,0-3.08-1.38-3.08-3.08c0-1.7,1.38-3.08,3.08-3.08c1.7,0,3.08,1.38,3.08,3.08C46.11,26.67,44.73,28.05,43.03,28.05z"/>
	</g>
</g>
<g id="Layer_5" class="st0">
	<path class="st4" d="M46.9,14c-0.53-1.97-2.07-3.51-4.04-4.04C39.29,9,25,9,25,9S10.71,9,7.14,9.95C5.17,10.48,3.62,12.03,3.1,14
		c-0.95,3.57-0.95,11-0.95,11s0,7.44,0.95,11c0.53,1.97,2.07,3.52,4.04,4.04C10.71,41,25,41,25,41s14.29,0,17.86-0.95
		c1.97-0.53,3.52-2.08,4.04-4.04c0.95-3.57,0.95-11,0.95-11S47.86,17.56,46.9,14z M20.43,31.86V18.14L32.3,25L20.43,31.86z"/>
</g>
<g id="Layer_6" class="st0">
	<path class="st4" d="M34.07,27.62l1.24-8.08h-7.75V14.3c0-2.21,1.09-4.37,4.56-4.37h3.53V3.05c0,0-3.2-0.55-6.26-0.55
		C23,2.5,18.82,6.37,18.82,13.38v6.16h-7.1v8.08h7.1v19.54c1.42,0.22,2.88,0.34,4.37,0.34c1.49,0,2.95-0.12,4.37-0.34V27.62H34.07z"
		/>
</g>
</svg>
