<?xml version="1.0" encoding="UTF-8"?>
<svg id="Layer_1" xmlns="http://www.w3.org/2000/svg" version="1.1" viewBox="0 0 141.2 141.2">
  <!-- Generator: Adobe Illustrator 29.3.1, SVG Export Plug-In . SVG Version: 2.1.0 Build 151)  -->
  <defs>
    <style>
      .st0 {
        fill: #fff;
        fill-rule: evenodd;
      }
    </style>
  </defs>
  <path class="st0" d="M122.1,107.6c-1.3-3.3-3.6-4.9-8-7.9h-.2c-3.3-2.4-5.6-5.5-6-11.8-.2-4,0-7.2.3-10.8.3-3.9.7-8.1.5-14.2-.3-9-3.4-15.9-5.3-19.9-2.3-4.7-2.7-8-2.8-13.5,0-2.7,0-7.3,0-11.4h0c0-3.4,0-6.5,0-8-.1-3.4-1.4-5.6-3.6-6.8-2.7-1.4-5.6-.9-8,1.9-2.3,2.6-6.3,7.2-9.1,9.9-3.6,3.5-6,4.3-9.2,4.3s-5.5-.8-9.2-4.3c-2.8-2.7-6.9-7.3-9.1-9.9-2.5-2.8-5.3-3.2-8-1.9-2.3,1.1-3.5,3.3-3.7,6.8,0,1.6,0,4.7,0,8h0c0,4.1,0,8.7,0,11.4-.2,5.4-.6,8.7-2.8,13.5-1.9,4-5,10.8-5.3,19.9-.2,6.1.1,10.4.5,14.2.3,3.6.6,6.8.3,10.8-.4,6.3-2.7,9.4-6,11.7l-.4.3c-4.1,2.8-6.4,4.4-7.7,7.7-.9,2.4-.9,5.8,1.8,7.3,1.7.9,3.8.8,6-.2.4-.2.9-.4,1.3-.6h0c1.2-.6,2.5-1.2,3.7-1.1,1.3,0,2.3.8,2.5,3,.2,2.3,1.2,3.2,2.8,3.2s2.5-.9,3.4-3.4c.2-.5.3-.9.5-1.4h0s0,0,0,0h0c.7-2,1.2-3.6,2.5-3.6,1.6,0,2,1.9,2.1,4.5.2,3.7-1.2,6.6-3.8,9.2-3,2.9-5.3,5.7-4.5,9.3.6,2.6,3.2,4.2,7.4,4.5,4.3.2,11.3.2,16.1.1,4.5-.1,7.1-2.2,7.6-4.9.3-1.6,0-2.7-.3-3.8-.3-.9-.5-1.8-.3-3,.3-1.4,1.5-2,2.8-2s2.6.6,2.8,2c.2,1.2,0,2.1-.3,3-.3,1.1-.6,2.2-.3,3.8.6,2.7,3.1,4.8,7.6,4.9,4.8.1,11.8,0,16-.2,4.2-.2,6.9-1.9,7.4-4.5.8-3.6-1.4-6.4-4.5-9.3-2.6-2.6-3.9-5.4-3.8-9.2.1-2.6.5-4.5,2.1-4.5,1.3,0,1.8,1.6,2.5,3.7h0s0,0,0,0h0c.1.4.3.9.5,1.3.9,2.5,2.1,3.4,3.4,3.4s2.6-1,2.8-3.2c.2-2.2,1.2-2.9,2.5-3,1.2,0,2.4.5,3.7,1.1.4.2.8.4,1.3.6,2.2.9,4.2,1.1,6,.2,2.8-1.5,2.8-4.9,1.9-7.3ZM51,50.2c1.9,0,3.5-1.7,3.5-3.7s-1.6-3.7-3.5-3.7-3.5,1.7-3.5,3.7c0,2,1.5,3.7,3.5,3.7ZM93.7,46.5c0,2-1.5,3.7-3.5,3.7s-3.5-1.7-3.5-3.7c0-2,1.5-3.7,3.5-3.7s3.5,1.6,3.5,3.7ZM70.6,49.8c8.2,0,14.1,2,19.7,7.1,3.9,3.5,6.4,10.5,3.4,15.8-1.5,2.7-4.4,4.8-7.8,5.1-4.6.4-7.4-1.3-9.2-3.4-1.7-2-3.6-3.9-6.2-3.9s-4.5,1.9-6.2,3.9c-1.8,2.1-4.7,3.9-9.2,3.4-3.4-.3-6.3-2.4-7.8-5.1-2.9-5.3-.4-12.3,3.5-15.8,5.7-5.1,11.5-7.1,19.7-7.1ZM62.6,58.2c0-3.7,3.5-6.6,8.1-6.6s8.1,2.9,8.1,6.6-3.5,6.6-8.1,6.6-8.1-2.9-8.1-6.6ZM54.4,102.6c0-9.5,7.3-17.2,16.2-17.2s16.2,7.7,16.2,17.2-7.3,17.2-16.2,17.2-16.2-7.7-16.2-17.2Z"/>
</svg>