<?xml version="1.0" encoding="utf-8"?>
<!-- Generator: Adobe Illustrator 24.2.3, SVG Export Plug-In . SVG Version: 6.00 Build 0)  -->
<svg version="1.1" id="Layer_1" xmlns="http://www.w3.org/2000/svg" xmlns:xlink="http://www.w3.org/1999/xlink" x="0px" y="0px"
	 viewBox="0 0 93.54 31.18" style="enable-background:new 0 0 93.54 31.18;" xml:space="preserve">
<style type="text/css">
	.st0{fill:#FF0000;}
	.st1{font-family:'NotoSans-CondensedMedium';}
	.st2{font-size:17.2857px;}
</style>
<g>
	<path class="st0" d="M86.46,1.7c2.97,0,5.39,2.42,5.39,5.39v17.01c0,2.97-2.42,5.39-5.39,5.39H7.09c-2.97,0-5.39-2.42-5.39-5.39
		V7.09c0-2.97,2.42-5.39,5.39-5.39H86.46 M86.46,0H7.09C3.17,0,0,3.17,0,7.09v17.01c0,3.91,3.17,7.09,7.09,7.09h79.37
		c3.91,0,7.09-3.17,7.09-7.09V7.09C93.54,3.17,90.37,0,86.46,0L86.46,0z"/>
</g>
<path class="st0" d="M30.01,15.66c-0.64-1.23-1.88-1.95-3.17-2l1.48-0.77c1.82-0.95,2.53-3.2,1.58-5.02
	c-0.95-1.82-3.2-2.53-5.02-1.57l-8.03,4.19c-1.82,0.95-2.53,3.2-1.57,5.02c0.64,1.23,1.88,1.95,3.17,2l-1.48,0.77
	c-1.82,0.95-2.53,3.2-1.58,5.02c0.66,1.27,1.96,2,3.3,2c0.58,0,1.17-0.14,1.72-0.42l8.03-4.2C30.25,19.73,30.96,17.48,30.01,15.66z
	 M20.52,18.61v-6.03l4.87,3.02L20.52,18.61z"/>
<text transform="matrix(1 0 0 1 34.0688 21.8592)" class="st0 st1 st2">Shorts</text>
</svg>
