<svg width="17" height="16" viewBox="0 0 17 16" fill="none" xmlns="http://www.w3.org/2000/svg">
<path d="M8.96045 14.4564H15.8744" stroke="#4C00EE" stroke-linecap="round" stroke-linejoin="round"/>
<path d="M4.91122 14.1017L4.86042 13.6043L4.91122 14.1017ZM1.8981 11.0886L2.39551 11.1394L1.8981 11.0886ZM1.6177 13.8339L1.12029 13.7831L1.6177 13.8339ZM2.16592 14.3821L2.21672 14.8795L2.16592 14.3821ZM2.11511 13.8847L2.39551 11.1394L1.40069 11.0378L1.12029 13.7831L2.11511 13.8847ZM2.34037 11.2554L11.6867 1.90911L10.9796 1.202L1.63327 10.5483L2.34037 11.2554ZM14.0907 4.31311L4.74438 13.6594L5.45148 14.3665L14.7978 5.02022L14.0907 4.31311ZM4.86042 13.6043L2.11511 13.8847L2.21672 14.8795L4.96203 14.5991L4.86042 13.6043ZM4.74438 13.6594C4.77556 13.6282 4.81655 13.6088 4.86042 13.6043L4.96203 14.5991C5.14708 14.5802 5.31995 14.498 5.45148 14.3665L4.74438 13.6594ZM14.0907 1.90911C14.7545 2.57296 14.7545 3.64927 14.0907 4.31311L14.7978 5.02022C15.8522 3.96585 15.8522 2.25637 14.7978 1.202L14.0907 1.90911ZM11.6867 1.90911C12.3505 1.24526 13.4268 1.24526 14.0907 1.90911L14.7978 1.202C13.7434 0.147631 12.0339 0.14763 10.9796 1.202L11.6867 1.90911ZM2.39551 11.1394C2.39103 11.1832 2.37156 11.2242 2.34037 11.2554L1.63327 10.5483C1.50173 10.6798 1.41959 10.8527 1.40069 11.0378L2.39551 11.1394ZM1.12029 13.7831C1.05591 14.4133 1.58644 14.9439 2.21672 14.8795L2.11511 13.8847L1.12029 13.7831Z" fill="#4C00EE"/>
</svg>
