<svg width="72" height="22" viewBox="0 0 72 22" fill="none" xmlns="http://www.w3.org/2000/svg">
<rect x="0.5" y="0.5" width="71" height="21" rx="10.5" fill="white"/>
<rect x="0.5" y="0.5" width="71" height="21" rx="10.5" stroke="#4C00EE"/>
<path d="M11.555 10.38H7.078V5.903H11.687V6.453H7.749V7.85H11.445V8.389H7.749V9.841H11.412C12.611 9.841 13.524 9.687 14.107 9.247V5.782H14.778V7.861H16.318V8.455H14.778V10.798H14.107V9.764C13.568 10.204 12.688 10.38 11.555 10.38ZM8.343 13.889V15.121H14.921V15.649H7.672V13.35H14.118V12.129H7.672V11.579H14.789V13.889H8.343ZM24.4246 11.315H20.9816V14.516H24.9636V15.077H16.2846V14.516H20.3106V11.315H16.8236V5.969H24.4246V11.315ZM23.7536 10.721V6.563H17.4946V10.721H23.7536ZM28.6151 5.848V7.641C28.6151 9.313 29.7921 10.325 31.0351 10.721V11.337C29.7371 10.963 28.6811 10.094 28.2741 9.126C27.9331 10.105 26.8991 11.051 25.5131 11.458V10.842C26.8111 10.413 27.9441 9.291 27.9441 7.641V5.848H28.6151ZM33.7521 12.558H33.0811V8.378H30.6611V7.795H33.0811V5.782H33.7521V12.558ZM33.9501 15.583H26.5471V12.492H27.2181V15H33.9501V15.583ZM35.9517 9.599H38.1517V5.969H38.8117V14.835H35.3027V5.969H35.9517V9.599ZM38.1517 14.274V10.182H35.9517V14.274H38.1517ZM43.2117 15.528H42.5517V10.501H40.8797V15.418H40.2197V5.837H40.8797V9.896H42.5517V5.782H43.2117V15.528ZM47.777 5.32H49.262V6.211H50.769V7.41H46.182V6.211H47.777V5.32ZM46.369 9.401C46.369 8.895 46.578 8.477 46.941 8.18C47.315 7.872 47.854 7.696 48.492 7.696C49.13 7.696 49.669 7.872 50.043 8.18C50.164 8.279 50.263 8.378 50.351 8.499H51.297V5.672H52.716V11.007H51.297V9.742H50.593C50.516 10.105 50.329 10.402 50.043 10.633C49.669 10.941 49.13 11.117 48.492 11.117C47.854 11.117 47.315 10.941 46.941 10.633C46.578 10.336 46.369 9.907 46.369 9.401ZM47.755 9.401C47.755 9.555 47.81 9.687 47.92 9.786C48.052 9.896 48.261 9.973 48.492 9.973C48.734 9.973 48.943 9.896 49.075 9.786C49.174 9.687 49.24 9.555 49.24 9.401C49.24 9.258 49.174 9.126 49.075 9.027C48.943 8.917 48.734 8.84 48.492 8.84C48.261 8.84 48.052 8.917 47.92 9.027C47.81 9.126 47.755 9.258 47.755 9.401ZM53.31 5.617H54.751V11.062H53.31V5.617ZM48.58 14.692H54.872V15.825H47.073V13.075H53.244V12.558H47.073V11.436H54.751V14.186H48.58V14.692ZM62.4065 10.413H64.1555V11.733H55.8395V10.413H57.2915V7.113H56.0155V5.793H63.9795V7.113H62.7035V8.719C62.7035 9.357 62.5935 10.006 62.4065 10.413ZM58.7985 10.413H60.9655C61.1305 10.028 61.1965 9.423 61.1965 8.873V7.113H58.7985V10.413ZM55.5095 13.966H64.4855V15.275H55.5095V13.966Z" fill="#4C00EE"/>
</svg>
