<svg width="24" height="24" viewBox="0 0 24 24" fill="none" xmlns="http://www.w3.org/2000/svg">
<path d="M19.8 12C19.8 11.6687 19.5314 11.4 19.2 11.4C18.8686 11.4 18.6 11.6687 18.6 12H19.8ZM19.2 17.6H19.8H19.2ZM4.79999 17.6H4.19999H4.79999ZM15.2 5.40005C15.5314 5.40005 15.8 5.13142 15.8 4.80005C15.8 4.46868 15.5314 4.20005 15.2 4.20005V5.40005ZM4.19999 12C4.19999 12.3314 4.46862 12.6 4.79999 12.6C5.13136 12.6 5.39999 12.3314 5.39999 12H4.19999ZM17.6 4.80005V4.20005V4.80005ZM19.2 6.40005H18.6H19.2ZM8.79999 18.6C8.46862 18.6 8.19999 18.8687 8.19999 19.2C8.19999 19.5314 8.46862 19.8 8.79999 19.8V18.6ZM18.6 12V17.6H19.8V12H18.6ZM18.6 17.6C18.6 17.8653 18.4946 18.1196 18.3071 18.3072L19.1556 19.1557C19.5682 18.7431 19.8 18.1835 19.8 17.6H18.6ZM18.3071 18.3072C18.1196 18.4947 17.8652 18.6001 17.6 18.6001V19.8001C18.1835 19.8001 18.743 19.5683 19.1556 19.1557L18.3071 18.3072ZM17.6 18.6001H6.39999V19.8001H17.6V18.6001ZM6.39999 18.6001C6.13477 18.6001 5.88042 18.4947 5.69288 18.3072L4.84435 19.1557C5.25693 19.5683 5.81651 19.8001 6.39999 19.8001V18.6001ZM5.69288 18.3072C5.50535 18.1196 5.39999 17.8653 5.39999 17.6H4.19999C4.19999 18.1835 4.43177 18.7431 4.84435 19.1557L5.69288 18.3072ZM5.39999 17.6V6.40005H4.19999V17.6H5.39999ZM5.39999 6.40005C5.39999 6.13483 5.50535 5.88048 5.69288 5.69294L4.84435 4.84441C4.43177 5.25699 4.19999 5.81657 4.19999 6.40005H5.39999ZM5.69288 5.69294C5.88042 5.50541 6.13477 5.40005 6.39999 5.40005V4.20005C5.81651 4.20005 5.25693 4.43183 4.84435 4.84441L5.69288 5.69294ZM6.39999 5.40005H15.2V4.20005H6.39999V5.40005ZM5.39999 12L5.39999 6.40005L4.19999 6.40005L4.19999 12H5.39999ZM6.39999 5.40005L17.6 5.40005V4.20005L6.39999 4.20005L6.39999 5.40005ZM17.6 5.40005C17.8652 5.40005 18.1196 5.50541 18.3071 5.69294L19.1556 4.84441C18.743 4.43183 18.1835 4.20005 17.6 4.20005V5.40005ZM18.3071 5.69294C18.4946 5.88048 18.6 6.13483 18.6 6.40005H19.8C19.8 5.81657 19.5682 5.25699 19.1556 4.84441L18.3071 5.69294ZM18.6 6.40005L18.6 17.6H19.8L19.8 6.40005L18.6 6.40005ZM17.6 18.6001L8.79999 18.6V19.8L17.6 19.8001V18.6001Z" fill="#9394A4"/>
</svg>
