<svg width="33" height="33" viewBox="0 0 33 33" fill="none" xmlns="http://www.w3.org/2000/svg">
<g clip-path="url(#clip0_102_10)">
<path d="M16.5 32.314C7.78652 32.314 0.704498 25.2134 0.704498 16.5C0.704498 7.78647 7.78652 0.685913 16.5 0.685913C25.2135 0.685913 32.3141 7.76794 32.3141 16.4814C32.3141 25.1949 25.232 32.2955 16.5 32.2955V32.314Z" fill="#35F4EC"/>
<path d="M16.5 1.39045C24.8242 1.39045 31.6096 8.17584 31.6096 16.5C31.6096 24.8242 24.8242 31.6096 16.5 31.6096C8.17584 31.6096 1.39045 24.8242 1.39045 16.5C1.39045 8.17584 8.17584 1.39045 16.5 1.39045ZM16.5 0C7.37865 0 0 7.37865 0 16.5C0 25.6213 7.37865 33 16.5 33C25.6213 33 33 25.6213 33 16.5C33 7.37865 25.6213 0 16.5 0Z" fill="#35F4EC"/>
<path d="M5.74719 16.0922H7.26741L8.69494 10.7528H12.3101L10.8826 16.0922H13.3483L14.7758 10.7528H18.4095L16.982 16.0922H18.4837L17.7051 19.0028H4.96854L5.74719 16.0922ZM7.87921 8.13879H20.6528L19.8742 11.0495H7.10056L7.87921 8.13879ZM7.80505 20.0967H25.6955L23.8786 27.0304H19.2809L20.2449 23.341H6.9337L7.80505 20.1152V20.0967ZM21.8208 8.13879H26.2331L23.3039 19.0399H18.8916L21.8208 8.13879Z" fill="#6438EB"/>
<path d="M16.5 33H5.30225L7.69382 29.4775" fill="#35F4EC"/>
</g>
<defs>
<clipPath id="clip0_102_10">
<rect width="33" height="33" fill="white"/>
</clipPath>
</defs>
</svg>
