<svg width="32" height="32" viewBox="0 0 32 32" fill="none" xmlns="http://www.w3.org/2000/svg">
<path d="M26.6667 14.9868V16.0534C26.6559 18.2063 25.9939 20.3056 24.7677 22.0752C23.5415 23.8448 21.8086 25.2019 19.7966 25.9682C17.7847 26.7345 15.588 26.874 13.4953 26.3685C11.4025 25.8629 9.51179 24.7359 8.07156 23.1357C6.63134 21.5354 5.70906 19.5368 5.42597 17.4026C5.14288 15.2684 5.51223 13.0984 6.48547 11.178C7.4587 9.25766 8.99027 7.67673 10.8788 6.64308C12.7674 5.60943 14.9245 5.17145 17.0666 5.38671" stroke="#4C00EE" stroke-width="1.2" stroke-linecap="round" stroke-linejoin="round"/>
<path d="M10 18C10 18 12.25 21 16 21C19.75 21 22 18 22 18" stroke="#4C00EE" stroke-width="1.2" stroke-linecap="round" stroke-linejoin="round"/>
<path d="M11.8 12.8535V13.4999" stroke="#4C00EE" stroke-width="1.2" stroke-linecap="round" stroke-linejoin="round"/>
<path d="M20.2133 13.4999L20.2133 12.8535" stroke="#4C00EE" stroke-width="1.2" stroke-linecap="round" stroke-linejoin="round"/>
<path d="M16 17L16 14" stroke="#4C00EE" stroke-width="1.2" stroke-linecap="round" stroke-linejoin="round"/>
<path d="M20.2666 8.58691H26.6667" stroke="#4C00EE" stroke-width="1.2" stroke-linecap="round" stroke-linejoin="round"/>
<path d="M23.4667 5.38647V11.7865" stroke="#4C00EE" stroke-width="1.2" stroke-linecap="round" stroke-linejoin="round"/>
</svg>
