<svg width="80" height="80" viewBox="0 0 80 80" fill="none" xmlns="http://www.w3.org/2000/svg">
<path d="M49.4697 57.4239V53.6361C49.4697 51.6268 48.6715 49.6999 47.2508 48.2792C45.8301 46.8585 43.9031 46.0603 41.8939 46.0603H26.7424C24.7332 46.0603 22.8063 46.8585 21.3855 48.2792C19.9648 49.6999 19.1667 51.6268 19.1667 53.6361V57.4239" fill="#68EDF5"/>
<path d="M49.4697 57.4239V53.6361C49.4697 51.6268 48.6715 49.6999 47.2508 48.2792C45.8301 46.8585 43.9031 46.0603 41.8939 46.0603H26.7424C24.7332 46.0603 22.8063 46.8585 21.3855 48.2792C19.9648 49.6999 19.1667 51.6268 19.1667 53.6361V57.4239H49.4697Z" stroke="#4C00EE" stroke-width="2" stroke-linecap="round" stroke-linejoin="round"/>
<path d="M34.3182 38.4848C38.5021 38.4848 41.8939 35.093 41.8939 30.909C41.8939 26.725 38.5021 23.3333 34.3182 23.3333C30.1342 23.3333 26.7424 26.725 26.7424 30.909C26.7424 35.093 30.1342 38.4848 34.3182 38.4848Z" fill="#68EDF5" stroke="#4C00EE" stroke-width="2" stroke-linecap="round" stroke-linejoin="round"/>
<path d="M60.8333 57.4236V53.6357C60.8321 51.9572 60.2734 50.3266 59.245 48.9999C58.2166 47.6733 56.7767 46.7258 55.1515 46.3062" stroke="#4C00EE" stroke-width="2" stroke-linecap="round" stroke-linejoin="round"/>
<path d="M47.5757 23.5791C49.2053 23.9963 50.6497 24.9441 51.6811 26.2729C52.7126 27.6017 53.2724 29.236 53.2724 30.9181C53.2724 32.6003 52.7126 34.2346 51.6811 35.5634C50.6497 36.8922 49.2053 37.8399 47.5757 38.2571" stroke="#4C00EE" stroke-width="2" stroke-linecap="round" stroke-linejoin="round"/>
</svg>
