<svg width="16" height="16" viewBox="0 0 16 16" fill="none" xmlns="http://www.w3.org/2000/svg">
<path d="M4.8024 7.34996L7.44432 1.5C7.96983 1.5 8.47382 1.70544 8.84541 2.07114C9.217 2.43683 9.42576 2.93282 9.42576 3.44999V6.04997H13.1641C13.3556 6.04784 13.5452 6.0867 13.7199 6.16386C13.8946 6.24103 14.0502 6.35465 14.1758 6.49685C14.3015 6.63906 14.3942 6.80645 14.4476 6.98743C14.501 7.16841 14.5138 7.35864 14.485 7.54496L13.5736 13.3949C13.5258 13.7049 13.3658 13.9875 13.1231 14.1905C12.8803 14.3936 12.5712 14.5035 12.2526 14.4999H4.8024M4.8024 7.34996V14.4999M4.8024 7.34996H2.82096C2.47062 7.34996 2.13463 7.48693 1.8869 7.73072C1.63917 7.97452 1.5 8.30518 1.5 8.64995V13.1999C1.5 13.5447 1.63917 13.8754 1.8869 14.1192C2.13463 14.363 2.47062 14.4999 2.82096 14.4999H4.8024" stroke="#4C00EE" stroke-linecap="round" stroke-linejoin="round"/>
</svg>
