<svg width="16" height="16" viewBox="0 0 16 16" fill="none" xmlns="http://www.w3.org/2000/svg">
<path d="M4.8024 8.65004L7.44432 14.5C7.96983 14.5 8.47382 14.2946 8.84541 13.9289C9.217 13.5632 9.42576 13.0672 9.42576 12.55V9.95003L13.1641 9.95003C13.3556 9.95216 13.5452 9.9133 13.7199 9.83614C13.8946 9.75897 14.0502 9.64535 14.1758 9.50315C14.3015 9.36094 14.3942 9.19355 14.4476 9.01257C14.501 8.83159 14.5138 8.64136 14.485 8.45504L13.5736 2.60508C13.5258 2.29509 13.3658 2.01253 13.1231 1.80948C12.8803 1.60642 12.5712 1.49654 12.2526 1.50008L4.8024 1.50008M4.8024 8.65004L4.8024 1.50008M4.8024 8.65004H2.82096C2.47062 8.65004 2.13463 8.51307 1.8869 8.26928C1.63917 8.02548 1.5 7.69482 1.5 7.35005L1.5 2.80007C1.5 2.4553 1.63917 2.12464 1.8869 1.88084C2.13463 1.63705 2.47062 1.50008 2.82096 1.50008H4.8024" stroke="#9394A4" stroke-linecap="round" stroke-linejoin="round"/>
</svg>
