<svg width="101" height="96" viewBox="0 0 101 96" fill="none" xmlns="http://www.w3.org/2000/svg">
<path d="M100.757 40.8814C100.757 18.3393 78.1578 0 50.3778 0C22.6016 0 0 18.3393 0 40.8814C0 61.0903 17.9225 78.0148 42.1321 81.2152C43.773 81.5687 46.0058 82.2969 46.5708 83.6991C47.0788 84.9729 46.903 86.9681 46.733 88.2545C46.733 88.2545 46.142 91.8093 46.0145 92.5665C45.7953 93.8403 45.0024 97.5477 50.3778 95.2821C55.7551 93.0165 79.3911 78.1993 89.9603 66.0339H89.9584C97.2595 58.028 100.757 49.9033 100.757 40.8814Z" fill="white"/>
<path d="M40.1421 29.9874H36.6084C36.3484 29.9874 36.099 30.0905 35.9149 30.274C35.7308 30.4576 35.627 30.7067 35.6262 30.9666V52.9178C35.6262 53.4586 36.0666 53.897 36.6084 53.897H40.1421C40.6839 53.897 41.1233 53.4586 41.1233 52.9178V30.9666C41.1233 30.4268 40.6839 29.9874 40.1421 29.9874Z" fill="#06C755"/>
<path d="M64.4649 29.9874H60.9312C60.6713 29.9874 60.422 30.0905 60.2381 30.2741C60.0541 30.4577 59.9505 30.7067 59.95 30.9666V44.0079L49.8907 30.4229C49.8675 30.3882 49.8414 30.3553 49.8144 30.3235L49.8076 30.3177C49.789 30.2965 49.7693 30.2762 49.7487 30.2568L49.7303 30.2404C49.7138 30.2249 49.6964 30.2104 49.6782 30.1969C49.6705 30.1892 49.6618 30.1834 49.6531 30.1767C49.6357 30.1651 49.6193 30.1525 49.6019 30.1419C49.5925 30.1352 49.5825 30.1294 49.572 30.1245C49.5546 30.1139 49.5372 30.1033 49.5198 30.0946C49.5092 30.0898 49.4995 30.084 49.4889 30.0801C49.4706 30.0714 49.4522 30.0627 49.4329 30.056L49.401 30.0444C49.3817 30.0372 49.3621 30.0311 49.3421 30.026L49.3083 30.0164L49.2523 30.0038C49.2385 30.0017 49.2247 30.0001 49.2108 29.999C49.1934 29.9951 49.176 29.9941 49.1586 29.9922C49.1422 29.9903 49.1258 29.9903 49.1084 29.9893L49.0736 29.9874H45.5409C45.2809 29.9874 45.0315 30.0905 44.8474 30.274C44.6633 30.4576 44.5595 30.7067 44.5587 30.9666V52.9178C44.5587 53.4586 44.9991 53.897 45.5409 53.897H49.0736C49.6164 53.897 50.0558 53.4586 50.0558 52.9178V39.8804L60.1277 53.4827C60.2115 53.6009 60.3208 53.6989 60.4474 53.7695L60.4754 53.784C60.4903 53.7927 60.5058 53.8004 60.5217 53.8072L60.57 53.8275C60.6013 53.8399 60.6333 53.8509 60.6656 53.8603L60.6801 53.8632C60.7603 53.8844 60.8443 53.897 60.9312 53.897H64.4649C65.0077 53.897 65.4461 53.4586 65.4461 52.9178V30.9666C65.4461 30.4268 65.0077 29.9874 64.4649 29.9874Z" fill="#06C755"/>
<path d="M31.6239 48.401H22.0224V30.9685C22.0224 30.4267 21.583 29.9873 21.0421 29.9873H17.5075C17.2472 29.9873 16.9976 30.0907 16.8136 30.2747C16.6296 30.4587 16.5262 30.7083 16.5262 30.9685V52.9177C16.5262 53.1813 16.6315 53.4199 16.8005 53.5956L16.814 53.6101L16.8285 53.6237C17.0053 53.7936 17.2428 53.8979 17.5065 53.8979H31.6239C32.1657 53.8979 32.6032 53.4575 32.6032 52.9158V49.3822C32.6032 48.8404 32.1657 48.401 31.6239 48.401Z" fill="#06C755"/>
<path d="M83.9792 35.4838C84.5209 35.4838 84.9584 35.0454 84.9584 34.5026V30.969C84.9584 30.4273 84.5209 29.9869 83.9792 29.9869H69.8607C69.5961 29.9869 69.3576 30.0931 69.1809 30.264L69.1693 30.2747L69.1538 30.2921C68.9791 30.4737 68.8815 30.716 68.8815 30.9681V52.9172C68.8815 53.0492 68.9083 53.1799 68.9602 53.3012C69.0122 53.4226 69.0882 53.5321 69.1838 53.6232C69.3654 53.7988 69.6081 53.8972 69.8607 53.8975H83.9792C84.5209 53.8975 84.9584 53.4571 84.9584 52.9163V49.3817C84.9584 48.8409 84.5209 48.4005 83.9792 48.4005H74.3786V44.6902H83.9792C84.5209 44.6902 84.9584 44.2508 84.9584 43.709V40.1754C84.9584 39.6336 84.5209 39.1932 83.9792 39.1932H74.3786V35.4838H83.9792Z" fill="#06C755"/>
</svg>
