<svg width="12" height="12" viewBox="0 0 12 12" fill="none" xmlns="http://www.w3.org/2000/svg">
<path d="M6.75002 9.75H6.25002C6.25002 9.95223 6.37184 10.1345 6.55868 10.2119C6.74551 10.2893 6.96057 10.2466 7.10357 10.1036L6.75002 9.75ZM10.5 6L10.8536 6.35355C11.0488 6.15829 11.0488 5.84171 10.8536 5.64645L10.5 6ZM6.75002 2.25L7.10357 1.89645C6.96057 1.75345 6.74551 1.71067 6.55868 1.78806C6.37184 1.86545 6.25002 2.04777 6.25002 2.25H6.75002ZM6.75002 4.875V5.375C7.02616 5.375 7.25002 5.15114 7.25002 4.875H6.75002ZM6.75002 7.5H7.25002C7.25002 7.22386 7.02616 7 6.75002 7V7.5ZM4.87498 7C4.59884 7 4.37498 7.22386 4.37498 7.5C4.37498 7.77614 4.59884 8 4.87498 8V7ZM1 9.75C1 10.0261 1.22386 10.25 1.5 10.25C1.77614 10.25 2 10.0261 2 9.75H1ZM7.10357 10.1036L10.8536 6.35355L10.1464 5.64645L6.39646 9.39645L7.10357 10.1036ZM10.8536 5.64645L7.10357 1.89645L6.39646 2.60355L10.1464 6.35355L10.8536 5.64645ZM6.25002 2.25V4.875H7.25002V2.25H6.25002ZM7.25002 9.75V7.5H6.25002V9.75H7.25002ZM6.75002 7H4.87498V8H6.75002V7ZM2 9.75C2 7.18981 4.33346 5.375 6.75002 5.375V4.375C3.9166 4.375 1 6.5112 1 9.75H2Z" fill="#9394A4"/>
</svg>
