<svg width="40" height="40" viewBox="0 0 40 40" fill="none" xmlns="http://www.w3.org/2000/svg">
<path d="M11.5054 11.4634C11.5912 11.445 11.6771 11.4174 11.7506 11.3684C11.8426 11.304 11.907 11.2059 11.9836 11.1201C12.1185 10.9729 12.2473 10.9668 12.4312 10.9913C12.655 11.022 12.931 11.117 12.931 11.117C12.931 11.117 12.7654 10.8656 12.5508 10.7368C12.4067 10.651 12.2381 10.5928 12.1431 10.5652C12.094 10.5498 12.045 10.5437 11.9959 10.5437H11.1559C10.9873 10.5437 10.834 10.6418 10.7604 10.7951L10.693 10.9392L9.20607 12.4567L10.04 12.049C10.4722 11.8374 10.883 11.5922 11.3613 11.4941C11.4103 11.4849 11.4563 11.4757 11.5054 11.4665V11.4634Z" fill="#9394A4"/>
<path d="M34.6825 17.8954C34.1092 14.848 31.5125 12.7572 31.5125 12.7572C31.5125 12.7572 32.1257 12.7173 33.0546 12.9472C33.9835 13.1772 34.3238 13.3458 34.3238 13.3458C34.2962 13.3305 34.2686 12.9963 34.2594 12.9595C34.1858 12.6253 34.0724 12.2973 33.9283 11.9846C33.5451 11.1538 32.9381 10.464 32.2054 9.92134C31.5462 9.43388 30.7123 8.98322 29.8846 8.88818C29.8846 8.88818 30.4518 8.52949 31.5125 8.63066C32.5733 8.73183 33.1833 8.91884 33.1833 8.91884C33.1374 8.90351 33.0515 8.75022 33.0209 8.71343C32.8645 8.52642 32.6989 8.34861 32.5273 8.17693C31.9417 7.59137 31.2795 7.11311 30.5713 6.69004C28.9925 5.74272 27.0856 5.37176 25.2706 5.23687C25.0131 5.21848 24.7556 5.20621 24.4981 5.20315C24.4643 5.20315 24.2528 5.17555 24.2283 5.20315C24.2283 5.20315 24.587 4.78007 26.0401 4.50416C27.4626 4.2313 28.2996 4.2313 28.2996 4.2313C28.2996 4.2313 26.7545 3.10004 24.2651 2.98354C22.0271 2.87624 20.2489 3.76837 20.2459 3.77144C20.3256 3.73159 20.3992 3.45567 20.439 3.36983C20.5463 3.1307 20.6536 2.89157 20.7241 2.64018C20.8835 2.09447 20.8651 1.39242 20.3808 1C20.4114 1.02453 20.1355 1.41694 20.1171 1.44453C19.9485 1.66527 19.7492 1.86454 19.5346 2.03929C18.9307 2.53594 18.2194 2.97128 17.5112 3.29931C16.616 3.71319 15.6871 4.04429 14.7704 4.42751C13.9427 4.77394 13.072 5.07745 12.3332 5.5925C12.0051 5.81936 11.7108 6.12594 11.6004 6.50609C11.4533 7.00274 11.6372 7.53005 11.8181 8.01444C10.9168 8.55095 10.0155 9.08439 9.11412 9.6209L9.10799 10.6019C9.10799 10.6019 5.43828 12.9779 5.42296 12.9871C5.03667 13.2354 5.13171 13.7382 5.2758 14.0969C5.41376 14.4464 5.51493 14.7468 5.5088 15.127C5.50266 15.5071 5.54559 15.8934 5.73566 16.2307C6.24458 17.1504 7.12138 17.3435 7.12138 17.3435C7.08459 17.3343 7.04167 17.8984 7.04167 17.9321C7.04474 18.2755 7.13364 18.5974 7.29 18.904C7.71001 19.7287 8.59907 20.3572 9.53106 20.4307C9.53106 20.4307 10.04 20.0322 10.1963 19.8482C10.3312 19.6888 10.4631 19.5263 10.5949 19.3669C10.6133 19.3455 10.6317 19.3209 10.6531 19.3056C10.6869 19.2811 10.7267 19.2688 10.7666 19.2566C11.0057 19.183 11.2479 19.1125 11.487 19.0389C11.5851 19.3976 11.1712 19.744 10.9781 19.9954C10.4539 20.6729 9.98786 21.3719 9.79165 22.215C9.51267 23.4137 9.74567 24.7688 10.322 25.851C10.322 25.851 10.5121 24.4407 11.1038 24.0238C11.812 23.5241 12.327 23.6896 12.3301 23.6896C12.2443 23.662 11.9132 24.8086 11.8948 24.8761C11.6526 25.8449 11.6035 26.8596 11.6587 27.8529C11.7292 29.1129 11.9438 30.4282 12.4037 31.6115C12.3822 31.5564 12.4405 31.3939 12.4527 31.3387C12.4987 31.0996 12.5508 30.8604 12.6091 30.6244C12.747 30.0572 12.9218 29.4839 13.1701 28.9566C13.6453 27.9388 14.565 27.1202 15.6043 26.7063C15.5093 26.7431 15.3958 27.2735 15.3621 27.3777C15.2855 27.6138 15.218 27.8529 15.1567 28.0921C15.0372 28.5734 14.9513 29.0608 14.8992 29.5544C14.795 30.5263 14.8226 31.5104 14.9881 32.4761C15.0801 33.0126 15.215 33.5399 15.3836 34.0549C15.6718 34.9348 16.058 35.8515 16.5976 36.6118C16.6835 36.7313 16.7785 36.8478 16.8858 36.949C16.941 36.7007 16.9134 36.4094 16.9318 36.1519C16.9532 35.8668 16.9808 35.5848 17.0268 35.3058C17.1862 34.3676 17.5909 33.5276 18.2777 32.8624C18.2777 32.8624 18.3512 34.9195 18.992 36.2684C19.9822 38.3562 22.0301 39 22.0332 39C21.9596 38.9755 22.07 38.0128 22.0792 37.9117C22.1221 37.4978 22.1988 37.09 22.3061 36.6884C22.5789 35.6706 23.0602 34.7509 23.6856 33.9047C24.8752 32.2983 26.2609 30.8727 27.1653 29.067C27.2143 28.9689 27.2603 28.8708 27.3063 28.7726C27.4412 28.4814 27.5362 28.1871 27.6374 27.8897C27.6864 28.1534 27.5761 28.5151 27.5424 28.7849L27.432 29.7138C27.3553 30.3393 27.199 31.0198 27.2327 31.6483C27.2542 32.0591 27.2756 32.4638 27.34 32.8716C27.34 32.8716 27.9317 31.7342 28.3977 30.9708C28.8637 30.2074 29.7037 28.9811 30.0992 27.8161C30.7185 25.9889 30.7461 23.6283 30.7461 23.6038C30.7461 23.6896 30.838 23.8337 30.8656 23.9196C30.9177 24.079 30.9607 24.2384 30.9975 24.4009C31.068 24.7167 31.114 25.0386 31.1415 25.3635C31.209 26.1606 31.1906 26.9792 31.1599 27.7763C31.1599 27.7763 32.7511 25.9798 33.0178 23.7326C33.26 21.6662 32.702 19.2995 32.702 19.2995C32.702 19.2995 33.5972 19.9862 33.959 20.7772C34.3729 21.6816 34.5231 22.589 34.5231 22.589C34.5231 22.589 35.1362 20.3449 34.6733 17.8954H34.6825ZM21.2484 4.04123C23.4189 3.4526 24.636 3.87261 24.636 3.87261C24.636 3.87261 23.7132 4.16386 22.7353 4.62985C21.7573 5.09585 21.1656 5.75805 21.1656 5.75805C21.1656 5.75805 21.7542 5.51585 25.1357 5.9052C28.5173 6.29455 30.5683 7.56684 30.5683 7.56684C30.4242 7.47793 30.2157 7.43808 30.0593 7.38903C29.5811 7.23267 29.0936 7.09778 28.6031 6.98128C26.9169 6.57354 25.1909 6.362 23.4588 6.29149C22.4103 6.24857 21.3587 6.29149 20.3164 6.42638C19.6511 6.50916 18.9552 6.62259 18.3328 6.88318C18.3267 6.88318 18.3236 6.88624 18.3175 6.88931C18.3175 6.88931 18.4831 6.55821 18.9889 6.0401C19.4948 5.52199 20.393 5.04986 20.393 5.04986C20.393 5.04986 19.8626 5.16023 18.9889 5.3503C18.1826 5.52505 17.4162 5.86535 16.6559 6.17192C17.9619 5.08971 19.6296 4.48576 21.2484 4.04736V4.04123ZM25.2921 11.3101C27.386 12.1716 28.0145 13.3918 28.0145 13.3918C28.0145 13.3918 26.8863 12.4874 25.6998 12.0612C24.5134 11.6351 23.2166 11.4481 22.2447 11.3745C21.4844 11.3163 20.7149 11.3438 19.9546 11.3929L21.1625 10.8993L19.8718 10.743C20.344 10.5866 20.8161 10.4303 21.2882 10.2708C20.7946 10.2248 20.3041 10.1819 19.8105 10.1359C19.7645 10.1329 19.7155 10.1267 19.6787 10.0992C19.6297 10.0593 19.648 9.64236 19.6358 9.64236C21.23 9.50133 22.8334 9.47374 24.4337 9.56571C23.5262 9.81097 22.6463 10.1482 21.8094 10.5743C22.9958 10.4916 24.2038 10.8656 25.289 11.3101H25.2921ZM18.2409 8.42525L17.7902 9.58717L17.6216 9.46454C17.6216 9.46454 17.5143 9.32965 17.5112 9.1733C17.5082 9.01694 17.7044 8.55095 17.7044 8.55095C17.7044 8.55095 17.407 8.84219 17.2997 8.99855C17.1924 9.1549 17.2077 9.33885 17.2506 9.44615C17.2935 9.55345 17.7503 10.0041 17.7503 10.0041C17.7503 10.0041 17.7841 10.5866 17.7105 10.5927C17.6369 10.5989 17.643 10.5038 17.5848 10.4027C17.5265 10.3015 17.2445 9.93667 16.9532 9.68221C16.662 9.43082 16.4321 9.36644 16.3554 9.23155C16.2788 9.09665 16.2788 8.90964 16.3156 8.80234C16.3554 8.69504 16.4413 8.56015 16.8797 8.08189C17.3181 7.6067 17.9496 7.44115 18.2439 7.52392C18.5413 7.6067 18.8326 7.89794 18.9521 8.41299C19.0717 8.92804 19.3323 10.4824 19.1851 11.2795C19.038 12.0766 18.1796 12.6008 18.1796 12.6008C18.1796 12.6008 17.9282 11.3776 18.014 10.9882C18.2531 9.89375 18.2378 8.42219 18.2378 8.42219L18.2409 8.42525ZM12.9831 5.75192C13.7587 5.27059 14.4669 4.93949 16.2389 4.31714C18.014 3.6948 19.1361 2.73828 19.1361 2.73828C19.1361 2.73828 18.7866 3.52925 17.9098 4.12707C17.2874 4.55014 16.6252 4.9027 15.9354 5.20008C15.2395 5.49746 14.3964 5.75192 13.8139 6.25163C13.5043 6.51835 13.5411 6.96595 13.5411 6.96595L12.9831 7.27866C12.9831 7.27866 12.9616 7.06712 12.977 6.87705C13.0015 6.54901 13.2927 6.07689 13.2927 6.07382C13.1793 6.25777 12.9708 6.36813 12.8635 6.57354C12.7869 6.71763 12.7378 6.87092 12.7133 7.03033C12.6949 7.1591 12.744 7.3645 12.6704 7.45341C12.5784 7.56071 12.3485 7.63429 12.2228 7.70787C12.2228 7.70787 11.487 6.67164 12.977 5.74885L12.9831 5.75192ZM5.9564 13.076L9.72727 10.7246L9.7334 9.77725L14.5589 6.86478L15.1996 7.11311L13.8967 8.28423L15.1107 8.00218L14.1082 9.74659C14.1082 9.74659 14.4301 9.88148 15.1475 10.5743C15.868 11.2641 16.0948 11.9693 16.0948 11.9693L16.8337 12.0428L16.1776 12.3004C16.1776 12.3004 16.2175 12.5824 16.1684 13.1128C16.1194 13.6432 15.822 13.9681 15.822 13.9681C15.822 13.9681 15.264 13.6125 13.8967 13.3764C12.2718 13.0944 11.0823 13.4592 11.0823 13.4592C11.0823 13.4592 11.7292 13.4255 12.9524 13.9988C13.4981 14.2563 13.9979 14.6886 14.0377 15.3293C14.0316 15.2251 13.4675 14.9737 13.3725 14.9246C13.1333 14.802 12.885 14.6978 12.6275 14.6119C12.1523 14.4525 11.5698 14.2962 11.067 14.336C11.3705 14.5108 11.6863 14.6916 11.9438 14.9369C12.2259 15.2036 12.2596 15.3508 12.2167 15.6114C12.1737 15.872 11.9653 16.0406 11.2142 16.5771C10.3833 17.1749 9.55559 17.1933 8.6144 17.0247C7.67015 16.8561 7.23788 16.433 7.03554 15.9455C6.8332 15.4581 6.94357 14.5108 6.94357 14.5108H7.43409C7.43409 14.5108 7.51993 14.5629 7.82344 14.4372C8.18213 14.287 8.21279 14.0203 8.21279 14.0203L8.01352 14.1766C7.78052 14.3299 7.48621 14.3084 7.24401 14.1674L7.0754 14.0662C6.98955 14.0172 6.88225 14.0233 6.80561 14.0877L6.62166 14.2655C6.52049 14.3636 6.35801 14.3422 6.28137 14.2257C6.1618 14.0386 6.00238 13.7719 5.94413 13.6002C5.84603 13.309 5.95026 13.0791 5.95026 13.0791L5.9564 13.076ZM6.35494 16.4545C5.96559 16.0161 5.86749 15.7156 5.84909 15.2251C5.8307 14.753 5.9564 14.6579 6.03304 14.6426C6.10968 14.6273 6.16487 14.7254 6.22312 14.7346C6.28137 14.7438 6.60634 14.6855 6.60634 14.6855C6.60634 14.6855 6.57261 15.2925 6.74123 15.829C6.90984 16.3625 7.3973 16.9082 7.3973 16.9082C7.3973 16.9082 6.74123 16.8929 6.35188 16.4575L6.35494 16.4545ZM11.2939 18.7047C10.6623 18.9592 10.4631 18.9132 10.4631 18.9132C10.4631 18.9132 10.1779 19.2688 10.0032 19.4589C9.92348 19.5447 9.79472 19.6582 9.67822 19.7563C9.66289 19.6919 9.6445 19.6061 9.6445 19.511C9.63836 19.3117 9.6445 18.9898 9.6445 18.9898C9.6445 18.9898 9.46362 19.324 9.42989 19.5631C9.40843 19.7042 9.4207 19.8544 9.43602 19.9555H9.43296C9.43296 19.9555 9.37164 19.9617 9.26741 19.9494C9.18463 19.882 9.07427 19.7808 8.98536 19.652C8.81981 19.419 8.75236 19.1554 8.75236 19.1554C8.75236 19.1554 8.70331 19.3853 8.70331 19.5294C8.70331 19.6061 8.71557 19.7042 8.7309 19.7808C8.48258 19.6582 8.18826 19.4466 7.89395 19.0941C7.10912 18.1529 7.46475 17.5336 7.53219 17.4294C7.59657 17.3251 8.14228 17.1626 8.14228 17.1626C8.14228 17.1626 8.46725 17.7022 9.54333 17.9413C11.0854 18.2847 12.1155 17.9015 12.1155 17.9015C12.1155 17.9015 11.9285 18.4533 11.3 18.7047H11.2939ZM11.0271 22.9293C10.3558 23.7755 10.2178 24.7351 10.2178 24.7381C10.2331 24.6278 10.1595 24.4469 10.1442 24.3365C10.1013 24.0085 10.0921 23.6835 10.1258 23.3585C10.1994 22.6105 10.4017 21.9605 10.8187 21.329C11.438 20.3909 12.3301 19.7164 13.0567 18.8733C13.5196 18.3368 13.9059 17.7114 14.0255 17.0155C14.0806 17.3006 14.0438 17.5888 13.9672 17.8678C13.8906 18.1468 13.7158 18.4012 13.6576 18.6679C13.8415 18.5698 14.0163 18.3706 14.1695 18.2265C14.4731 17.9383 14.7643 17.6348 15.031 17.3129C15.7178 16.482 16.0305 15.7187 16.0305 15.7187C16.0305 15.7187 16.3616 17.9015 14.0592 20.1242C12.1492 21.9697 11.8825 21.8624 11.0333 22.9293H11.0271ZM14.657 25.1336C13.7557 26.1514 13.023 27.3103 12.5815 28.604C12.4681 28.9413 12.3608 29.2877 12.3025 29.6372C12.3025 29.6372 11.6894 25.6793 14.5313 22.2242C17.0452 19.1646 17.174 17.3374 17.174 17.3374C17.174 17.3374 17.1924 18.579 16.7724 19.8789C16.242 21.5252 14.7367 23.4965 14.7367 23.4965C14.7367 23.4965 17.7044 21.2033 18.2102 18.2602C18.5842 16.0804 17.0697 13.6983 17.0697 13.6983C17.1648 13.8486 17.3947 13.9804 17.5235 14.103C17.7933 14.3575 18.0661 14.6273 18.3022 14.9155C19.415 16.2889 19.4181 18.3092 18.9184 19.931C18.8632 20.1119 18.7988 20.2897 18.7314 20.4645C18.0692 22.1476 16.57 23.2206 15.3192 24.4407C15.0893 24.6645 14.8685 24.8975 14.657 25.1367V25.1336ZM17.9741 30.8451C17.2905 31.958 16.754 33.1567 16.5762 34.4688C16.521 34.8643 16.4811 35.2874 16.5302 35.689C16.5302 35.689 15.3253 33.3161 15.5982 30.4527C15.6779 29.6311 15.7791 28.8002 16.0121 28.0031C16.2543 27.1662 16.6988 26.3906 17.1648 25.6578C18.0722 24.2323 19.1575 22.9508 19.8167 21.3781C19.8289 21.3535 19.8381 21.3259 19.8504 21.3014C20.485 19.7716 20.6015 18.113 20.6015 18.113C20.5954 18.205 20.6444 18.3307 20.6597 18.4257C20.7027 18.7139 20.7272 19.0082 20.7333 19.2995C20.7548 20.2315 20.6046 21.1359 20.3378 22.0249C19.9332 23.3708 19.3783 24.6707 18.6885 25.8908C19.6848 25.2286 20.6444 24.3856 21.2637 23.3493C22.1834 21.8073 22.352 20.9243 22.352 20.9243C22.352 20.9243 22.6617 23.659 21.0307 26.3538C20.3838 27.4237 19.6787 28.4354 18.9368 29.441C18.5996 29.8947 18.2746 30.3607 17.9803 30.842L17.9741 30.8451ZM24.4735 31.1946C24.5257 31.1088 24.5471 31.0076 24.5686 30.9095C24.9089 29.3919 25.1909 27.81 25.0836 26.2495C25.0591 25.8571 25.0131 25.4586 24.9273 25.0754C24.9273 25.0754 24.8782 26.363 22.9468 29.4839C22.2325 30.6397 21.4599 31.8537 21.0399 33.1567C20.5463 34.6804 20.5248 36.3604 21.1779 37.8411C20.2919 36.9643 19.878 35.6921 19.8167 34.4443C19.7155 32.3657 20.4053 30.3392 21.1227 28.4232C21.3005 27.948 21.4814 27.4728 21.65 26.9914C22.9958 23.1623 22.8027 21.7306 22.7138 20.8354C22.6218 19.9402 22.0271 18.7109 22.0271 18.7109C22.0271 18.7109 22.8426 19.2412 23.5446 20.2805C24.2129 21.2708 24.4643 22.4449 24.4643 22.4449C24.4245 22.2518 24.4306 22.0403 24.403 21.844C24.3448 21.3934 24.2589 20.9458 24.1424 20.5074C23.7071 18.8825 22.818 17.3742 21.837 16.0161C21.8186 15.9915 21.8002 15.9639 21.7818 15.9394C21.9014 16.1019 22.1712 16.2337 22.3275 16.3625C23.5937 17.3987 24.7679 18.6281 25.5803 20.0567C26.3866 21.4731 26.7085 23.0305 26.7422 24.6461C26.779 26.5193 26.3682 28.5121 25.3626 30.1216C25.1204 30.5109 24.8292 30.9033 24.4766 31.1977L24.4735 31.1946ZM31.8865 25.2808C31.8865 25.2808 32.1502 23.4045 30.884 20.9366C29.6209 18.4687 28.3824 17.3681 28.3824 17.3681C28.4897 17.4631 28.5449 17.8157 28.5908 17.9444C28.7441 18.3828 28.8852 18.8243 29.0231 19.2658C29.3328 20.2407 29.5412 21.2462 29.6485 22.2641C29.8294 23.9901 29.6731 25.6854 29.3052 27.3777C29.2561 27.5985 29.2071 27.8223 29.1519 28.043C28.879 29.1651 28.2781 30.1829 27.76 31.2038C27.8643 30.9984 27.8857 30.6949 27.9378 30.4711C27.9961 30.2166 28.0482 29.9591 28.0973 29.7046C28.1954 29.1896 28.2751 28.6745 28.3395 28.1564C28.4651 27.1325 28.5326 26.1054 28.4774 25.0754C28.3793 23.285 27.8121 21.5712 26.9415 20.0077C26.7667 19.695 26.5797 19.3853 26.3866 19.0849C25.5374 17.7543 23.888 16.4269 22.6157 15.5255C21.3434 14.6273 18.1336 13.3764 18.1336 13.3764C18.1336 13.3764 20.6904 13.5083 23.2135 14.5966C25.7366 15.685 27.1162 17.181 27.1162 17.181C27.1162 17.181 26.6686 15.8628 25.1633 14.566C23.658 13.2691 23.1614 13.0484 23.1614 13.0484C23.1614 13.0484 25.6569 13.6708 27.4044 14.94C28.7901 15.9425 29.949 17.2699 30.7553 18.7783C30.7154 17.9812 30.6142 17.1841 30.4548 16.4023C30.4701 16.4759 30.5928 16.5894 30.6388 16.6568C30.7093 16.758 30.7767 16.8622 30.8411 16.9664C30.9668 17.1688 31.0833 17.3742 31.1937 17.5857C31.4083 18.0027 31.5891 18.438 31.7394 18.8825C32.0643 19.839 32.2544 20.8477 32.3249 21.8532C32.4016 22.9661 32.3556 24.1311 31.9386 25.1796C31.9264 25.2102 31.9019 25.2501 31.8957 25.2808H31.8865ZM30.4885 13.3519C29.4186 12.2574 28.2107 11.2887 26.8955 10.5038C26.7606 10.4241 26.6257 10.3444 26.4877 10.2739C26.4877 10.2739 27.1009 10.2095 27.8581 10.234C28.6154 10.2586 29.1887 10.3444 29.1887 10.3444C29.1887 10.3444 28.1831 9.37257 25.5956 8.71956C23.0112 8.06962 21.5365 7.89794 21.5365 7.89794C21.5365 7.89794 24.5287 7.56071 28.0145 8.73489C32.7143 10.3138 33.3673 12.331 33.3673 12.331C33.3673 12.331 32.5518 12.0214 31.491 11.8834C30.4303 11.7485 29.716 11.8313 29.716 11.8313C29.716 11.8313 30.976 12.7786 32.1073 14.2992C32.9626 15.4458 33.5727 16.7978 33.9743 18.1651C33.9161 17.9659 33.7566 17.7574 33.6555 17.5765C33.542 17.3742 33.4225 17.1718 33.3029 16.9756C33.0607 16.5771 32.8032 16.1908 32.5365 15.8106C31.9969 15.0503 31.4083 14.3299 30.7706 13.6493C30.6756 13.5481 30.5805 13.45 30.4855 13.3519H30.4885Z" fill="#9394A4"/>
</svg>
