<svg width="16" height="16" viewBox="0 0 16 16" fill="none" xmlns="http://www.w3.org/2000/svg">
<path d="M13 6.75C13 10.5 8 14.25 8 14.25C8 14.25 3 10.5 3 6.75C3 5.42392 3.52678 4.15215 4.46447 3.21447C5.40215 2.27678 6.67392 1.75 8 1.75C9.32608 1.75 10.5979 2.27678 11.5355 3.21447C12.4732 4.15215 13 5.42392 13 6.75V6.75Z" stroke="#9394A4" stroke-linecap="round" stroke-linejoin="round"/>
<path d="M8 8.625C9.03553 8.625 9.875 7.78553 9.875 6.75C9.875 5.71447 9.03553 4.875 8 4.875C6.96447 4.875 6.125 5.71447 6.125 6.75C6.125 7.78553 6.96447 8.625 8 8.625Z" stroke="#9394A4" stroke-linecap="round" stroke-linejoin="round"/>
</svg>
