<svg width="20" height="20" viewBox="0 0 20 20" fill="none" xmlns="http://www.w3.org/2000/svg">
<path d="M15 9C15 12.75 10 16.5 10 16.5C10 16.5 5 12.75 5 9C5 7.67392 5.52678 6.40215 6.46447 5.46447C7.40215 4.52678 8.67392 4 10 4C11.3261 4 12.5979 4.52678 13.5355 5.46447C14.4732 6.40215 15 7.67392 15 9V9Z" stroke="#4C00EE" stroke-linecap="round" stroke-linejoin="round"/>
<path d="M10 10.8746C11.0355 10.8746 11.875 10.0352 11.875 8.99963C11.875 7.9641 11.0355 7.12463 10 7.12463C8.96447 7.12463 8.125 7.9641 8.125 8.99963C8.125 10.0352 8.96447 10.8746 10 10.8746Z" stroke="#4C00EE" stroke-linecap="round" stroke-linejoin="round"/>
</svg>
