<svg width="80" height="80" viewBox="0 0 80 80" fill="none" xmlns="http://www.w3.org/2000/svg">
<path d="M49.2308 25.6113H30.7692C27.583 25.6113 25 28.1943 25 31.3806V56.1883C25 59.3745 27.583 61.9575 30.7692 61.9575H49.2308C52.417 61.9575 55 59.3745 55 56.1883V31.3806C55 28.1943 52.417 25.6113 49.2308 25.6113Z" stroke="#4C00EE" stroke-width="2" stroke-linecap="round" stroke-linejoin="round"/>
<path d="M50.0962 21.5385C50.0962 23.7654 48.2846 25.5769 46.0577 25.5769H33.9423C31.7154 25.5769 29.9039 23.7654 29.9039 21.5385C29.9039 19.3115 31.7154 17.5 33.9423 17.5H46.0577C48.2846 17.5 50.0962 19.3115 50.0962 21.5385Z" fill="#68EDF5" stroke="#4C00EE" stroke-width="2" stroke-linecap="round" stroke-linejoin="round"/>
<path d="M40 38.1069V46.3569" stroke="#4C00EE" stroke-width="2" stroke-linecap="round" stroke-linejoin="round"/>
<path d="M35.8692 42.2373H44.1308" stroke="#4C00EE" stroke-width="2" stroke-linecap="round" stroke-linejoin="round"/>
</svg>
