<svg width="16" height="16" viewBox="0 0 16 16" fill="none" xmlns="http://www.w3.org/2000/svg">
<path d="M2 7.33333L14 4V12L2 9.33333V7.33333Z" stroke="white" stroke-linecap="round" stroke-linejoin="round"/>
<path d="M7.73335 11.2C7.66331 11.4539 7.54395 11.6915 7.38208 11.8992C7.22022 12.107 7.01901 12.2808 6.78996 12.4108C6.56091 12.5408 6.3085 12.6244 6.04713 12.6569C5.78577 12.6894 5.52057 12.67 5.26668 12.6C5.01279 12.5299 4.77518 12.4106 4.56742 12.2487C4.35966 12.0868 4.18582 11.8856 4.05582 11.6566C3.92581 11.4275 3.8422 11.1751 3.80975 10.9138C3.77729 10.6524 3.79664 10.3872 3.86668 10.1333" stroke="white" stroke-linecap="round" stroke-linejoin="round"/>
</svg>
