<svg width="24" height="24" viewBox="0 0 24 24" fill="none" xmlns="http://www.w3.org/2000/svg">
<path d="M4 10.4444L20 6V16.6667L4 13.1111V10.4444Z" stroke="#181C34" stroke-width="1.5" stroke-linecap="round" stroke-linejoin="round"/>
<path d="M11.6445 15.6001C11.5511 15.9386 11.3919 16.2554 11.1761 16.5324C10.9603 16.8094 10.692 17.0412 10.3866 17.2146C10.0812 17.3879 9.74465 17.4994 9.39617 17.5427C9.04768 17.5859 8.69408 17.5601 8.35556 17.4667C8.01704 17.3734 7.70023 17.2142 7.42322 16.9984C7.1462 16.7826 6.91441 16.5143 6.74108 16.2089C6.56774 15.9035 6.45626 15.5669 6.41299 15.2185C6.36972 14.87 6.39551 14.5164 6.4889 14.1779" stroke="#181C34" stroke-width="1.5" stroke-linecap="round" stroke-linejoin="round"/>
</svg>
