<svg width="16" height="16" viewBox="0 0 16 16" fill="none" xmlns="http://www.w3.org/2000/svg">
<path d="M13.4444 1H2.55556C1.69645 1 1 1.69645 1 2.55556V13.4444C1 14.3036 1.69645 15 2.55556 15H13.4444C14.3036 15 15 14.3036 15 13.4444V2.55556C15 1.69645 14.3036 1 13.4444 1Z" stroke="#9394A4" stroke-linecap="round" stroke-linejoin="round"/>
<path d="M10.5455 6.4091C11.2484 6.4091 11.8182 5.83928 11.8182 5.13637C11.8182 4.43347 11.2484 3.86365 10.5455 3.86365C9.84255 3.86365 9.27274 4.43347 9.27274 5.13637C9.27274 5.83928 9.84255 6.4091 10.5455 6.4091Z" stroke="#9394A4" stroke-linecap="round" stroke-linejoin="round"/>
<path d="M2.90909 11.5L6.65687 8.75163C7.24828 8.31792 8.06659 8.37546 8.5915 8.88766L9.66895 9.93902C10.0368 10.298 10.6169 10.3196 11.0104 9.98908L13 8.31822" stroke="#9394A4" stroke-linecap="round" stroke-linejoin="round"/>
</svg>
