<svg width="16" height="16" viewBox="0 0 16 16" fill="none" xmlns="http://www.w3.org/2000/svg">
<path d="M7.99999 11.9C10.8719 11.9 13.2 9.57188 13.2 6.7C13.2 3.82812 10.8719 1.5 7.99999 1.5C5.12811 1.5 2.79999 3.82812 2.79999 6.7C2.79999 9.57188 5.12811 11.9 7.99999 11.9Z" stroke="#4C00EE" stroke-linecap="round" stroke-linejoin="round"/>
<path d="M7.99999 8.65C9.07694 8.65 9.94999 7.77696 9.94999 6.7C9.94999 5.62304 9.07694 4.75 7.99999 4.75C6.92303 4.75 6.04999 5.62304 6.04999 6.7C6.04999 7.77696 6.92303 8.65 7.99999 8.65Z" stroke="#4C00EE" stroke-linecap="round" stroke-linejoin="round"/>
<path d="M4.74988 14.5H11.2499" stroke="#4C00EE" stroke-linecap="round" stroke-linejoin="round"/>
<path d="M7.99988 14.4999V11.8999" stroke="#4C00EE" stroke-linecap="round" stroke-linejoin="round"/>
</svg>
