<svg width="24" height="24" viewBox="0 0 24 24" fill="none" xmlns="http://www.w3.org/2000/svg">
<path d="M20 12.3116V11.6884C20 11.1669 19.6566 10.7091 19.1606 10.5564L18.4293 10.3339C18.0922 10.2321 17.8188 9.9841 17.6852 9.65978V9.64706C17.5453 9.31638 17.558 8.94754 17.7234 8.62957L18.0859 7.95549C18.3339 7.49762 18.2448 6.93164 17.876 6.5628L17.4372 6.12401C17.0684 5.75517 16.5024 5.6725 16.0445 5.91415L15.3704 6.27663C15.0588 6.44197 14.6836 6.46105 14.3529 6.32114H14.3402C14.0159 6.18124 13.7679 5.90779 13.6661 5.57075L13.4436 4.83943C13.2909 4.3434 12.8331 4 12.3116 4H11.6884C11.1669 4 10.7091 4.3434 10.5564 4.83943L10.3339 5.57075C10.2321 5.90779 9.9841 6.18124 9.65978 6.31479H9.64706C9.31638 6.45469 8.94754 6.44197 8.62957 6.27663L7.95549 5.91415C7.49762 5.66614 6.93164 5.75517 6.5628 6.12401L6.12401 6.5628C5.75517 6.93164 5.6725 7.49762 5.91415 7.95549L6.27663 8.62957C6.44197 8.94118 6.46105 9.31638 6.32114 9.64706V9.65978C6.18124 9.9841 5.90779 10.2321 5.57075 10.3339L4.83943 10.5564C4.3434 10.7091 4 11.1669 4 11.6884V12.3116C4 12.8331 4.3434 13.2909 4.83943 13.4436L5.57075 13.6661C5.90779 13.7679 6.18124 14.0159 6.31479 14.3402V14.3529C6.45469 14.6836 6.44197 15.0525 6.27663 15.3704L5.91415 16.0445C5.66614 16.5024 5.75517 17.0684 6.12401 17.4372L6.5628 17.876C6.93164 18.2448 7.49762 18.3275 7.95549 18.0859L8.62957 17.7234C8.94118 17.558 9.31638 17.539 9.64706 17.6789H9.65978C9.9841 17.8188 10.2321 18.0922 10.3339 18.4293L10.5564 19.1606C10.7091 19.6566 11.1669 20 11.6884 20H12.3116C12.8331 20 13.2909 19.6566 13.4436 19.1606L13.6661 18.4293C13.7679 18.0922 14.0159 17.8188 14.3402 17.6852H14.3529C14.6836 17.5453 15.0525 17.558 15.3704 17.7234L16.0445 18.0859C16.5024 18.3339 17.0684 18.2448 17.4372 17.876L17.876 17.4372C18.2448 17.0684 18.3275 16.5024 18.0859 16.0445L17.7234 15.3704C17.558 15.0588 17.539 14.6836 17.6789 14.3529V14.3402C17.8188 14.0159 18.0922 13.7679 18.4293 13.6661L19.1606 13.4436C19.6566 13.2909 20 12.8331 20 12.3116V12.3116Z" stroke="#181C34" stroke-width="1.5" stroke-linecap="round" stroke-linejoin="round"/>
<path d="M12 14.8571C13.578 14.8571 14.8571 13.5779 14.8571 12C14.8571 10.422 13.578 9.14282 12 9.14282C10.422 9.14282 9.14285 10.422 9.14285 12C9.14285 13.5779 10.422 14.8571 12 14.8571Z" stroke="#181C34" stroke-width="1.5" stroke-linecap="round" stroke-linejoin="round"/>
</svg>
