<svg width="16" height="16" viewBox="0 0 16 16" fill="none" xmlns="http://www.w3.org/2000/svg">
<path d="M4.5 11V7.18182C4.5 6.33795 4.86875 5.52864 5.52513 4.93193C6.1815 4.33523 7.07174 4 8 4C8.92826 4 9.8185 4.33523 10.4749 4.93193C11.1313 5.52864 11.5 6.33795 11.5 7.18182V11" stroke="#9394A4" stroke-linecap="round" stroke-linejoin="round"/>
<path d="M3 12.5C3 12.1022 3.15051 11.7206 3.41842 11.4393C3.68633 11.158 4.04969 11 4.42857 11H11.5714C11.9503 11 12.3137 11.158 12.5816 11.4393C12.8495 11.7206 13 12.1022 13 12.5V14H3V12.5Z" stroke="#9394A4" stroke-linecap="round" stroke-linejoin="round"/>
<path d="M12.4078 2.68518L12.0708 3.02222" stroke="#9394A4" stroke-linecap="round" stroke-linejoin="round"/>
<path d="M8.02631 1V1.67407" stroke="#9394A4" stroke-linecap="round" stroke-linejoin="round"/>
<path d="M3.26001 2.97424L3.73658 3.45081" stroke="#9394A4" stroke-linecap="round" stroke-linejoin="round"/>
</svg>
