<svg width="12" height="12" viewBox="0 0 12 12" fill="none" xmlns="http://www.w3.org/2000/svg">
<path d="M5.73104 1.7943C5.84114 1.5715 6.15886 1.5715 6.26896 1.7943L7.47523 4.23551C7.51892 4.32392 7.60326 4.38522 7.70084 4.39946L10.3983 4.79333C10.6444 4.82926 10.7424 5.13178 10.5642 5.3052L8.61319 7.20349C8.54234 7.27242 8.51 7.37184 8.52672 7.46927L8.98716 10.151C9.02923 10.396 8.77207 10.583 8.55196 10.4673L6.13952 9.2C6.05217 9.15411 5.94783 9.15411 5.86048 9.2L3.44804 10.4673C3.22793 10.583 2.97077 10.396 3.01284 10.151L3.47328 7.46927C3.49 7.37184 3.45766 7.27242 3.38681 7.20349L1.4358 5.3052C1.25756 5.13178 1.35559 4.82926 1.60166 4.79333L4.29916 4.39946C4.39674 4.38522 4.48108 4.32392 4.52477 4.23551L5.73104 1.7943Z" fill="#4C00EE"/>
</svg>
