<svg width="48" height="48" viewBox="0 0 48 48" fill="none" xmlns="http://www.w3.org/2000/svg">
<path d="M33 34.6773C33 32.0909 30.6185 30 27.6827 30H20.3126C17.3768 30 15 32.0955 15 34.6773V37.8182H33V34.6773Z" fill="white" stroke="#4C00EE" stroke-width="1.5" stroke-miterlimit="10" stroke-linejoin="round"/>
<path d="M29.9966 19.9753V17.2269C29.9966 17.2269 30.1823 14.0435 27.7967 13.7865C27.7967 13.7865 22.5241 12.6396 22.378 10C22.378 10 16.3431 13.8013 18.4442 20" fill="#68EDF5"/>
<path d="M29.9966 19.9753V17.2269C29.9966 17.2269 30.1823 14.0435 27.7967 13.7865C27.7967 13.7865 22.5241 12.6396 22.378 10C22.378 10 16.3431 13.8013 18.4442 20" stroke="#4C00EE" stroke-width="1.5" stroke-miterlimit="10" stroke-linejoin="round"/>
<path d="M25.2069 17.6435C26.5513 17.2688 28.6443 18.0712 29.5991 19.3045C29.5991 19.52 29.5991 19.6199 29.5991 19.6449V21.996C29.5991 24.4907 27.128 26.5108 24.0764 26.5108C21.0247 26.5108 18.5536 24.4907 18.5536 21.996V19.3045C18.5536 19.3045 21.8153 19.3701 25.2031 17.6435H25.2069Z" fill="white" stroke="#4C00EE" stroke-width="1.5" stroke-miterlimit="10" stroke-linejoin="round"/>
</svg>
