<svg width="80" height="80" viewBox="0 0 80 80" fill="none" xmlns="http://www.w3.org/2000/svg">
<path d="M55 58.1287C55 53.8181 51.0308 50.3333 46.1378 50.3333H33.8544C28.9614 50.3333 25 53.8257 25 58.1287V63.3636H55V58.1287Z" fill="white" stroke="#4C00EE" stroke-width="2" stroke-miterlimit="10" stroke-linejoin="round"/>
<path d="M49.9944 33.6255V29.0448C49.9944 29.0448 50.3038 23.7392 46.3279 23.3108C46.3279 23.3108 37.5402 21.3994 37.2966 17C37.2966 17 27.2384 23.3355 30.7404 33.6667" fill="#68EDF5"/>
<path d="M49.9944 33.6255V29.0448C49.9944 29.0448 50.3038 23.7392 46.3279 23.3108C46.3279 23.3108 37.5402 21.3994 37.2966 17C37.2966 17 27.2384 23.3355 30.7404 33.6667" stroke="#4C00EE" stroke-width="2" stroke-miterlimit="10" stroke-linejoin="round"/>
<path d="M42.4447 29.4887C44.7573 28.8615 48.3575 30.2048 50 32.2695C50 32.6301 50 32.7974 50 32.8392V36.7752C50 40.9516 45.7493 44.3335 40.5 44.3335C35.2507 44.3335 31 40.9516 31 36.7752V32.2695C31 32.2695 36.6107 32.3793 42.4381 29.4887H42.4447Z" fill="white" stroke="#4C00EE" stroke-width="2" stroke-miterlimit="10" stroke-linejoin="round"/>
</svg>
