<svg width="48" height="48" viewBox="0 0 48 48" fill="none" xmlns="http://www.w3.org/2000/svg">
<path d="M19.4385 11.1333C17.727 12.4609 15.9675 14.3058 15.5676 16.2733C15.1677 18.2407 15.333 20.4855 15.333 20.4855C15.333 20.7361 15.1784 20.9813 14.9064 21.1626C14.3252 21.5519 14.0053 22.0637 14.0053 22.6022H14C14 23.0928 14.2719 23.5673 14.7731 23.9459L14.8318 23.9939C15.0664 24.1698 15.1943 24.3991 15.1943 24.6284V28.622C15.1943 28.9952 15.6742 29.5764 16.2714 29.5764H18.9853C19.9824 29.587 20.6542 30.6108 20.3503 31.5545C20.3503 31.5545 20.425 32.8555 17.9829 38.8806" stroke="#4C00EE" stroke-width="1.5" stroke-miterlimit="10" stroke-linecap="round" stroke-linejoin="round"/>
<mask id="path-2-inside-1_423_342" fill="white">
<path d="M17.1832 11.885C18.9907 10.0775 21.4913 8.97381 24.2533 9.00047C29.6971 9.05912 34 13.6766 34 19.1204V39.6696C34 39.6696 33.9893 39.691 33.9787 39.691H21.502C21.502 39.691 21.4807 39.6803 21.486 39.6696L23.0376 33.0847C23.4961 31.1279 23.4961 29.1018 23.0376 27.161C22.803 26.1586 22.3444 25.2255 21.7473 24.3884C20.9155 23.226 19.5772 21.1839 18.7347 19.0831C17.759 16.6464 17.1885 11.8904 17.1885 11.8904"/>
</mask>
<path d="M17.1832 11.885C18.9907 10.0775 21.4913 8.97381 24.2533 9.00047C29.6971 9.05912 34 13.6766 34 19.1204V39.6696C34 39.6696 33.9893 39.691 33.9787 39.691H21.502C21.502 39.691 21.4807 39.6803 21.486 39.6696L23.0376 33.0847C23.4961 31.1279 23.4961 29.1018 23.0376 27.161C22.803 26.1586 22.3444 25.2255 21.7473 24.3884C20.9155 23.226 19.5772 21.1839 18.7347 19.0831C17.759 16.6464 17.1885 11.8904 17.1885 11.8904" fill="#68EDF5"/>
<path d="M16.1225 10.8244C15.5367 11.4102 15.5367 12.3599 16.1225 12.9457C16.7083 13.5315 17.658 13.5315 18.2438 12.9457L16.1225 10.8244ZM24.2533 9.00047L24.2694 7.50056L24.2677 7.50054L24.2533 9.00047ZM34 39.6696L35.3417 40.3404C35.4458 40.1321 35.5 39.9025 35.5 39.6696H34ZM21.502 39.691L20.8311 41.0326C21.0394 41.1367 21.2691 41.191 21.502 41.191V39.691ZM21.486 39.6696L22.8276 40.3404C22.8796 40.2365 22.9194 40.1268 22.946 40.0136L21.486 39.6696ZM23.0376 33.0847L24.4976 33.4287L24.498 33.4269L23.0376 33.0847ZM23.0376 27.161L21.5771 27.5028L21.5778 27.5059L23.0376 27.161ZM21.7473 24.3884L22.9684 23.5172L22.9671 23.5155L21.7473 24.3884ZM18.7347 19.0831L17.3422 19.6407L17.3425 19.6414L18.7347 19.0831ZM18.6778 11.7117C18.5791 10.8892 17.8324 10.3024 17.0098 10.401C16.1873 10.4997 15.6005 11.2465 15.6992 12.069L18.6778 11.7117ZM18.2438 12.9457C19.7772 11.4123 21.8946 10.4778 24.2388 10.5004L24.2677 7.50054C21.088 7.46985 18.2041 8.74276 16.1225 10.8244L18.2438 12.9457ZM24.2371 10.5004C28.8074 10.5496 32.5 14.4461 32.5 19.1204H35.5C35.5 12.907 30.5869 7.56862 24.2694 7.50056L24.2371 10.5004ZM32.5 19.1204V39.6696H35.5V19.1204H32.5ZM34 39.6696C32.6583 38.9989 32.6584 38.9986 32.6586 38.9984C32.6586 38.9983 32.6587 38.998 32.6588 38.9978C32.659 38.9975 32.6592 38.9971 32.6594 38.9968C32.6597 38.9961 32.6601 38.9954 32.6604 38.9947C32.6612 38.9932 32.6619 38.9918 32.6626 38.9903C32.6641 38.9874 32.6656 38.9845 32.6672 38.9814C32.6703 38.9754 32.6737 38.969 32.6773 38.9623C32.6843 38.9491 32.6927 38.9339 32.7024 38.9172C32.7201 38.887 32.7503 38.8377 32.7933 38.7804C32.8298 38.7317 32.9142 38.6246 33.0494 38.5164C33.1638 38.4248 33.4893 38.191 33.9787 38.191V41.191C34.4734 41.191 34.8042 40.9544 34.9236 40.8589C35.0638 40.7467 35.1529 40.6342 35.1934 40.5802C35.2404 40.5175 35.2739 40.4629 35.2939 40.4287C35.3048 40.41 35.3141 40.3931 35.3218 40.3788C35.3257 40.3715 35.3293 40.3647 35.3326 40.3583C35.3342 40.3551 35.3358 40.352 35.3373 40.349C35.3381 40.3475 35.3388 40.3461 35.3395 40.3446C35.3399 40.3439 35.3403 40.3432 35.3406 40.3425C35.3408 40.3421 35.341 40.3418 35.3412 40.3414C35.3412 40.3412 35.3414 40.341 35.3414 40.3409C35.3416 40.3406 35.3417 40.3404 34 39.6696ZM33.9787 38.191H21.502V41.191H33.9787V38.191ZM21.502 39.691C22.1729 38.3493 22.1732 38.3495 22.1735 38.3497C22.1736 38.3497 22.174 38.3499 22.1742 38.35C22.1746 38.3502 22.1751 38.3504 22.1755 38.3507C22.1764 38.3511 22.1773 38.3515 22.1782 38.352C22.18 38.3529 22.1818 38.3538 22.1836 38.3548C22.1873 38.3566 22.191 38.3586 22.1949 38.3606C22.2026 38.3646 22.2108 38.3689 22.2194 38.3737C22.2364 38.3829 22.2565 38.3943 22.2787 38.4078C22.3175 38.4315 22.3881 38.4768 22.4682 38.5454C22.5317 38.5999 22.7002 38.7512 22.8279 39.0067C22.8975 39.1459 22.9692 39.3444 22.9829 39.5904C22.9971 39.8476 22.9447 40.1064 22.8276 40.3404L20.1444 38.9988C19.8795 39.5285 19.9908 40.0406 20.1446 40.3482C20.2748 40.6087 20.4476 40.7647 20.5158 40.8231C20.6005 40.8958 20.6761 40.9444 20.7188 40.9704C20.743 40.9851 20.7646 40.9974 20.7828 41.0073C20.792 41.0123 20.8006 41.0169 20.8086 41.0211C20.8126 41.0232 20.8165 41.0252 20.8203 41.0271C20.8222 41.028 20.824 41.029 20.8258 41.0299C20.8267 41.0303 20.8276 41.0308 20.8285 41.0312C20.8289 41.0315 20.8294 41.0317 20.8298 41.0319C20.83 41.032 20.8304 41.0322 20.8305 41.0322C20.8308 41.0324 20.8311 41.0326 21.502 39.691ZM22.946 40.0136L24.4976 33.4287L21.5776 32.7407L20.026 39.3256L22.946 40.0136ZM24.498 33.4269C25.0091 31.246 25.0097 28.9846 24.4974 26.8161L21.5778 27.5059C21.9825 29.2189 21.9832 31.0098 21.5772 32.7425L24.498 33.4269ZM24.4981 26.8191C24.2118 25.5956 23.6592 24.4856 22.9684 23.5172L20.5261 25.2595C21.0297 25.9654 21.3942 26.7215 21.5771 27.5028L24.4981 26.8191ZM22.9671 23.5155C22.1606 22.3884 20.9032 20.4604 20.127 18.5248L17.3425 19.6414C18.2512 21.9073 19.6704 24.0636 20.5274 25.2613L22.9671 23.5155ZM20.1272 18.5255C19.7021 17.4638 19.3365 15.8004 19.0727 14.3113C18.9441 13.5854 18.8449 12.9322 18.778 12.4607C18.7445 12.2252 18.7192 12.0359 18.7024 11.9063C18.694 11.8416 18.6877 11.7918 18.6836 11.7588C18.6815 11.7423 18.68 11.73 18.6791 11.7221C18.6786 11.7181 18.6782 11.7152 18.678 11.7135C18.6779 11.7126 18.6778 11.7121 18.6778 11.7118C18.6778 11.7116 18.6778 11.7115 18.6778 11.7115C18.6778 11.7115 18.6778 11.7116 18.6778 11.7116C18.6778 11.7116 18.6778 11.7117 17.1885 11.8904C15.6992 12.069 15.6992 12.0691 15.6992 12.0693C15.6992 12.0694 15.6992 12.0695 15.6992 12.0697C15.6993 12.0699 15.6993 12.0703 15.6994 12.0707C15.6995 12.0716 15.6996 12.0727 15.6998 12.0741C15.7001 12.077 15.7006 12.081 15.7012 12.0861C15.7025 12.0963 15.7043 12.111 15.7067 12.1299C15.7114 12.1678 15.7183 12.2226 15.7274 12.2927C15.7456 12.4327 15.7725 12.634 15.8078 12.8825C15.8783 13.3789 15.9827 14.067 16.1187 14.8346C16.3841 16.3327 16.7917 18.2658 17.3422 19.6407L20.1272 18.5255Z" fill="#4C00EE" mask="url(#path-2-inside-1_423_342)"/>
</svg>
