<svg width="20" height="20" viewBox="0 0 20 20" fill="none" xmlns="http://www.w3.org/2000/svg">
<path d="M9.96054 16.4564H16.8745" stroke="#4C00EE" stroke-linecap="round" stroke-linejoin="round"/>
<path d="M5.91144 16.1017L5.86063 15.6043L5.91144 16.1017ZM2.89832 13.0886L3.39573 13.1394L2.89832 13.0886ZM2.61792 15.8339L2.1205 15.7831L2.61792 15.8339ZM3.16613 16.3821L3.21694 16.8795L3.16613 16.3821ZM3.11533 15.8847L3.39573 13.1394L2.4009 13.0378L2.1205 15.7831L3.11533 15.8847ZM3.34059 13.2554L12.6869 3.90911L11.9798 3.202L2.63348 12.5483L3.34059 13.2554ZM15.0909 6.31311L5.74459 15.6594L6.4517 16.3665L15.798 7.02022L15.0909 6.31311ZM5.86063 15.6043L3.11533 15.8847L3.21694 16.8795L5.96224 16.5991L5.86063 15.6043ZM5.74459 15.6594C5.77578 15.6282 5.81676 15.6088 5.86063 15.6043L5.96224 16.5991C6.14729 16.5802 6.32016 16.498 6.4517 16.3665L5.74459 15.6594ZM15.0909 3.90911C15.7547 4.57296 15.7547 5.64927 15.0909 6.31311L15.798 7.02022C16.8524 5.96585 16.8524 4.25637 15.798 3.202L15.0909 3.90911ZM12.6869 3.90911C13.3507 3.24526 14.427 3.24526 15.0909 3.90911L15.798 3.202C14.7436 2.14763 13.0341 2.14763 11.9798 3.202L12.6869 3.90911ZM3.39573 13.1394C3.39125 13.1832 3.37177 13.2242 3.34059 13.2554L2.63348 12.5483C2.50195 12.6798 2.4198 12.8527 2.4009 13.0378L3.39573 13.1394ZM2.1205 15.7831C2.05613 16.4133 2.58665 16.9439 3.21694 16.8795L3.11533 15.8847L2.1205 15.7831Z" fill="#4C00EE"/>
</svg>
