<svg width="16" height="16" viewBox="0 0 16 16" fill="none" xmlns="http://www.w3.org/2000/svg">
<path d="M7.96841 13.1652H13.4996" stroke="#9394A4" stroke-linecap="round" stroke-linejoin="round"/>
<path d="M4.72913 12.8813L4.77993 13.3787L4.72913 12.8813ZM2.31863 10.4708L1.82122 10.42L2.31863 10.4708ZM2.655 13.0932L2.60419 12.5958L2.655 13.0932ZM2.60419 12.5958L2.81604 10.5216L1.82122 10.42L1.60937 12.4941L2.60419 12.5958ZM2.74316 10.675L10.2202 3.19797L9.51309 2.49087L2.03605 9.9679L2.74316 10.675ZM12.002 4.97976L4.52494 12.4568L5.23204 13.1639L12.7091 5.68686L12.002 4.97976ZM4.67832 12.3839L2.60419 12.5958L2.7058 13.5906L4.77993 13.3787L4.67832 12.3839ZM4.52494 12.4568C4.56616 12.4156 4.62033 12.3898 4.67832 12.3839L4.77993 13.3787C4.95086 13.3613 5.11055 13.2854 5.23204 13.1639L4.52494 12.4568ZM12.002 3.19797C12.494 3.69 12.494 4.48773 12.002 4.97976L12.7091 5.68686C13.5916 4.80431 13.5916 3.37342 12.7091 2.49087L12.002 3.19797ZM10.2202 3.19797C10.7122 2.70595 11.5099 2.70595 12.002 3.19797L12.7091 2.49087C11.8265 1.60832 10.3956 1.60832 9.51309 2.49087L10.2202 3.19797ZM2.81604 10.5216C2.81012 10.5796 2.78437 10.6338 2.74316 10.675L2.03605 9.9679C1.91455 10.0894 1.83867 10.2491 1.82122 10.42L2.81604 10.5216ZM1.60937 12.4941C1.54499 13.1244 2.07551 13.655 2.7058 13.5906L2.60419 12.5958L2.60419 12.5958L1.60937 12.4941Z" fill="#9394A4"/>
</svg>
