<svg width="12" height="12" viewBox="0 0 12 12" fill="none" xmlns="http://www.w3.org/2000/svg">
<path d="M5.97633 9.87378H10.1247" stroke="#9394A4" stroke-linecap="round" stroke-linejoin="round"/>
<path d="M3.54686 9.66096L3.49606 9.16355L3.54686 9.66096ZM1.73899 7.85309L2.2364 7.90389L1.73899 7.85309ZM1.59569 9.25604L2.0931 9.30684L1.59569 9.25604ZM2.14391 9.80425L2.0931 9.30684L2.14391 9.80425ZM2.0931 9.30684L2.2364 7.90389L1.24157 7.80228L1.09828 9.20523L2.0931 9.30684ZM2.14577 8.09462L7.75355 2.48684L7.04644 1.77973L1.43866 7.38751L2.14577 8.09462ZM8.91311 3.6464L3.30533 9.25418L4.01244 9.96128L9.62022 4.3535L8.91311 3.6464ZM3.49606 9.16355L2.0931 9.30684L2.19471 10.3017L3.59766 10.1584L3.49606 9.16355ZM3.30533 9.25418C3.35658 9.20292 3.42395 9.17091 3.49606 9.16355L3.59766 10.1584C3.75448 10.1424 3.90098 10.0727 4.01244 9.96128L3.30533 9.25418ZM8.91311 2.48684C9.23331 2.80704 9.23331 3.32619 8.91311 3.6464L9.62022 4.3535C10.3309 3.64278 10.3309 2.49046 9.62021 1.77973L8.91311 2.48684ZM7.75355 2.48684C8.07375 2.16663 8.5929 2.16663 8.91311 2.48684L9.62021 1.77973C8.90949 1.069 7.75717 1.069 7.04644 1.77973L7.75355 2.48684ZM2.2364 7.90389C2.22903 7.976 2.19702 8.04336 2.14577 8.09462L1.43866 7.38751C1.3272 7.49897 1.25759 7.64547 1.24157 7.80228L2.2364 7.90389ZM1.09828 9.20523C1.0339 9.83552 1.56442 10.366 2.19471 10.3017L2.0931 9.30684L1.09828 9.20523Z" fill="#9394A4"/>
</svg>
