<svg width="32" height="32" viewBox="0 0 32 32" fill="none" xmlns="http://www.w3.org/2000/svg">
<path d="M22 26C24.2091 26 26 24.2091 26 22C26 19.7909 24.2091 18 22 18C19.7909 18 18 19.7909 18 22C18 24.2091 19.7909 26 22 26Z" stroke="#181C34" stroke-width="1.2" stroke-linecap="round" stroke-linejoin="round"/>
<path d="M19.172 19.1719L24.828 24.8279" stroke="#181C34" stroke-width="1.2" stroke-linecap="round" stroke-linejoin="round"/>
<path d="M16 19H10.5714C9.35901 19 8.19625 19.4498 7.33894 20.2504C6.48163 21.051 6 22.1368 6 23.2691L6 25H15.5" stroke="#181C34" stroke-width="1.2" stroke-linecap="round" stroke-linejoin="round"/>
<path d="M14 16C16.4853 16 18.5 13.9853 18.5 11.5C18.5 9.01472 16.4853 7 14 7C11.5147 7 9.5 9.01472 9.5 11.5C9.5 13.9853 11.5147 16 14 16Z" stroke="#181C34" stroke-width="1.2" stroke-linecap="round" stroke-linejoin="round"/>
</svg>
