<svg width="16" height="16" viewBox="0 0 16 16" fill="none" xmlns="http://www.w3.org/2000/svg">
<path d="M11.6 14C12.9255 14 14 12.9254 14 11.6C14 10.2745 12.9255 9.19995 11.6 9.19995C10.2745 9.19995 9.20001 10.2745 9.20001 11.6C9.20001 12.9254 10.2745 14 11.6 14Z" stroke="#181C34" stroke-linecap="round" stroke-linejoin="round"/>
<path d="M9.90317 9.9032L13.2968 13.2968" stroke="#181C34" stroke-linecap="round" stroke-linejoin="round"/>
<path d="M8 9.59998H4.74286C4.01541 9.59998 3.31775 9.92981 2.80336 10.5169C2.28898 11.104 2 11.9003 2 12.7306L2 14H7.7" stroke="#181C34" stroke-linecap="round" stroke-linejoin="round"/>
<path d="M6.80001 7.4C8.29117 7.4 9.50001 6.19117 9.50001 4.7C9.50001 3.20883 8.29117 2 6.80001 2C5.30884 2 4.10001 3.20883 4.10001 4.7C4.10001 6.19117 5.30884 7.4 6.80001 7.4Z" stroke="#181C34" stroke-linecap="round" stroke-linejoin="round"/>
</svg>
