<svg width="48" height="48" viewBox="0 0 48 48" fill="none" xmlns="http://www.w3.org/2000/svg">
<path d="M25.0762 10C30.3339 10 34.607 14.2567 34.607 19.5123V22.4247C35.2945 22.014 37.5982 22.3127 36.8551 24.6931C36.5671 25.6173 35.2759 27.9417 34.2448 28.5204C33.2508 32.3944 30.111 35.4096 26.163 36.231C25.7357 36.8378 25.4106 37.2579 25.1319 37.5379C24.5095 38.154 23.4877 38.154 22.8653 37.5379C22.5866 37.2579 22.2708 36.8471 21.8342 36.231C17.8862 35.4096 14.7557 32.3944 13.7524 28.5204C12.7213 27.9323 11.4301 25.6079 11.1421 24.6931C10.4083 22.3127 12.7213 22.014 13.4087 22.4247V19.5029C13.4087 14.2567 17.6818 10 22.9489 10H25.0762Z" stroke="#4C00EE" stroke-width="1.5" stroke-miterlimit="10"/>
<path d="M13.4088 22.4341C13.4088 23.797 13.7525 28.5298 13.7525 28.5298C13.7525 28.5298 14.0962 25.6826 16.2141 25.5239C19.3447 25.2812 19.0567 28.1564 24.0079 28.1564C28.9498 28.1564 28.6619 25.2812 31.8017 25.5239C33.9197 25.6826 34.2634 28.5298 34.2634 28.5298C34.2634 28.5298 34.6071 22.7981 34.6071 22.2194V19.5123C34.6071 14.2567 30.334 10 25.0762 10H22.9489C17.6819 10 13.4088 14.2567 13.4088 19.5029V22.4247V22.4341Z" stroke="#4C00EE" stroke-width="1.5" stroke-miterlimit="10"/>
<circle cx="24" cy="18" r="5" fill="#68EDF5" stroke="#4C00EE" stroke-width="1.5" stroke-linecap="round" stroke-dasharray="0.5 2.5"/>
</svg>
