<svg width="48" height="48" viewBox="0 0 48 48" fill="none" xmlns="http://www.w3.org/2000/svg">
<path d="M10.911 33.3909L11.6596 33.437C11.6734 33.2133 11.5863 32.995 11.4222 32.8422L10.911 33.3909ZM10.9107 33.3953L10.1621 33.3498C10.1444 33.6419 10.2982 33.9177 10.556 34.0561C10.8139 34.1945 11.1287 34.1703 11.3624 33.994L10.9107 33.3953ZM10.9135 33.3932L11.4244 32.8442C11.1581 32.5964 10.7524 32.5754 10.462 32.7944L10.9135 33.3932ZM16.5907 35L17.2844 34.7151C17.1689 34.4337 16.8948 34.25 16.5907 34.25V35ZM15.9677 38.9992L15.3958 38.514C15.2083 38.735 15.165 39.0442 15.2844 39.3082C15.4038 39.5723 15.6646 39.7439 15.9543 39.7491L15.9677 38.9992ZM19.5451 37.6094L19.0315 37.0629L19.5451 37.6094ZM21.0607 35V34.25C20.7146 34.25 20.4134 34.4868 20.3318 34.8231L21.0607 35ZM9.75 15C9.75 12.1005 12.1005 9.75 15 9.75V8.25C11.2721 8.25 8.25 11.2721 8.25 15H9.75ZM9.75 29V15H8.25V29H9.75ZM11.4222 32.8422C10.3924 31.8828 9.75 30.517 9.75 29H8.25C8.25 30.9503 9.07813 32.7084 10.3998 33.9397L11.4222 32.8422ZM10.1624 33.3448C10.1624 33.3458 10.1622 33.3479 10.1621 33.3498L11.6594 33.4408C11.6594 33.4397 11.6595 33.439 11.6596 33.437L10.1624 33.3448ZM11.3624 33.994C11.3621 33.9942 11.362 33.9943 11.3625 33.9939C11.3629 33.9937 11.3639 33.9929 11.365 33.9921L10.462 32.7944C10.4621 32.7942 10.4623 32.7941 10.4617 32.7946C10.4613 32.7949 10.4602 32.7957 10.4591 32.7965L11.3624 33.994ZM15 34.25C13.6181 34.25 12.3624 33.7171 11.4244 32.8442L10.4025 33.9423C11.6071 35.0633 13.2242 35.75 15 35.75V34.25ZM16.5907 34.25H15V35.75H16.5907V34.25ZM15.8969 35.2849C16.336 36.3545 16.1576 37.616 15.3958 38.514L16.5397 39.4844C17.6746 38.1464 17.9303 36.2881 17.2844 34.7151L15.8969 35.2849ZM15.9543 39.7491C17.4207 39.7753 18.8981 39.2469 20.0588 38.1559L19.0315 37.0629C18.1635 37.8787 17.0675 38.2687 15.9811 38.2493L15.9543 39.7491ZM20.0588 38.1559C20.9425 37.3252 21.5213 36.2824 21.7895 35.1769L20.3318 34.8231C20.1293 35.6578 19.6941 36.44 19.0315 37.0629L20.0588 38.1559ZM33 34.25H21.0607V35.75H33V34.25ZM38.25 29C38.25 31.8995 35.8995 34.25 33 34.25V35.75C36.7279 35.75 39.75 32.7279 39.75 29H38.25ZM38.25 15V29H39.75V15H38.25ZM33 9.75C35.8995 9.75 38.25 12.1005 38.25 15H39.75C39.75 11.2721 36.7279 8.25 33 8.25V9.75ZM15 9.75H33V8.25H15V9.75Z" fill="#4C00EE"/>
<path d="M24.3405 27.6492H30.3901" stroke="#4C00EE" stroke-width="1.5" stroke-linecap="round" stroke-linejoin="round"/>
<path d="M18.161 24.7025L17.9235 27.0283C17.8913 27.3435 18.1565 27.6087 18.4717 27.5765L20.7975 27.339C20.8593 27.3327 20.917 27.3052 20.9609 27.2613L29.1389 19.0833C29.8906 18.3316 29.8906 17.1128 29.1389 16.3611C28.3872 15.6094 27.1684 15.6094 26.4167 16.3611L18.2386 24.5391C18.1947 24.583 18.1673 24.6407 18.161 24.7025Z" fill="#68EDF5"/>
<path d="M17.9235 27.0283L18.6696 27.1045L18.6696 27.1045L17.9235 27.0283ZM18.161 24.7025L17.4149 24.6263L17.4149 24.6263L18.161 24.7025ZM20.7975 27.339L20.7213 26.5929L20.7213 26.5929L20.7975 27.339ZM18.4717 27.5765L18.5479 28.3226L18.5479 28.3226L18.4717 27.5765ZM18.6696 27.1045L18.9071 24.7787L17.4149 24.6263L17.1773 26.9521L18.6696 27.1045ZM18.769 25.0695L26.947 16.8914L25.8863 15.8308L17.7083 24.0088L18.769 25.0695ZM28.6086 18.553L20.4305 26.731L21.4912 27.7917L29.6692 19.6137L28.6086 18.553ZM20.7213 26.5929L18.3955 26.8304L18.5479 28.3226L20.8737 28.0851L20.7213 26.5929ZM20.4305 26.731C20.5087 26.6529 20.6114 26.6041 20.7213 26.5929L20.8737 28.0851C21.1072 28.0612 21.3253 27.9576 21.4912 27.7917L20.4305 26.731ZM28.6086 16.8914C29.0674 17.3503 29.0674 18.0942 28.6086 18.553L29.6692 19.6137C30.7138 18.569 30.7138 16.8754 29.6692 15.8308L28.6086 16.8914ZM26.947 16.8914C27.4058 16.4326 28.1497 16.4326 28.6086 16.8914L29.6692 15.8308C28.6246 14.7862 26.9309 14.7862 25.8863 15.8308L26.947 16.8914ZM18.9071 24.7787C18.8959 24.8886 18.8471 24.9913 18.769 25.0695L17.7083 24.0088C17.5424 24.1747 17.4387 24.3928 17.4149 24.6263L18.9071 24.7787ZM17.1773 26.9521C17.0969 27.74 17.76 28.4031 18.5479 28.3226L18.3955 26.8304C18.553 26.8143 18.6857 26.9469 18.6696 27.1045L17.1773 26.9521Z" fill="#4C00EE"/>
</svg>
