<svg width="80" height="80" viewBox="0 0 80 80" fill="none" xmlns="http://www.w3.org/2000/svg">
<path d="M28.639 56.8667L29.5641 56.4869C29.41 56.1117 29.0446 55.8667 28.639 55.8667V56.8667ZM27.6838 62.9988L26.9212 62.3519C26.6713 62.6465 26.6134 63.0588 26.7726 63.4108C26.9318 63.7629 27.2796 63.9917 27.6659 63.9986L27.6838 62.9988ZM33.1692 60.8678L32.4843 60.1392L33.1692 60.8678ZM35.4931 56.8667V55.8667C35.0316 55.8667 34.6301 56.1824 34.5213 56.6309L35.4931 56.8667ZM18 25C18 21.134 21.134 18 25 18V16C20.0294 16 16 20.0294 16 25H18ZM18 48.8667V25H16V48.8667H18ZM25 55.8667C21.134 55.8667 18 52.7327 18 48.8667H16C16 53.8372 20.0294 57.8667 25 57.8667V55.8667ZM28.639 55.8667H25V57.8667H28.639V55.8667ZM27.714 57.2465C28.408 58.9369 28.1267 60.9309 26.9212 62.3519L28.4463 63.6457C30.1494 61.6382 30.5337 58.8484 29.5641 56.4869L27.714 57.2465ZM27.6659 63.9986C29.8763 64.0382 32.1036 63.2419 33.8541 61.5964L32.4843 60.1392C31.1242 61.4176 29.4054 62.0294 27.7017 61.999L27.6659 63.9986ZM33.8541 61.5964C35.1871 60.3435 36.0601 58.7705 36.4649 57.1025L34.5213 56.6309C34.2041 57.9378 33.5225 59.1633 32.4843 60.1392L33.8541 61.5964ZM55 55.8667H35.4931V57.8667H55V55.8667ZM62 48.8667C62 52.7327 58.866 55.8667 55 55.8667V57.8667C59.9706 57.8667 64 53.8372 64 48.8667H62ZM62 25V48.8667H64V25H62ZM55 18C58.866 18 62 21.134 62 25H64C64 20.0294 59.9706 16 55 16V18ZM25 18H55V16H25V18Z" fill="#4C00EE"/>
<path d="M40.522 45.5955H49.7982" stroke="#4C00EE" stroke-width="2" stroke-linecap="round" stroke-linejoin="round"/>
<path d="M31.0469 41.0771L30.6494 44.969C30.6172 45.2841 30.8825 45.5494 31.1976 45.5172L35.0895 45.1197C35.1842 45.11 35.2727 45.068 35.34 45.0007L47.8796 32.4611C49.0323 31.3084 49.0323 29.4396 47.8796 28.287C46.727 27.1343 44.8582 27.1343 43.7056 28.287L31.1659 40.8266C31.0986 40.8939 31.0566 40.9824 31.0469 41.0771Z" fill="#68EDF5"/>
<path d="M30.6494 44.969L31.6442 45.0706L31.6442 45.0706L30.6494 44.969ZM31.0469 41.0771L30.0521 40.9755L30.0521 40.9755L31.0469 41.0771ZM35.0895 45.1197L35.1911 46.1145L35.1911 46.1145L35.0895 45.1197ZM31.1976 45.5172L31.2992 46.512L31.2992 46.512L31.1976 45.5172ZM31.6442 45.0706L32.0417 41.1787L30.0521 40.9755L29.6546 44.8674L31.6442 45.0706ZM31.8731 41.5337L44.4127 28.9941L42.9985 27.5799L30.4588 40.1195L31.8731 41.5337ZM47.1725 31.754L34.6329 44.2936L36.0471 45.7078L48.5867 33.1682L47.1725 31.754ZM34.9879 44.1249L31.096 44.5224L31.2992 46.512L35.1911 46.1145L34.9879 44.1249ZM34.6329 44.2936C34.7283 44.1982 34.8537 44.1386 34.9879 44.1249L35.1911 46.1145C35.5148 46.0815 35.8171 45.9378 36.0471 45.7078L34.6329 44.2936ZM47.1725 28.9941C47.9346 29.7562 47.9346 30.9918 47.1725 31.754L48.5867 33.1682C50.1299 31.625 50.1299 29.123 48.5867 27.5799L47.1725 28.9941ZM44.4127 28.9941C45.1748 28.232 46.4104 28.232 47.1725 28.9941L48.5867 27.5799C47.0436 26.0367 44.5416 26.0367 42.9985 27.5799L44.4127 28.9941ZM32.0417 41.1787C32.028 41.3129 31.9685 41.4383 31.8731 41.5337L30.4588 40.1195C30.2288 40.3495 30.0852 40.6519 30.0521 40.9755L32.0417 41.1787ZM29.6546 44.8674C29.558 45.8128 30.3538 46.6086 31.2992 46.512L31.096 44.5224C31.4112 44.4902 31.6764 44.7555 31.6442 45.0706L29.6546 44.8674Z" fill="#4C00EE"/>
</svg>
