<svg width="48" height="48" viewBox="0 0 48 48" fill="none" xmlns="http://www.w3.org/2000/svg">
<path d="M29.6818 34.4544V32.1817C29.6818 30.9762 29.2029 29.82 28.3505 28.9676C27.498 28.1151 26.3419 27.6362 25.1364 27.6362H16.0455C14.8399 27.6362 13.6838 28.1151 12.8313 28.9676C11.9789 29.82 11.5 30.9762 11.5 32.1817V34.4544" fill="#68EDF5"/>
<path d="M29.6818 34.4544V32.1817C29.6818 30.9762 29.2029 29.82 28.3505 28.9676C27.498 28.1151 26.3419 27.6362 25.1364 27.6362H16.0455C14.8399 27.6362 13.6838 28.1151 12.8313 28.9676C11.9789 29.82 11.5 30.9762 11.5 32.1817V34.4544H29.6818Z" stroke="#4C00EE" stroke-width="1.5" stroke-linecap="round" stroke-linejoin="round"/>
<path d="M20.5909 23.0909C23.1013 23.0909 25.1363 21.0558 25.1363 18.5455C25.1363 16.0351 23.1013 14 20.5909 14C18.0805 14 16.0454 16.0351 16.0454 18.5455C16.0454 21.0558 18.0805 23.0909 20.5909 23.0909Z" fill="#68EDF5" stroke="#4C00EE" stroke-width="1.5" stroke-linecap="round" stroke-linejoin="round"/>
<path d="M36.5 34.4541V32.1814C36.4992 31.1743 36.164 30.1959 35.547 29.4C34.9299 28.604 34.066 28.0355 33.0909 27.7837" stroke="#4C00EE" stroke-width="1.5" stroke-linecap="round" stroke-linejoin="round"/>
<path d="M28.5454 14.1475C29.5232 14.3978 30.3898 14.9664 31.0087 15.7637C31.6275 16.561 31.9634 17.5416 31.9634 18.5509C31.9634 19.5602 31.6275 20.5407 31.0087 21.338C30.3898 22.1353 29.5232 22.7039 28.5454 22.9543" stroke="#4C00EE" stroke-width="1.5" stroke-linecap="round" stroke-linejoin="round"/>
</svg>
