<svg width="48" height="48" viewBox="0 0 48 48" fill="none" xmlns="http://www.w3.org/2000/svg">
<path d="M34.5978 22.4303V19.5094C34.5978 14.265 30.3246 10.0098 25.0669 10.0098H22.9396C17.6725 10.0098 13.4087 14.265 13.4087 19.5094V22.4303C12.7213 22.0197 10.4083 22.3183 11.1421 24.6979C11.4301 25.6124 12.7213 27.936 13.7524 28.5239C14.7557 32.3965 17.8862 35.4106 21.8342 36.2318C22.2708 36.8477 22.5866 37.2583 22.8653 37.5383C23.4877 38.1542 24.5095 38.1542 25.1319 37.5383C25.4106 37.2583 25.7357 36.8384 26.163 36.2318C30.111 35.4106 33.2508 32.3965 34.2448 28.5239C35.2759 27.9453 36.5671 25.6217 36.8551 24.6979C37.5982 22.3183 35.2759 22.0197 34.5885 22.4303H34.5978Z" stroke="#4C00EE" stroke-width="1.5" stroke-miterlimit="10"/>
<path d="M26.5513 18.2866H21.4459C17.0276 18.2866 13.4459 21.8683 13.4459 26.2866V28.5142C19.7202 23.8886 28.2776 23.8878 34.5513 28.5142V26.2866C34.5513 21.8683 30.9696 18.2866 26.5513 18.2866Z" fill="#68EDF5"/>
<path d="M25.0576 10H22.9303C17.6633 10 13.3994 14.2553 13.3994 19.4997V22.4205C13.3994 23.7829 13.7432 28.5048 13.7432 28.5048C13.7432 28.5048 14.0311 23.2417 15.954 21.142C18.3878 18.5012 20.5151 18.5012 23.9893 18.5012C27.4635 18.5012 29.6001 18.5012 32.0246 21.142C33.9568 23.2323 34.2355 28.5048 34.2355 28.5048C34.2355 28.5048 34.5792 23.7736 34.5792 22.4205V19.4997C34.5792 14.2553 30.3061 10 25.0483 10H25.0576Z" stroke="#4C00EE" stroke-width="1.5" stroke-miterlimit="10"/>
<path d="M14.25 28.2V28.2C20.0034 23.794 27.9966 23.794 33.75 28.2V28.2" stroke="#4C00EE" stroke-width="1.5" stroke-linecap="round" stroke-dasharray="0.5 2"/>
<path d="M24 18.5438V13.0156" stroke="#4C00EE" stroke-width="1.5" stroke-linecap="round"/>
</svg>
