<svg width="80" height="80" viewBox="0 0 80 80" fill="none" xmlns="http://www.w3.org/2000/svg">
<path d="M56.1433 34.5V32.6061C56.1433 24.5507 49.7343 18.0146 41.8483 18.0146H38.6577C30.7578 18.0146 24.3627 24.5507 24.3627 32.6061V37.0925C23.3317 36.4618 19.8624 36.9205 20.9631 40.5755C21.395 41.9802 23.3317 45.5492 24.8782 46.4522C26.383 52.4006 31.0783 57.0303 36.9997 58.2916C37.6546 59.2376 38.1283 59.8683 38.5463 60.2983C39.4798 61.2443 41.0124 61.2443 41.9459 60.2983C42.3638 59.8683 42.8515 59.2233 43.4924 58.2916C49.4138 57.0303 54.1231 52.4006 55.6139 46.4522C57.1604 45.5635 59.0971 41.9945 59.529 40.5755C60.6436 36.9205 57.1604 36.4618 56.1294 37.0925L56.1433 34.5Z" stroke="#4C00EE" stroke-width="2" stroke-miterlimit="10"/>
<path d="M43 31H37C30.3726 31 25 36.3726 25 43V46L27.892 43.8001C35.0477 38.3571 44.9558 38.3577 52.1108 43.8017L55 46V43C55 36.3726 49.6274 31 43 31Z" fill="#68EDF5"/>
<path d="M41.8344 18H38.6438C30.7439 18 24.3488 24.5361 24.3488 32.5914V37.0778C24.3488 39.1705 24.8643 46.4232 24.8643 46.4232C24.8643 46.4232 25.2962 38.3392 28.1803 35.1141C31.8306 31.0578 35.0213 31.0578 40.2321 31.0578C45.443 31.0578 48.6475 31.0578 52.2839 35.1141C55.182 38.3248 55.5999 46.4232 55.5999 46.4232C55.5999 46.4232 56.1155 39.1562 56.1155 37.0778V32.5914C56.1155 24.5361 49.7064 18 41.8204 18H41.8344Z" stroke="#4C00EE" stroke-width="2" stroke-miterlimit="10"/>
<path d="M25.6245 45.955L27.906 44.1658C35.1527 38.4825 45.3436 38.4825 52.5904 44.1658L54.8718 45.955" stroke="#4C00EE" stroke-width="2" stroke-linecap="round" stroke-dasharray="1 4"/>
<path d="M22.9997 45.7896C23.4997 49.1346 23.5997 57.0597 20 62.0001" stroke="#4C00EE" stroke-width="2" stroke-linecap="round"/>
<path d="M57.0003 45.7896C56.5003 49.1346 56.4003 57.0597 60 62.0001" stroke="#4C00EE" stroke-width="2" stroke-linecap="round"/>
<path d="M40.2482 30.6316V22.6316" stroke="#4C00EE" stroke-width="2" stroke-linecap="round"/>
</svg>
