<svg width="16" height="16" viewBox="0 0 16 16" fill="none" xmlns="http://www.w3.org/2000/svg">
<path d="M7.999 1C4.34398 1 1.38 3.74126 1.38 7.12169C1.38 9.61888 2.42647 10.8118 3.85889 11.8979L3.86499 11.901V14.8314C3.86499 14.9702 4.02364 15.0495 4.13347 14.9656L6.64286 13.1015L6.69778 13.1244C7.11881 13.2022 7.55356 13.2434 7.999 13.2434C11.654 13.2434 14.618 10.5021 14.618 7.12017C14.618 3.73821 11.6555 1 7.999 1ZM5.78097 8.67309C6.4293 8.67309 6.98456 8.2841 7.15237 7.68459H8.11188C7.87696 8.83937 6.97846 9.596 5.78097 9.596C4.38975 9.596 3.28684 8.55868 3.28684 7.11407C3.28684 5.66945 4.38975 4.63213 5.78097 4.63213C6.99067 4.63213 7.89527 5.40402 8.11798 6.57863H7.16152C7.0166 5.93946 6.4415 5.54131 5.78097 5.54131C4.84586 5.54131 4.22347 6.20794 4.22347 7.11254C4.22347 8.01714 4.93129 8.67157 5.78097 8.67157M12.104 9.49989H11.2238V7.51526C11.2238 7.05915 10.9584 6.81355 10.5496 6.81355C10.0935 6.81355 9.79905 7.09271 9.79905 7.65866V9.49989H8.91885V4.64891H9.79905V6.47489C10.0096 6.15455 10.3513 5.99742 10.815 5.99742C11.1903 5.99742 11.4969 6.11946 11.7349 6.37269C11.9805 6.62439 12.104 6.96609 12.104 7.40848V9.50142V9.49989Z" fill="#7ABFFF"/>
</svg>
