<svg width="16" height="16" viewBox="0 0 16 16" fill="none" xmlns="http://www.w3.org/2000/svg">
<path d="M9.00002 13H8.50002C8.50002 13.2022 8.62185 13.3846 8.80868 13.4619C8.99552 13.5393 9.21058 13.4966 9.35358 13.3536L9.00002 13ZM14 8L14.3536 8.35355C14.5488 8.15829 14.5488 7.84171 14.3536 7.64645L14 8ZM9.00002 3L9.35358 2.64645C9.21058 2.50345 8.99552 2.46067 8.80868 2.53806C8.62185 2.61545 8.50002 2.79777 8.50002 3H9.00002ZM9.00002 6.5V7C9.27617 7 9.50002 6.77614 9.50002 6.5H9.00002ZM9.00002 10H9.50002C9.50002 9.72386 9.27617 9.5 9.00002 9.5V10ZM6.49998 9.5C6.22384 9.5 5.99998 9.72386 5.99998 10C5.99998 10.2761 6.22384 10.5 6.49998 10.5V9.5ZM1.5 13C1.5 13.2761 1.72386 13.5 2 13.5C2.27614 13.5 2.5 13.2761 2.5 13H1.5ZM9.35358 13.3536L14.3536 8.35355L13.6464 7.64645L8.64647 12.6464L9.35358 13.3536ZM14.3536 7.64645L9.35358 2.64645L8.64647 3.35355L13.6464 8.35355L14.3536 7.64645ZM8.50002 3V6.5H9.50002V3H8.50002ZM9.50002 13V10H8.50002V13H9.50002ZM9.00002 9.5H6.49998V10.5H9.00002V9.5ZM2.5 13C2.5 9.47331 5.70847 7 9.00002 7V6C5.29161 6 1.5 8.7947 1.5 13H2.5Z" fill="#4C00EE"/>
</svg>
