<svg width="16" height="16" viewBox="0 0 16 16" fill="none" xmlns="http://www.w3.org/2000/svg">
<path d="M9.875 1.75H6.125C5.77982 1.75 5.5 2.02982 5.5 2.375V3.625C5.5 3.97018 5.77982 4.25 6.125 4.25H9.875C10.2202 4.25 10.5 3.97018 10.5 3.625V2.375C10.5 2.02982 10.2202 1.75 9.875 1.75Z" stroke="#D7D8DA" stroke-linecap="round" stroke-linejoin="round"/>
<path d="M10.5 3H11.75C12.0815 3 12.3995 3.1317 12.6339 3.36612C12.8683 3.60054 13 3.91848 13 4.25V13C13 13.3315 12.8683 13.6495 12.6339 13.8839C12.3995 14.1183 12.0815 14.25 11.75 14.25H4.25C3.91848 14.25 3.60054 14.1183 3.36612 13.8839C3.1317 13.6495 3 13.3315 3 13V4.25C3 3.91848 3.1317 3.60054 3.36612 3.36612C3.60054 3.1317 3.91848 3 4.25 3H5.5" stroke="#D7D8DA" stroke-linecap="round" stroke-linejoin="round"/>
<path d="M8 7.375H10.5" stroke="#D7D8DA" stroke-linecap="round" stroke-linejoin="round"/>
<path d="M8 10.5H10.5" stroke="#D7D8DA" stroke-linecap="round" stroke-linejoin="round"/>
<path d="M5.5 7.375H5.50729" stroke="#D7D8DA" stroke-linecap="round" stroke-linejoin="round"/>
<path d="M5.5 10.5H5.50729" stroke="#D7D8DA" stroke-linecap="round" stroke-linejoin="round"/>
</svg>
