<svg width="24" height="24" viewBox="0 0 24 24" fill="none" xmlns="http://www.w3.org/2000/svg">
<path d="M19.5 10.125C19.5 15.75 12 21.375 12 21.375C12 21.375 4.5 15.75 4.5 10.125C4.5 8.13588 5.29018 6.22822 6.6967 4.8217C8.10322 3.41518 10.0109 2.625 12 2.625C13.9891 2.625 15.8968 3.41518 17.3033 4.8217C18.7098 6.22822 19.5 8.13588 19.5 10.125Z" fill="white" stroke="#4C00EE" stroke-linecap="round" stroke-linejoin="round"/>
<path d="M12 15C14.4853 15 16.5 12.9853 16.5 10.5C16.5 8.01472 14.4853 6 12 6C9.51472 6 7.5 8.01472 7.5 10.5C7.5 12.9853 9.51472 15 12 15Z" fill="#4C00EE" stroke="#4C00EE" stroke-linecap="round" stroke-linejoin="round"/>
<path d="M9.75006 10.5001H14.2501" stroke="white" stroke-linecap="round"/>
<path d="M11.9999 12.75V8.25" stroke="white" stroke-linecap="round"/>
</svg>
