<svg width="16" height="16" viewBox="0 0 16 16" fill="none" xmlns="http://www.w3.org/2000/svg">
<path d="M13 6.75C13 10.5 8 14.25 8 14.25C8 14.25 3 10.5 3 6.75C3 5.42392 3.52678 4.15215 4.46447 3.21447C5.40215 2.27678 6.67392 1.75 8 1.75C9.32608 1.75 10.5979 2.27678 11.5355 3.21447C12.4732 4.15215 13 5.42392 13 6.75V6.75Z" stroke="#7ABFFF" stroke-linecap="round" stroke-linejoin="round"/>
<path d="M8 8.62488C9.03553 8.62488 9.875 7.78541 9.875 6.74988C9.875 5.71434 9.03553 4.87488 8 4.87488C6.96447 4.87488 6.125 5.71434 6.125 6.74988C6.125 7.78541 6.96447 8.62488 8 8.62488Z" stroke="#7ABFFF" stroke-linecap="round" stroke-linejoin="round"/>
</svg>
