<svg width="20" height="20" viewBox="0 0 20 20" fill="none" xmlns="http://www.w3.org/2000/svg">
<path d="M16 8.5C16 13 10 17.5 10 17.5C10 17.5 4 13 4 8.5C4 6.9087 4.63214 5.38258 5.75736 4.25736C6.88258 3.13214 8.4087 2.5 10 2.5C11.5913 2.5 13.1174 3.13214 14.2426 4.25736C15.3679 5.38258 16 6.9087 16 8.5V8.5Z" stroke="white" stroke-linecap="round" stroke-linejoin="round"/>
<path d="M10 10.7498C11.2426 10.7498 12.25 9.7424 12.25 8.49976C12.25 7.25712 11.2426 6.24976 10 6.24976C8.75736 6.24976 7.75 7.25712 7.75 8.49976C7.75 9.7424 8.75736 10.7498 10 10.7498Z" stroke="white" stroke-linecap="round" stroke-linejoin="round"/>
</svg>
