<svg width="48" height="48" viewBox="0 0 48 48" fill="none" xmlns="http://www.w3.org/2000/svg">
<path d="M29.5385 15.3669H18.4615C16.5498 15.3669 15 16.9167 15 18.8285V33.7131C15 35.6249 16.5498 37.1746 18.4615 37.1746H29.5385C31.4502 37.1746 33 35.6249 33 33.7131V18.8285C33 16.9167 31.4502 15.3669 29.5385 15.3669Z" stroke="#4C00EE" stroke-width="1.5" stroke-linecap="round" stroke-linejoin="round"/>
<path d="M30.0577 12.9231C30.0577 14.2592 28.9708 15.3462 27.6346 15.3462H20.3654C19.0292 15.3462 17.9423 14.2592 17.9423 12.9231C17.9423 11.5869 19.0292 10.5 20.3654 10.5H27.6346C28.9708 10.5 30.0577 11.5869 30.0577 12.9231Z" fill="#68EDF5" stroke="#4C00EE" stroke-width="1.5" stroke-linecap="round" stroke-linejoin="round"/>
<path d="M24 22.864V27.814" stroke="#4C00EE" stroke-width="1.5" stroke-linecap="round" stroke-linejoin="round"/>
<path d="M21.5215 25.3425H26.4785" stroke="#4C00EE" stroke-width="1.5" stroke-linecap="round" stroke-linejoin="round"/>
</svg>
