<svg width="20" height="20" viewBox="0 0 20 20" fill="none" xmlns="http://www.w3.org/2000/svg">
<path d="M7.50891 13.4511L9.55838 14.9985C9.89654 15.2034 10.3372 14.9677 10.3372 14.5681V11.2582C9.39442 11.996 8.46192 12.7236 7.51916 13.4614L7.50891 13.4511Z" fill="#181C34"/>
<path d="M6.62756 12.785C7.85724 11.832 9.08693 10.8688 10.3269 9.91575V5.26345C10.3269 4.8638 9.88622 4.61787 9.54806 4.83306L6.11519 7.42564H3.51237C3.22544 7.42564 3 7.65108 3 7.93801V11.8832C3 12.1702 3.22544 12.3956 3.51237 12.3956H6.11519L6.62756 12.785Z" fill="#181C34"/>
<path d="M12.7044 8.09182L13.514 7.46673C13.514 7.46673 13.4422 7.36426 13.4012 7.32327C13.1963 7.11832 12.8786 7.11832 12.6737 7.32327C12.4687 7.52821 12.4687 7.84588 12.6737 8.05083C12.6839 8.06108 12.6942 8.08157 12.7147 8.10206L12.7044 8.09182Z" fill="#181C34"/>
<path d="M13.2576 8.96285C13.3703 9.26002 13.442 9.58794 13.442 9.91585C13.442 10.6229 13.1654 11.289 12.6632 11.7911C12.4583 11.9961 12.4583 12.3137 12.6632 12.5187C12.7657 12.6212 12.8989 12.6724 13.0219 12.6724C13.1449 12.6724 13.2883 12.6212 13.3805 12.5187C14.0774 11.8219 14.4565 10.8996 14.4565 9.9261C14.4565 9.3625 14.3131 8.81939 14.0774 8.32751L13.2473 8.9731L13.2576 8.96285Z" fill="#181C34"/>
<path d="M15.1841 6.15508L15.9937 5.52999C15.8092 5.2943 15.6145 5.06886 15.3993 4.85366C15.1944 4.64871 14.8767 4.64871 14.6718 4.85366C14.4668 5.05861 14.4668 5.37628 14.6718 5.58122C14.8562 5.76568 15.0202 5.96038 15.1841 6.16532V6.15508Z" fill="#181C34"/>
<path d="M16.5572 6.38049L15.7477 7.01583C16.2191 7.8971 16.4753 8.88085 16.4753 9.91583C16.4753 11.5554 15.8399 13.0925 14.682 14.2505C14.477 14.4554 14.477 14.7731 14.682 14.978C14.7844 15.0805 14.9177 15.1317 15.0406 15.1317C15.1636 15.1317 15.3071 15.0805 15.3993 14.978C16.7519 13.6254 17.5 11.8218 17.5 9.91583C17.5 8.65541 17.1721 7.44622 16.5675 6.38049H16.5572Z" fill="#181C34"/>
<path d="M17.4898 6.15515L4.69086 16.1361" stroke="#181C34" stroke-linecap="round" stroke-linejoin="round"/>
</svg>
