<svg width="32" height="32" viewBox="0 0 32 32" fill="none" xmlns="http://www.w3.org/2000/svg">
<path d="M24.5556 5H7.44444C6.09441 5 5 6.09441 5 7.44444V24.5556C5 25.9056 6.09441 27 7.44444 27H24.5556C25.9056 27 27 25.9056 27 24.5556V7.44444C27 6.09441 25.9056 5 24.5556 5Z" stroke="#4C00EE" stroke-width="1.2" stroke-linecap="round" stroke-linejoin="round"/>
<path d="M20 13.5C21.1046 13.5 22 12.6046 22 11.5C22 10.3954 21.1046 9.5 20 9.5C18.8954 9.5 18 10.3954 18 11.5C18 12.6046 18.8954 13.5 20 13.5Z" stroke="#4C00EE" stroke-width="1.2" stroke-linecap="round" stroke-linejoin="round"/>
<path d="M8 21.5L14.4751 16.7516C15.0665 16.3179 15.8848 16.3755 16.4097 16.8877L18.993 19.4084C19.3608 19.7674 19.9409 19.789 20.3345 19.4585L23.8571 16.5001" stroke="#4C00EE" stroke-width="1.2" stroke-linecap="round" stroke-linejoin="round"/>
</svg>
