<svg width="16" height="16" viewBox="0 0 16 16" fill="none" xmlns="http://www.w3.org/2000/svg">
<path d="M3.79999 5.9V1H12.2V5.9" stroke="#9394A4" stroke-linecap="round" stroke-linejoin="round"/>
<path d="M3.8 12.2H2.4C2.0287 12.2 1.6726 12.0525 1.41005 11.79C1.1475 11.5274 1 11.1713 1 10.8V7.30002C1 6.92872 1.1475 6.57263 1.41005 6.31008C1.6726 6.04752 2.0287 5.90002 2.4 5.90002H13.6C13.9713 5.90002 14.3274 6.04752 14.5899 6.31008C14.8525 6.57263 15 6.92872 15 7.30002V10.8C15 11.1713 14.8525 11.5274 14.5899 11.79C14.3274 12.0525 13.9713 12.2 13.6 12.2H12.2" stroke="#9394A4" stroke-linecap="round" stroke-linejoin="round"/>
<path d="M12.2 9.40002H3.79999V15H12.2V9.40002Z" stroke="#9394A4" stroke-linecap="round" stroke-linejoin="round"/>
</svg>
