<svg width="20" height="20" viewBox="0 0 20 20" fill="none" xmlns="http://www.w3.org/2000/svg">
<circle cx="10" cy="10" r="9" fill="#F3F5F8" stroke="white"/>
<path d="M15.5 10.2142V9.78577C15.5 9.42727 15.2639 9.11248 14.9229 9.00755L14.4201 8.85453C14.1884 8.78458 14.0004 8.61407 13.9086 8.3911V8.38235C13.8124 8.15501 13.8211 7.90143 13.9348 7.68283L14.184 7.2194C14.3545 6.90461 14.2933 6.5155 14.0397 6.26192L13.7381 5.96025C13.4845 5.70668 13.0954 5.64984 12.7806 5.81598L12.3172 6.06518C12.1029 6.17886 11.845 6.19197 11.6176 6.09579H11.6089C11.3859 5.9996 11.2154 5.81161 11.1455 5.57989L10.9924 5.07711C10.8875 4.73609 10.5727 4.5 10.2142 4.5H9.78577C9.42727 4.5 9.11248 4.73609 9.00755 5.07711L8.85453 5.57989C8.78458 5.81161 8.61407 5.9996 8.3911 6.09142H8.38235C8.15501 6.1876 7.90143 6.17886 7.68283 6.06518L7.2194 5.81598C6.90461 5.64547 6.5155 5.70668 6.26192 5.96025L5.96025 6.26192C5.70668 6.5155 5.64984 6.90461 5.81598 7.2194L6.06518 7.68283C6.17886 7.89706 6.19197 8.15501 6.09579 8.38235V8.3911C5.9996 8.61407 5.81161 8.78458 5.57989 8.85453L5.07711 9.00755C4.73609 9.11248 4.5 9.42727 4.5 9.78577V10.2142C4.5 10.5727 4.73609 10.8875 5.07711 10.9924L5.57989 11.1455C5.81161 11.2154 5.9996 11.3859 6.09142 11.6089V11.6176C6.1876 11.845 6.17886 12.0986 6.06518 12.3172L5.81598 12.7806C5.64547 13.0954 5.70668 13.4845 5.96025 13.7381L6.26192 14.0397C6.5155 14.2933 6.90461 14.3502 7.2194 14.184L7.68283 13.9348C7.89706 13.8211 8.15501 13.808 8.38235 13.9042H8.3911C8.61407 14.0004 8.78458 14.1884 8.85453 14.4201L9.00755 14.9229C9.11248 15.2639 9.42727 15.5 9.78577 15.5H10.2142C10.5727 15.5 10.8875 15.2639 10.9924 14.9229L11.1455 14.4201C11.2154 14.1884 11.3859 14.0004 11.6089 13.9086H11.6176C11.845 13.8124 12.0986 13.8211 12.3172 13.9348L12.7806 14.184C13.0954 14.3545 13.4845 14.2933 13.7381 14.0397L14.0397 13.7381C14.2933 13.4845 14.3502 13.0954 14.184 12.7806L13.9348 12.3172C13.8211 12.1029 13.808 11.845 13.9042 11.6176V11.6089C14.0004 11.3859 14.1884 11.2154 14.4201 11.1455L14.9229 10.9924C15.2639 10.8875 15.5 10.5727 15.5 10.2142V10.2142Z" stroke="#9394A4" stroke-linecap="round" stroke-linejoin="round"/>
<path d="M9.99999 11.9645C11.0848 11.9645 11.9643 11.085 11.9643 10.0002C11.9643 8.91533 11.0848 8.03589 9.99999 8.03589C8.91515 8.03589 8.03571 8.91533 8.03571 10.0002C8.03571 11.085 8.91515 11.9645 9.99999 11.9645Z" stroke="#9394A4" stroke-linecap="round" stroke-linejoin="round"/>
</svg>
