<svg width="20" height="20" viewBox="0 0 20 20" fill="none" xmlns="http://www.w3.org/2000/svg">
<path d="M15.0499 5.25977C16.3123 6.52223 17 8.19525 17 9.97091C17 11.7466 16.3021 13.4196 15.0499 14.6821" stroke="#181C34" stroke-linecap="round" stroke-linejoin="round"/>
<path d="M13.0381 7.73328C13.6129 8.30806 13.9619 9.09838 13.9619 9.97081C13.9619 10.8432 13.6027 11.6336 13.0381 12.2083" stroke="#181C34" stroke-linecap="round" stroke-linejoin="round"/>
<path d="M9.55865 4.87994L6.12023 7.47672H3.5132C3.22581 7.47672 3 7.70252 3 7.98991V11.9415C3 12.2289 3.22581 12.4547 3.5132 12.4547H6.12023L9.55865 15.0515C9.89736 15.2568 10.3387 15.0207 10.3387 14.6204V5.31103C10.3387 4.91074 9.89736 4.6644 9.55865 4.87994Z" fill="#181C34"/>
</svg>
