<svg width="12" height="12" viewBox="0 0 12 12" fill="none" xmlns="http://www.w3.org/2000/svg">
<path d="M4.97303 4.45701L6 2.37867L7.02697 4.45701L7.47523 4.23551L7.02697 4.45701C7.14347 4.69277 7.36839 4.85622 7.6286 4.89422L9.92499 5.22952L8.26451 6.84512C8.07558 7.02895 7.98933 7.29406 8.03393 7.55388L8.42581 9.83628L6.37205 8.75737C6.13911 8.63499 5.86089 8.63499 5.62795 8.75737L3.5742 9.83628L3.96607 7.55388C4.01067 7.29406 3.92443 7.02895 3.73549 6.84512L2.07501 5.22952L4.3714 4.89422C4.63161 4.85622 4.85653 4.69277 4.97303 4.45701ZM10.2155 4.94684L10.2152 4.94716L10.2155 4.94684ZM3.2155 10.0247C3.21563 10.0246 3.21576 10.0246 3.21589 10.0245L3.2155 10.0247Z" stroke="#D7D8DA" stroke-linecap="round" stroke-linejoin="round"/>
</svg>
