<svg width="24" height="24" viewBox="0 0 24 24" fill="none" xmlns="http://www.w3.org/2000/svg">
<path d="M12.0446 4.00065L14.387 8.63422C14.6155 9.08604 15.0501 9.39784 15.5513 9.46937L20.7588 10.2126C20.7696 10.2141 20.7753 10.2164 20.7778 10.2176C20.7805 10.2188 20.7825 10.2202 20.7844 10.2219C20.7887 10.2256 20.7952 10.2338 20.7994 10.2469C20.8036 10.2599 20.803 10.2703 20.8017 10.2759C20.8011 10.2784 20.8002 10.2807 20.7988 10.2832C20.7974 10.2856 20.7941 10.2908 20.7862 10.2983L17.044 13.8573C16.6678 14.215 16.4957 14.7373 16.5855 15.2486L17.4718 20.2945C17.4737 20.3049 17.4733 20.3109 17.473 20.3137C17.4726 20.3166 17.472 20.319 17.4709 20.3214C17.4687 20.3268 17.463 20.3354 17.4523 20.3434C17.4415 20.3513 17.4316 20.3541 17.4258 20.3547C17.4232 20.355 17.4207 20.3549 17.4178 20.3544C17.4151 20.3539 17.4092 20.3524 17.3998 20.3476L12.708 17.9384C12.2636 17.7102 11.7364 17.7102 11.292 17.9384L6.60024 20.3476C6.59084 20.3524 6.58493 20.3539 6.5822 20.3544C6.57929 20.3549 6.57681 20.355 6.57421 20.3547C6.56843 20.3541 6.55851 20.3513 6.54774 20.3434C6.53696 20.3354 6.53133 20.3268 6.52906 20.3214C6.52804 20.319 6.52737 20.3166 6.52703 20.3137C6.52671 20.3109 6.52633 20.3049 6.52815 20.2945L7.41448 15.2486C7.50429 14.7373 7.33218 14.215 6.95602 13.8573L3.21378 10.2983C3.2059 10.2908 3.20256 10.2856 3.2012 10.2832C3.19975 10.2807 3.1989 10.2784 3.19832 10.2759C3.19701 10.2703 3.19644 10.2599 3.2006 10.2469C3.20477 10.2338 3.21129 10.2256 3.21559 10.2219C3.21751 10.2202 3.21952 10.2188 3.22218 10.2176C3.22466 10.2164 3.23041 10.2141 3.24117 10.2126L8.44866 9.46937C8.94987 9.39784 9.38454 9.08604 9.61296 8.63422L11.9554 4.00065C11.9601 3.99141 11.9639 3.98681 11.9659 3.98477C11.9679 3.9826 11.9699 3.98105 11.9722 3.97971C11.9772 3.97675 11.9868 3.97321 12 3.97321C12.0132 3.97321 12.0228 3.97675 12.0278 3.97971C12.0301 3.98105 12.0321 3.9826 12.0341 3.98477C12.0361 3.98681 12.0399 3.9914 12.0446 4.00065Z" stroke="#D7D8DA" stroke-width="1.5" stroke-linecap="round" stroke-linejoin="round"/>
</svg>
