<svg width="48" height="48" viewBox="0 0 48 48" fill="none" xmlns="http://www.w3.org/2000/svg">
<path d="M13.3013 26.7333L13.9951 26.4484C13.8796 26.1671 13.6055 25.9833 13.3013 25.9833V26.7333ZM12.9484 28.9996L12.3764 28.5145C12.189 28.7354 12.1456 29.0446 12.265 29.3087C12.3844 29.5727 12.6452 29.7443 12.935 29.7495L12.9484 28.9996ZM14.9756 28.2121L14.4619 27.6656H14.4619L14.9756 28.2121ZM15.8344 26.7333V25.9833C15.4883 25.9833 15.1872 26.2202 15.1055 26.5565L15.8344 26.7333ZM9.75 15C9.75 13.7574 10.7574 12.75 12 12.75V11.25C9.92893 11.25 8.25 12.9289 8.25 15H9.75ZM9.75 23.7333V15H8.25V23.7333H9.75ZM12 25.9833C10.7574 25.9833 9.75 24.976 9.75 23.7333H8.25C8.25 25.8044 9.92893 27.4833 12 27.4833V25.9833ZM13.3013 25.9833H12V27.4833H13.3013V25.9833ZM12.6075 27.0182C12.8117 27.5153 12.7273 28.1008 12.3764 28.5145L13.5203 29.4848C14.2443 28.6313 14.4059 27.4489 13.9951 26.4484L12.6075 27.0182ZM12.935 29.7495C13.8482 29.7658 14.7681 29.4364 15.4892 28.7585L14.4619 27.6656C14.0335 28.0683 13.495 28.2593 12.9618 28.2497L12.935 29.7495ZM15.4892 28.7585C16.0379 28.2428 16.397 27.5953 16.5633 26.9102L15.1055 26.5565C15.005 26.9708 14.7895 27.3576 14.4619 27.6656L15.4892 28.7585ZM23 25.9833H15.8344V27.4833H23V25.9833ZM25.25 23.7333C25.25 24.976 24.2426 25.9833 23 25.9833V27.4833C25.0711 27.4833 26.75 25.8044 26.75 23.7333H25.25ZM25.25 15V23.7333H26.75V15H25.25ZM23 12.75C24.2426 12.75 25.25 13.7574 25.25 15H26.75C26.75 12.9289 25.0711 11.25 23 11.25V12.75ZM12 12.75H23V11.25H12V12.75Z" fill="#4C00EE"/>
<path fill-rule="evenodd" clip-rule="evenodd" d="M35 16C37.2091 16 39 17.7909 39 20V29.3333C39 30.4891 38.5098 31.5304 37.726 32.2606C37.7261 32.2615 37.7261 32.2624 37.7262 32.2634C37.7256 32.2629 37.725 32.2625 37.7245 32.2621C37.0103 32.9268 36.0526 33.3333 35 33.3333H33.9395C33.5778 34.2143 33.7226 35.2543 34.3551 35.9996C33.5041 36.0149 32.6462 35.7088 31.9699 35.0731C31.4544 34.5885 31.1164 33.9801 30.9595 33.3333H23C20.7909 33.3333 19 31.5425 19 29.3333V20C19 17.7909 20.7909 16 23 16H35Z" fill="#68EDF5"/>
<path d="M37.726 32.2606L36.9774 32.3067C36.9637 32.0829 37.0507 31.8647 37.2148 31.7119L37.726 32.2606ZM37.7262 32.2634L38.4748 32.2178C38.4926 32.5101 38.3387 32.7859 38.0807 32.9243C37.8227 33.0627 37.5078 33.0383 37.2742 32.8618L37.7262 32.2634ZM37.7245 32.2621L37.2135 31.713C37.4795 31.4655 37.8846 31.4442 38.1751 31.6625L37.7245 32.2621ZM33.9395 33.3333L33.2456 33.0485C33.3612 32.7671 33.6352 32.5833 33.9395 32.5833V33.3333ZM34.3551 35.9996L34.9269 35.5143C35.1145 35.7353 35.1579 36.0445 35.0385 36.3086C34.9191 36.5726 34.6583 36.7443 34.3686 36.7495L34.3551 35.9996ZM31.9699 35.0731L32.4836 34.5266L31.9699 35.0731ZM30.9595 33.3333V32.5833C31.3056 32.5833 31.6068 32.8202 31.6884 33.1565L30.9595 33.3333ZM38.25 20C38.25 18.2051 36.7949 16.75 35 16.75V15.25C37.6234 15.25 39.75 17.3766 39.75 20H38.25ZM38.25 29.3333V20H39.75V29.3333H38.25ZM37.2148 31.7119C37.8527 31.1176 38.25 30.2724 38.25 29.3333H39.75C39.75 30.7058 39.167 31.9432 38.2373 32.8094L37.2148 31.7119ZM38.4746 32.2145C38.4746 32.2144 38.4746 32.2142 38.4746 32.2149C38.4747 32.2154 38.4747 32.2165 38.4748 32.2178L36.9776 32.3089C36.9776 32.3093 36.9776 32.3095 36.9776 32.3091C36.9776 32.3088 36.9775 32.3078 36.9774 32.3067L38.4746 32.2145ZM37.2742 32.8618L37.2738 32.8616L38.1751 31.6625C38.1752 31.6626 38.1753 31.6627 38.1754 31.6628C38.1756 31.6629 38.1758 31.6631 38.1761 31.6633C38.1766 31.6636 38.1773 31.6642 38.1782 31.6649L37.2742 32.8618ZM35 32.5833C35.8556 32.5833 36.6326 32.2537 37.2135 31.713L38.2354 32.8111C37.3879 33.5998 36.2496 34.0833 35 34.0833V32.5833ZM33.9395 32.5833H35V34.0833H33.9395V32.5833ZM34.6333 33.6181C34.375 34.2474 34.4811 34.989 34.9269 35.5143L33.7832 36.4849C32.9642 35.5196 32.7807 34.1812 33.2456 33.0485L34.6333 33.6181ZM34.3686 36.7495C33.3276 36.7682 32.279 36.3929 31.4563 35.6196L32.4836 34.5266C33.0135 35.0247 33.6807 35.2616 34.3416 35.2497L34.3686 36.7495ZM31.4563 35.6196C30.8302 35.0311 30.4205 34.2924 30.2307 33.5102L31.6884 33.1565C31.8124 33.6678 32.0786 34.1459 32.4836 34.5266L31.4563 35.6196ZM23 32.5833H30.9595V34.0833H23V32.5833ZM19.75 29.3333C19.75 31.1283 21.2051 32.5833 23 32.5833V34.0833C20.3766 34.0833 18.25 31.9567 18.25 29.3333H19.75ZM19.75 20V29.3333H18.25V20H19.75ZM23 16.75C21.2051 16.75 19.75 18.2051 19.75 20H18.25C18.25 17.3766 20.3766 15.25 23 15.25V16.75ZM35 16.75H23V15.25H35V16.75Z" fill="#4C00EE"/>
</svg>
