<svg width="24" height="24" viewBox="0 0 24 24" fill="none" xmlns="http://www.w3.org/2000/svg">
<path d="M11.286 3.66228C11.582 3.07685 12.418 3.07685 12.714 3.66228L15.0564 8.29585C15.1743 8.52905 15.3986 8.68998 15.6573 8.7269L20.8648 9.4701C21.5267 9.56456 21.7875 10.381 21.3031 10.8418L17.5608 14.4008C17.3667 14.5854 17.2779 14.855 17.3242 15.1189L18.2105 20.1647C18.3249 20.8157 17.6452 21.3167 17.0572 21.0148L12.3654 18.6056C12.136 18.4878 11.864 18.4878 11.6346 18.6056L6.94283 21.0148C6.35483 21.3167 5.67511 20.8157 5.78946 20.1647L6.67579 15.1189C6.72214 14.855 6.63331 14.5854 6.43916 14.4008L2.69692 10.8418C2.21245 10.381 2.47334 9.56456 3.1352 9.4701L8.3427 8.7269C8.60138 8.68998 8.82573 8.52905 8.94363 8.29585L11.286 3.66228Z" fill="#4C00EE"/>
</svg>
