<svg width="80" height="80" viewBox="0 0 80 80" fill="none" xmlns="http://www.w3.org/2000/svg">
<path d="M32.3976 18.5554C29.545 20.7682 26.6125 23.8429 25.946 27.122C25.2795 30.4011 25.555 34.1424 25.555 34.1424C25.555 34.56 25.2972 34.9688 24.844 35.271C23.8754 35.9197 23.3422 36.7728 23.3422 37.6703H23.3333C23.3333 38.4879 23.7865 39.2788 24.6219 39.9097L24.7196 39.9897C25.1106 40.283 25.3239 40.6651 25.3239 41.0472V47.7032C25.3239 48.3253 26.1237 49.2939 27.119 49.2939H31.6422C33.304 49.3117 34.4237 51.0179 33.9172 52.5908C33.9172 52.5908 34.0416 54.7591 29.9716 64.8009" stroke="#4C00EE" stroke-width="2" stroke-miterlimit="10" stroke-linecap="round" stroke-linejoin="round"/>
<mask id="path-2-inside-1_801_656" fill="white">
<path d="M28.6386 19.8084C31.6511 16.7959 35.8189 14.9564 40.4221 15.0008C49.4952 15.0985 56.6667 22.7943 56.6667 31.8674V66.116C56.6667 66.116 56.6489 66.1516 56.6311 66.1516H35.8367C35.8367 66.1516 35.8011 66.1338 35.81 66.116L38.396 55.1412C39.1602 51.8798 39.1602 48.503 38.396 45.2683C38.005 43.5976 37.2407 42.0425 36.2454 40.6473C34.8591 38.71 32.6286 35.3065 31.2246 31.8052C29.5983 27.7441 28.6475 19.8173 28.6475 19.8173"/>
</mask>
<path d="M28.6386 19.8084C31.6511 16.7959 35.8189 14.9564 40.4221 15.0008C49.4952 15.0985 56.6667 22.7943 56.6667 31.8674V66.116C56.6667 66.116 56.6489 66.1516 56.6311 66.1516H35.8367C35.8367 66.1516 35.8011 66.1338 35.81 66.116L38.396 55.1412C39.1602 51.8798 39.1602 48.503 38.396 45.2683C38.005 43.5976 37.2407 42.0425 36.2454 40.6473C34.8591 38.71 32.6286 35.3065 31.2246 31.8052C29.5983 27.7441 28.6475 19.8173 28.6475 19.8173" fill="#68EDF5"/>
<path d="M27.2244 18.3942C26.4433 19.1752 26.4433 20.4416 27.2244 21.2226C28.0054 22.0037 29.2717 22.0037 30.0528 21.2226L27.2244 18.3942ZM40.4221 15.0008L40.4437 13.0009L40.4414 13.0009L40.4221 15.0008ZM56.6667 66.116L58.4556 67.0103C58.5944 66.7327 58.6667 66.4265 58.6667 66.116H56.6667ZM35.8367 66.1516L34.9422 67.9404C35.2199 68.0793 35.5261 68.1516 35.8367 68.1516V66.1516ZM35.81 66.116L37.5989 67.0105C37.6682 66.8718 37.7211 66.7256 37.7567 66.5747L35.81 66.116ZM38.396 55.1412L40.3427 55.5999L40.3432 55.5975L38.396 55.1412ZM38.396 45.2683L36.4486 45.724L36.4496 45.7281L38.396 45.2683ZM36.2454 40.6473L37.8736 39.4858L37.8719 39.4834L36.2454 40.6473ZM31.2246 31.8052L29.3679 32.5487L29.3683 32.5496L31.2246 31.8052ZM30.6332 19.5791C30.5017 18.4824 29.506 17.7 28.4093 17.8315C27.3126 17.9631 26.5301 18.9588 26.6617 20.0555L30.6332 19.5791ZM30.0528 21.2226C32.6999 18.5755 36.3566 16.9616 40.4028 17.0007L40.4414 13.0009C35.2811 12.9511 30.6024 15.0162 27.2244 18.3942L30.0528 21.2226ZM40.4006 17.0007C48.3088 17.0859 54.6667 23.8204 54.6667 31.8674H58.6667C58.6667 21.7681 50.6816 13.1112 40.4437 13.0009L40.4006 17.0007ZM54.6667 31.8674V66.116H58.6667V31.8674H54.6667ZM56.6667 66.116C54.8777 65.2217 54.8779 65.2214 54.8781 65.221C54.8782 65.2209 54.8783 65.2206 54.8784 65.2203C54.8787 65.2199 54.8789 65.2194 54.8792 65.2189C54.8796 65.218 54.8801 65.217 54.8806 65.2161C54.8815 65.2142 54.8825 65.2123 54.8835 65.2104C54.8854 65.2065 54.8875 65.2025 54.8895 65.1985C54.8937 65.1905 54.8981 65.182 54.9028 65.1732C54.9122 65.1558 54.9232 65.1359 54.936 65.114C54.9591 65.0743 54.9988 65.0095 55.0555 64.9339C55.1035 64.8699 55.2152 64.728 55.3947 64.5843C55.5464 64.463 55.9795 64.1516 56.6311 64.1516V68.1516C57.2917 68.1516 57.7336 67.8358 57.8936 67.7077C58.0814 67.5574 58.2009 67.4066 58.2556 67.3337C58.319 67.2492 58.3642 67.1756 58.3912 67.1292C58.406 67.104 58.4185 67.0812 58.4289 67.0619C58.4341 67.0521 58.439 67.0429 58.4434 67.0344C58.4456 67.0301 58.4477 67.0259 58.4497 67.0219C58.4507 67.0199 58.4517 67.018 58.4527 67.016C58.4532 67.0151 58.4537 67.0141 58.4542 67.0132C58.4544 67.0127 58.4546 67.0122 58.4549 67.0118C58.455 67.0115 58.4552 67.0112 58.4552 67.011C58.4554 67.0107 58.4556 67.0103 56.6667 66.116ZM56.6311 64.1516H35.8367V68.1516H56.6311V64.1516ZM35.8367 66.1516C36.7311 64.3628 36.7316 64.363 36.732 64.3632C36.7322 64.3633 36.7326 64.3635 36.7329 64.3636C36.7335 64.3639 36.7341 64.3642 36.7347 64.3645C36.7358 64.3651 36.737 64.3657 36.7382 64.3663C36.7406 64.3675 36.743 64.3687 36.7454 64.37C36.7503 64.3725 36.7553 64.375 36.7604 64.3777C36.7706 64.383 36.7815 64.3888 36.7929 64.395C36.8154 64.4073 36.8418 64.4223 36.8712 64.4402C36.9223 64.4713 37.0156 64.5311 37.1216 64.622C37.2055 64.6939 37.4294 64.8949 37.5993 65.2347C37.6919 65.4199 37.7873 65.6842 37.8055 66.0118C37.8245 66.3542 37.7547 66.6989 37.5989 67.0105L34.0211 65.2216C33.6676 65.9288 33.816 66.6124 34.0215 67.0235C34.1956 67.3716 34.4267 67.5804 34.5184 67.659C34.6321 67.7565 34.7338 67.8219 34.7913 67.8569C34.8238 67.8767 34.853 67.8933 34.8774 67.9066C34.8898 67.9133 34.9014 67.9195 34.9121 67.9251C34.9175 67.9279 34.9227 67.9305 34.9277 67.9331C34.9302 67.9344 34.9326 67.9356 34.9351 67.9368C34.9363 67.9375 34.9375 67.9381 34.9387 67.9386C34.9392 67.9389 34.9398 67.9392 34.9404 67.9395C34.9407 67.9397 34.9412 67.9399 34.9413 67.94C34.9417 67.9402 34.9422 67.9404 35.8367 66.1516ZM37.7567 66.5747L40.3427 55.5999L36.4493 54.6825L33.8633 65.6573L37.7567 66.5747ZM40.3432 55.5975C41.1775 52.0372 41.1784 48.3467 40.3424 44.8084L36.4496 45.7281C37.1421 48.6592 37.1429 51.7224 36.4487 54.6849L40.3432 55.5975ZM40.3434 44.8125C39.8833 42.847 38.9937 41.0559 37.8736 39.4858L34.6173 41.8088C35.4878 43.029 36.1266 44.3482 36.4486 45.724L40.3434 44.8125ZM37.8719 39.4834C36.5193 37.5932 34.3966 34.3419 33.0809 31.0608L29.3683 32.5496C30.8606 36.2711 33.199 39.8268 34.619 41.8112L37.8719 39.4834ZM33.0812 31.0617C32.3517 29.2399 31.7354 26.4228 31.2955 23.9394C31.0799 22.7226 30.9138 21.6281 30.8016 20.8381C30.7455 20.4435 30.7031 20.1259 30.6748 19.9083C30.6607 19.7995 30.6501 19.7157 30.6432 19.6599C30.6397 19.632 30.6371 19.611 30.6355 19.5974C30.6346 19.5906 30.634 19.5857 30.6337 19.5826C30.6335 19.5811 30.6333 19.58 30.6333 19.5794C30.6332 19.5791 30.6332 19.5789 30.6332 19.5789C30.6332 19.5789 30.6332 19.5789 30.6332 19.5789C30.6332 19.579 30.6332 19.5791 28.6475 19.8173C26.6617 20.0555 26.6617 20.0557 26.6617 20.0558C26.6618 20.056 26.6618 20.0562 26.6618 20.0564C26.6619 20.0568 26.6619 20.0574 26.662 20.058C26.6622 20.0594 26.6624 20.0612 26.6627 20.0635C26.6632 20.068 26.664 20.0745 26.665 20.0828C26.6671 20.0995 26.67 20.1236 26.6739 20.1547C26.6817 20.217 26.6931 20.3075 26.7082 20.4234C26.7382 20.6551 26.7828 20.9885 26.8413 21.4005C26.9582 22.2236 27.1314 23.3647 27.3568 24.6372C27.7989 27.1325 28.4712 30.3093 29.3679 32.5487L33.0812 31.0617Z" fill="#4C00EE" mask="url(#path-2-inside-1_801_656)"/>
</svg>
