<svg width="16" height="16" viewBox="0 0 16 16" fill="none" xmlns="http://www.w3.org/2000/svg">
<path d="M1 5.20033C1 4.20019 1.7388 3.3538 2.72977 3.21867L3.94661 3.05274C6.63642 2.68594 9.36358 2.68594 12.0534 3.05274L13.2702 3.21867C14.2612 3.3538 15 4.20019 15 5.20033V10.7997C15 11.7998 14.2612 12.6462 13.2702 12.7813L12.0534 12.9473C9.36358 13.3141 6.63642 13.3141 3.9466 12.9473L2.72977 12.7813C1.7388 12.6462 1 11.7998 1 10.7997V5.20033Z" fill="white"/>
<path d="M10.1441 7.75346C10.3163 7.87276 10.3163 8.12735 10.1441 8.24665L7.22085 10.2719C7.02189 10.4098 6.75 10.2674 6.75 10.0253L6.75 5.97479C6.75 5.73274 7.02189 5.59035 7.22085 5.72819L10.1441 7.75346Z" fill="#F4313C"/>
</svg>
